<svg width="32" height="32" viewBox="0 0 32 32" fill="none" xmlns="http://www.w3.org/2000/svg">

<path d="M4.64274 24.6944V29.0625H9.88539V24.6944C10.8505 24.6944 11.6329 23.9121 11.6329 22.9472V22.0736C11.6329 20.9148 11.1725 19.804 10.3533 18.985C9.53412 18.1655 8.42267 17.7055 7.26406 17.7055C6.10546 17.7055 4.99401 18.1655 4.17481 18.985C3.35568 19.804 2.8952 20.9148 2.8952 22.0736V22.9472C2.8952 23.9121 3.67763 24.6944 4.64274 24.6944Z" stroke="white" stroke-width="1.63128" stroke-miterlimit="10" stroke-linecap="round" stroke-linejoin="round"/>
<path d="M13.3811 29.0625H18.6238V22.0736C19.5889 22.0736 20.3714 21.2913 20.3714 20.3263V16.8319C20.3714 14.4194 18.4154 12.4638 16.0025 12.4638C13.5895 12.4638 11.6336 14.4194 11.6336 16.8319V20.3263C11.6336 21.2913 12.4161 22.0736 13.3811 22.0736V29.0625Z" stroke="white" stroke-width="1.63128" stroke-miterlimit="10" stroke-linecap="round" stroke-linejoin="round"/>
<path d="M22.1181 29.0625H27.3608V19.4527C27.8243 19.4527 28.2686 19.2684 28.5963 18.9408C28.9244 18.6132 29.1083 18.1685 29.1083 17.7055V11.5902C29.1083 9.17767 27.1524 7.22209 24.7395 7.22209C22.3265 7.22209 20.3706 9.17767 20.3706 11.5902V17.7055C20.3706 18.1685 20.5545 18.6132 20.8826 18.9408C21.2103 19.2684 21.6546 19.4527 22.1181 19.4527V29.0625Z" stroke="white" stroke-width="1.63128" stroke-miterlimit="10" stroke-linecap="round" stroke-linejoin="round"/>
<path d="M7.2638 13.3487C8.46962 13.3487 9.44826 14.3272 9.44826 15.5328C9.44826 16.7379 8.46962 17.7168 7.2638 17.7168C6.05799 17.7168 5.07935 16.7379 5.07935 15.5328C5.07935 14.3272 6.05799 13.3487 7.2638 13.3487Z" stroke="white" stroke-width="1.63128" stroke-miterlimit="10" stroke-linecap="round" stroke-linejoin="round"/>
<path d="M16.0016 8.10264C17.2074 8.10264 18.1861 9.08111 18.1861 10.2867C18.1861 11.4919 17.2074 12.4707 16.0016 12.4707C14.7958 12.4707 13.8171 11.4919 13.8171 10.2867C13.8171 9.08111 14.7958 8.10264 16.0016 8.10264Z" stroke="white" stroke-width="1.63128" stroke-miterlimit="10" stroke-linecap="round" stroke-linejoin="round"/>
<path d="M24.7388 2.85264C25.9447 2.85264 26.9233 3.83111 26.9233 5.0367C26.9233 6.24185 25.9447 7.2207 24.7388 7.2207C23.533 7.2207 22.5544 6.24185 22.5544 5.0367C22.5544 3.83111 23.533 2.85264 24.7388 2.85264Z" stroke="white" stroke-width="1.63128" stroke-miterlimit="10" stroke-linecap="round" stroke-linejoin="round"/>

</svg>
