<svg width="24" height="24" viewBox="0 0 24 24" fill="none" xmlns="http://www.w3.org/2000/svg">

<path d="M8.36887 16.2422V18.2246C8.36887 18.2246 8.21028 22.1602 12.0001 22.1602C15.7899 22.1602 15.6314 18.2246 15.6314 18.2246V16.2422" stroke="black" stroke-width="1.26561" stroke-miterlimit="10" stroke-linecap="round" stroke-linejoin="round"/>
<path d="M15.6315 18.2283L21.3974 20.6815C21.8643 20.8801 22.1674 21.3384 22.1676 21.8458L22.1677 22.1641H1.83282L1.83287 21.8458C1.83295 21.3384 2.13612 20.8801 2.60302 20.6814L8.36895 18.2283" stroke="black" stroke-width="1.26561" stroke-miterlimit="10" stroke-linecap="round" stroke-linejoin="round"/>
<path d="M12.0002 17.8105C9.2555 17.8105 7.27319 15.7895 7.27319 13.2965V8.09989C8.24547 3.44577 10.6455 6.00516 12.0002 6.00516C13.355 6.00516 15.6315 3.44577 16.7273 8.09989V13.2965C16.7273 15.7895 14.745 17.8105 12.0002 17.8105Z" stroke="black" stroke-width="1.26561" stroke-miterlimit="10" stroke-linecap="round" stroke-linejoin="round"/>
<path d="M7.27307 13.3574H5.58554C4.88656 13.3574 4.31989 12.7908 4.31989 12.0918V9.37029C4.31989 8.67133 4.88656 8.10467 5.58554 8.10467H7.27307V13.3574Z" stroke="black" stroke-width="1.26561" stroke-miterlimit="10" stroke-linecap="round" stroke-linejoin="round"/>
<path d="M18.4147 13.3574H16.7272V8.10467H18.4147C19.1137 8.10467 19.6804 8.67133 19.6804 9.37029V12.0918C19.6804 12.7908 19.1137 13.3574 18.4147 13.3574Z" stroke="black" stroke-width="1.26561" stroke-miterlimit="10" stroke-linecap="round" stroke-linejoin="round"/>
<path d="M16.7272 13.3531L15.2417 14.3437C14.7565 14.6672 14.1864 14.8398 13.6032 14.8398H12.533" stroke="black" stroke-width="1.26561" stroke-miterlimit="10" stroke-linecap="round" stroke-linejoin="round"/>
<path d="M18.0526 8.10352V7.88461C18.0526 4.54205 16.6409 1.83236 12.0002 1.83236C7.35948 1.83236 5.94781 4.54205 5.94781 7.88461V8.10352" stroke="black" stroke-width="1.26561" stroke-miterlimit="10" stroke-linecap="round" stroke-linejoin="round"/>

</svg>
