<svg width="20" height="20" viewBox="0 0 20 20" fill="none" xmlns="http://www.w3.org/2000/svg">
<path opacity="0.4" d="M17 13.608C16.7667 14.233 16.275 14.708 15.6334 14.9247C14.7334 15.2247 13.8084 15.4497 12.875 15.608C12.7834 15.6247 12.6917 15.6413 12.6 15.6497C12.45 15.6747 12.3 15.6913 12.15 15.708C11.9667 15.733 11.775 15.7497 11.5834 15.7663C11.0584 15.808 10.5417 15.833 10.0167 15.833C9.48336 15.833 8.95003 15.808 8.42503 15.758C8.20003 15.7413 7.98336 15.7163 7.76669 15.683C7.64169 15.6663 7.51669 15.6497 7.40003 15.633C7.30836 15.6163 7.21669 15.608 7.12503 15.5913C6.20003 15.4413 5.28336 15.2163 4.39169 14.9163C3.72503 14.6913 3.21669 14.2163 2.99169 13.608C2.76669 13.008 2.85003 12.308 3.20836 11.708L4.15003 10.1413C4.35003 9.79967 4.53336 9.14134 4.53336 8.74134V7.19134C4.53336 4.16634 6.99169 1.70801 10.0167 1.70801C13.0334 1.70801 15.4917 4.16634 15.4917 7.19134V8.74134C15.4917 9.14134 15.675 9.79967 15.8834 10.1413L16.825 11.708C17.1667 12.2913 17.2334 12.9747 17 13.608Z" fill="#292D32"/>
<path d="M10 8.9667C9.65 8.9667 9.36667 8.68337 9.36667 8.33337V5.75003C9.36667 5.40003 9.65 5.1167 10 5.1167C10.35 5.1167 10.6333 5.40003 10.6333 5.75003V8.33337C10.625 8.68337 10.3417 8.9667 10 8.9667Z" fill="#292D32"/>
<path d="M12.3583 16.6748C12.0083 17.6415 11.0833 18.3332 9.99999 18.3332C9.34166 18.3332 8.69166 18.0665 8.23333 17.5915C7.96666 17.3415 7.76666 17.0082 7.64999 16.6665C7.75833 16.6832 7.86666 16.6915 7.98333 16.7082C8.17499 16.7332 8.37499 16.7582 8.57499 16.7748C9.04999 16.8165 9.53333 16.8415 10.0167 16.8415C10.4917 16.8415 10.9667 16.8165 11.4333 16.7748C11.6083 16.7582 11.7833 16.7498 11.95 16.7248C12.0833 16.7082 12.2167 16.6915 12.3583 16.6748Z" fill="#292D32"/>
</svg>
