<svg width="28" height="28" viewBox="0 0 28 28" fill="none" xmlns="http://www.w3.org/2000/svg">

<path d="M12.0781 18.6406V13.0156H21.5469V23.8906C21.5469 24.6672 20.9173 25.2969 20.1406 25.2969H14.8906" stroke="black" stroke-width="1.40625" stroke-miterlimit="10" stroke-linecap="round" stroke-linejoin="round"/>
<path d="M23.4219 20.5156H21.5469V14.4219H23.4219C24.4574 14.4219 25.2969 15.2614 25.2969 16.2969V18.6406C25.2969 19.6761 24.4574 20.5156 23.4219 20.5156Z" stroke="black" stroke-width="1.40625" stroke-miterlimit="10" stroke-linecap="round" stroke-linejoin="round"/>
<path d="M12.0781 18.6406H6.45313C4.38205 18.6406 2.70312 20.3195 2.70312 22.3906V23.8906C2.70312 24.6673 3.33275 25.2969 4.10938 25.2969H14.4219C15.1985 25.2969 15.8281 24.6673 15.8281 23.8906V22.3906C15.8281 20.3195 14.1492 18.6406 12.0781 18.6406Z" stroke="black" stroke-width="1.40625" stroke-miterlimit="10" stroke-linecap="round" stroke-linejoin="round"/>
<path d="M7.39062 18.6406V20.5156" stroke="black" stroke-width="1.40625" stroke-miterlimit="10" stroke-linecap="round" stroke-linejoin="round"/>
<path d="M11.1406 18.6406V20.5156" stroke="black" stroke-width="1.40625" stroke-miterlimit="10" stroke-linecap="round" stroke-linejoin="round"/>
<path d="M12.0781 15.8281H21.5469" stroke="black" stroke-width="1.40625" stroke-miterlimit="10" stroke-linecap="round" stroke-linejoin="round"/>
<path d="M18.2656 10.2031V9.26562C18.2656 8.489 18.8953 7.85937 19.6719 7.85937C20.4485 7.85937 21.0781 7.22975 21.0781 6.45312C21.0781 5.6765 20.4485 5.04687 19.6719 5.04687C18.8953 5.04687 18.2656 4.41725 18.2656 3.64062V2.70312" stroke="black" stroke-width="1.40625" stroke-miterlimit="10" stroke-linecap="round" stroke-linejoin="round"/>
<path d="M13.5781 10.2031V9.26562C13.5781 8.489 14.2078 7.85937 14.9844 7.85937C15.761 7.85937 16.3906 7.22975 16.3906 6.45312C16.3906 5.6765 15.761 5.04687 14.9844 5.04687C14.2078 5.04687 13.5781 4.41725 13.5781 3.64062V2.70312" stroke="black" stroke-width="1.40625" stroke-miterlimit="10" stroke-linecap="round" stroke-linejoin="round"/>

</svg>
