<svg width="64" height="65" viewBox="0 0 64 65" fill="none" xmlns="http://www.w3.org/2000/svg">
<path d="M25.3382 26.9485C25.3382 30.6278 28.3209 33.6102 32 33.6102C35.6791 33.6102 38.6617 30.6278 38.6617 26.9485C38.6617 23.2692 35.6791 20.2868 32 20.2868C28.3209 20.2868 25.3382 23.2694 25.3382 26.9485ZM22.0074 32.5C23.0062 32.5 23.8195 31.8282 24.0985 30.921C23.4917 29.7201 23.1176 28.3832 23.1176 26.9485C23.1176 26.008 23.3041 25.1186 23.5762 24.2673C23.2332 23.9246 22.7667 23.7289 22.2599 23.6686C23.2554 19.201 27.2366 15.8456 32 15.8456C36.7634 15.8456 40.7446 19.201 41.7401 23.6686C41.2332 23.7289 40.7668 23.9246 40.4237 24.2673C40.6959 25.1186 40.8824 26.008 40.8824 26.9485C40.8824 28.3832 40.5082 29.7201 39.9015 30.921C40.1805 31.8282 40.9937 32.5 41.9926 32.5C43.2191 32.5 44.2132 31.5059 44.2132 30.2794V25.8382C44.2132 19.1039 38.7344 13.625 32 13.625C25.2656 13.625 19.7867 19.1039 19.7867 25.8382V30.2794C19.7867 31.5059 20.7809 32.5 22.0074 32.5ZM24.2279 51.375H39.772V42.4926H24.2279V51.375ZM32 44.7131C32.6131 44.7131 33.1102 45.2103 33.1102 45.8234C33.1102 46.4366 32.6131 46.9336 32 46.9336C31.3867 46.9336 30.8897 46.4366 30.8897 45.8234C30.8897 45.2103 31.3867 44.7131 32 44.7131ZM48.6393 50.0825L47.0367 40.4704C46.5889 37.7814 44.286 35.8307 41.5611 35.8307H22.4389C19.7141 35.8307 17.4111 37.7814 16.9632 40.4704L15.3607 50.0825C15.3065 50.4045 15.3976 50.733 15.609 50.9824C15.8194 51.2318 16.1295 51.3749 16.4557 51.3749H22.0072V41.3823C22.0072 40.7685 22.5039 40.272 23.1175 40.272H40.8822C41.4959 40.272 41.9925 40.7686 41.9925 41.3823V51.375H47.544C47.8704 51.375 48.1805 51.2319 48.3908 50.9825C48.6024 50.7331 48.6935 50.4046 48.6393 50.0825Z" fill="url(#paint0_linear_7111_777)"/>
<defs>
<linearGradient id="paint0_linear_7111_777" x1="32" y1="13.625" x2="32" y2="51.375" gradientUnits="userSpaceOnUse">
<stop stop-color="#C1E9FF"/>
<stop offset="1" stop-color="#00C0FF"/>
</linearGradient>
</defs>
</svg>
