<svg width="24" height="24" viewBox="0 0 24 24" fill="none" xmlns="http://www.w3.org/2000/svg">
<path d="M18.3092 9.8812C17.6964 7.90707 16.8613 6.07567 15.9575 4.72477C15.8564 4.57358 15.6942 4.47622 15.5152 4.45899C15.3362 4.44161 15.159 4.50667 15.0319 4.63602L12.6036 7.10419V2.5333C12.6036 2.30736 12.4813 2.09956 12.2852 1.99267C12.0892 1.88592 11.8514 1.89731 11.6662 2.02251C8.32934 4.27596 4.80005 10.8241 4.80005 14.7612C4.80005 18.7967 8.03004 22.0799 12.0001 22.0799C15.9702 22.0799 19.2 18.7967 19.2 14.7612C19.2 13.484 18.8755 11.7054 18.3092 9.8812ZM10.3013 19.1263C10.3013 18.4903 11.1771 16.6551 12.0001 15.1541C12.8231 16.6548 13.6989 18.4897 13.6989 19.1263C13.6989 20.0784 12.9369 20.8531 12.0001 20.8531C11.0633 20.8531 10.3013 20.0784 10.3013 19.1263ZM14.7082 20.1947C14.8353 19.8631 14.9058 19.503 14.9058 19.1263C14.9058 18.8898 14.9058 18.1701 13.6879 15.7615C13.11 14.6185 12.5417 13.6521 12.5178 13.6115C12.4088 13.4265 12.2123 13.3133 12.0001 13.3133C11.788 13.3133 11.5914 13.4265 11.4823 13.6115C11.4584 13.6521 10.8901 14.6185 10.3122 15.7615C9.0944 18.1701 9.0944 18.8898 9.0944 19.1263C9.0944 19.503 9.16476 19.8631 9.29187 20.1947C7.34428 19.1875 6.00695 17.1302 6.00695 14.7612C6.00695 13.1141 6.76459 10.7218 8.03382 8.36157C9.03478 6.50018 10.2397 4.87581 11.3967 3.80007V8.58521C11.3967 8.83331 11.5436 9.05694 11.7692 9.15184C11.9947 9.24674 12.2542 9.19429 12.4268 9.01895L15.3536 6.04383C16.9485 8.7564 17.9931 12.6101 17.9931 14.7612C17.9931 17.1304 16.6558 19.1875 14.7082 20.1947Z" fill="currentColor"/>
</svg>
