<svg width="58" height="58" viewBox="0 0 58 58" fill="none" xmlns="http://www.w3.org/2000/svg">
<g id="chat 1">
<g id="Group">
<path id="Vector" d="M44 18.3938V39.5348C44 42.2568 41.793 44.4638 39.071 44.4638L22 44.5348L12 55.5348V44.5348H4.929C2.207 44.5348 0 42.3278 0 39.6058V18.4648C0 15.7428 2.207 13.5358 4.929 13.5358L39.07 13.4648C41.793 13.4648 44 15.6718 44 18.3938Z" fill="#F079AC"/>
<path id="Vector_2" d="M22 24.4648H9C8.447 24.4648 8 24.0168 8 23.4648C8 22.9128 8.447 22.4648 9 22.4648H22C22.553 22.4648 23 22.9128 23 23.4648C23 24.0168 22.553 24.4648 22 24.4648Z" fill="white"/>
<path id="Vector_3" d="M35 30.4648H9C8.447 30.4648 8 30.0168 8 29.4648C8 28.9128 8.447 28.4648 9 28.4648H35C35.553 28.4648 36 28.9128 36 29.4648C36 30.0168 35.553 30.4648 35 30.4648Z" fill="white"/>
<path id="Vector_4" d="M35 36.4648H9C8.447 36.4648 8 36.0168 8 35.4648C8 34.9128 8.447 34.4648 9 34.4648H35C35.553 34.4648 36 34.9128 36 35.4648C36 36.0168 35.553 36.4648 35 36.4648Z" fill="white"/>
<path id="Vector_5" d="M53.071 2.53484L18.93 2.46484C16.207 2.46484 14 4.67184 14 7.39384V13.5158L39.071 13.4638C41.793 13.4638 44 15.6708 44 18.3938V36.8348L51 44.5348V33.5348H53.071C55.793 33.5348 58 31.3278 58 28.6058V7.46484C58 4.74184 55.793 2.53484 53.071 2.53484Z" fill="#B81A5D"/>
</g>
</g>
</svg>
