<svg width="28" height="28" viewBox="0 0 28 28" fill="none" xmlns="http://www.w3.org/2000/svg">
<path d="M26.8515 14C26.8515 10.8821 25.2537 8.43965 23.2141 8.43965C22.1991 8.43965 21.2937 9.04461 20.6399 10.0367C20.323 9.38524 19.8404 8.89342 19.2117 8.633C18.9017 8.50456 18.5697 8.43945 18.2245 8.43945C16.5079 8.43945 14.6991 10.0224 13.7233 12.3783C13.605 12.6638 13.5027 12.9544 13.4162 13.247H8.39155C8.1578 10.4977 6.65823 8.43965 4.78588 8.43965C2.74625 8.43965 1.14844 10.8821 1.14844 14C1.14844 17.4329 2.48524 20.6601 4.91256 23.0875C5.85383 24.0287 6.91571 24.8051 8.06288 25.404C7.79148 25.5179 7.60088 25.786 7.60088 26.0986C7.60088 26.5145 7.93817 26.8516 8.3539 26.8516H19.6459C20.0618 26.8516 20.3989 26.5145 20.3989 26.0986C20.3989 25.786 20.2085 25.5179 19.9371 25.404C21.0842 24.8051 22.1461 24.0287 23.0874 23.0875C25.5147 20.6601 26.8515 17.4329 26.8515 14ZM23.2141 9.94569C24.1126 9.94569 25.1023 11.2682 25.3072 13.247H21.1209C21.3258 11.2682 22.3157 9.94569 23.2141 9.94569ZM15.1146 12.9546C15.9241 11.0001 17.3211 9.94569 18.2245 9.94569C18.3708 9.94569 18.5091 9.97216 18.6354 10.0245C19.4264 10.3522 19.7533 11.7125 19.4582 13.247H15.0009C15.0366 13.149 15.0746 13.0515 15.1146 12.9546ZM4.78588 9.94569C5.68421 9.94569 6.67411 11.2682 6.87904 13.247H2.69272C2.89764 11.2682 3.88755 9.94569 4.78588 9.94569ZM14 25.3455C7.99719 25.3455 3.06825 20.6592 2.67919 14.7531H25.3208C24.9317 20.6592 20.0028 25.3455 14 25.3455Z" fill="black"/>
<path d="M11.1155 8.19976C13.7544 8.19976 15.9013 6.05268 15.9013 3.41377C15.9013 2.16462 14.8851 1.14844 13.636 1.14844C13.3673 1.14844 13.1189 1.29179 12.9841 1.52436C12.5992 2.18992 11.8832 2.6033 11.1155 2.6033C10.3478 2.6033 9.63182 2.18992 9.24688 1.52436C9.11216 1.29179 8.8639 1.14844 8.59505 1.14844C7.3459 1.14844 6.32971 2.16462 6.32971 3.41377C6.32971 6.05268 8.4766 8.19976 11.1155 8.19976ZM8.2556 2.73468C8.94489 3.59359 9.99794 4.10953 11.1155 4.10953C12.2331 4.10953 13.2861 3.59379 13.9754 2.73468C14.2243 2.8596 14.3953 3.11707 14.3953 3.41377C14.3953 5.2222 12.9241 6.69372 11.1155 6.69372C9.30708 6.69372 7.83575 5.2222 7.83575 3.41377C7.83575 3.11707 8.00675 2.8596 8.2556 2.73468Z" fill="black"/>
</svg>
