<svg width="20" height="20" viewBox="0 0 20 20" fill="none" xmlns="http://www.w3.org/2000/svg">
<path d="M10.0001 18.9577C5.05841 18.9577 1.04175 14.941 1.04175 9.99935C1.04175 5.05768 5.05841 1.04102 10.0001 1.04102C14.9417 1.04102 18.9584 5.05768 18.9584 9.99935C18.9584 14.941 14.9417 18.9577 10.0001 18.9577ZM10.0001 2.29102C5.75008 2.29102 2.29175 5.74935 2.29175 9.99935C2.29175 14.2493 5.75008 17.7077 10.0001 17.7077C14.2501 17.7077 17.7084 14.2493 17.7084 9.99935C17.7084 5.74935 14.2501 2.29102 10.0001 2.29102Z" fill="black"/>
<path d="M13.0916 13.2745C12.9833 13.2745 12.875 13.2495 12.775 13.1828L10.1916 11.6411C9.54995 11.2578 9.07495 10.4161 9.07495 9.67448V6.25781C9.07495 5.91615 9.35828 5.63281 9.69995 5.63281C10.0416 5.63281 10.325 5.91615 10.325 6.25781V9.67448C10.325 9.97448 10.575 10.4161 10.8333 10.5661L13.4166 12.1078C13.7166 12.2828 13.8083 12.6661 13.6333 12.9661C13.5083 13.1661 13.3 13.2745 13.0916 13.2745Z" fill="black"/>
</svg>
