<svg width="10" height="10" viewBox="0 0 10 10" fill="none" xmlns="http://www.w3.org/2000/svg">
<g id="vuesax/outline/close-circle">
<g id="vuesax/outline/close-circle_2">
<g id="close-circle">
<g id="Vector">
<path d="M4.99992 9.47786C2.52909 9.47786 0.520752 7.46953 0.520752 4.9987C0.520752 2.52786 2.52909 0.519531 4.99992 0.519531C7.47075 0.519531 9.47908 2.52786 9.47908 4.9987C9.47908 7.46953 7.47075 9.47786 4.99992 9.47786ZM4.99992 1.14453C2.87492 1.14453 1.14575 2.8737 1.14575 4.9987C1.14575 7.1237 2.87492 8.85286 4.99992 8.85286C7.12492 8.85286 8.85408 7.1237 8.85408 4.9987C8.85408 2.8737 7.12492 1.14453 4.99992 1.14453Z" fill="#FF0000"/>
<path d="M4.99992 1.14453C2.87492 1.14453 1.14575 2.8737 1.14575 4.9987C1.14575 7.1237 2.87492 8.85286 4.99992 8.85286C7.12492 8.85286 8.85408 7.1237 8.85408 4.9987C8.85408 2.8737 7.12492 1.14453 4.99992 1.14453Z" fill="#FF0000"/>
</g>
<path id="Vector_2" d="M3.82098 6.4901C3.74181 6.4901 3.66265 6.46094 3.60015 6.39844C3.47931 6.2776 3.47931 6.0776 3.60015 5.95677L5.95848 3.59844C6.07931 3.4776 6.27931 3.4776 6.40015 3.59844C6.52098 3.71927 6.52098 3.91927 6.40015 4.0401L4.04181 6.39844C3.98348 6.46094 3.90015 6.4901 3.82098 6.4901Z" fill="white"/>
<path id="Vector_3" d="M6.17931 6.4901C6.10015 6.4901 6.02098 6.46094 5.95848 6.39844L3.60015 4.0401C3.47931 3.91927 3.47931 3.71927 3.60015 3.59844C3.72098 3.4776 3.92098 3.4776 4.04181 3.59844L6.40015 5.95677C6.52098 6.0776 6.52098 6.2776 6.40015 6.39844C6.33765 6.46094 6.25848 6.4901 6.17931 6.4901Z" fill="white"/>
</g>
</g>
</g>
</svg>
