<svg width="24" height="24" viewBox="0 0 24 24" fill="none" xmlns="http://www.w3.org/2000/svg">
    <path
        d="M16.458 17.6882L6.6153 7.8455C6.27901 7.50921 6.27901 6.95146 6.6153 6.61517C6.95159 6.27888 7.50935 6.27888 7.84564 6.61517L17.6883 16.4579C18.0246 16.7942 18.0246 17.3519 17.6883 17.6882C17.352 18.0245 16.7943 18.0245 16.458 17.6882Z"
        fill="white" />
    <path
        d="M6.61441 17.6882C6.27811 17.3519 6.27811 16.7942 6.61441 16.4579L16.4571 6.61517C16.7934 6.27888 17.3511 6.27888 17.6874 6.61517C18.0237 6.95146 18.0237 7.50921 17.6874 7.8455L7.84474 17.6882C7.50845 18.0245 6.9507 18.0245 6.61441 17.6882Z"
        fill="white" />
</svg>
