<svg width="24" height="24" viewBox="0 0 24 24" fill="none" xmlns="http://www.w3.org/2000/svg">
<g clip-path="url(#clip0_1358_1930)">

<path d="M6.7895 15.2227H1.62189V14.792C1.62189 13.3651 2.7787 12.2083 4.2057 12.2083C5.63269 12.2083 6.7895 13.3651 6.7895 14.792V15.2227Z" stroke="black" stroke-width="1.29186" stroke-miterlimit="10" stroke-linecap="round" stroke-linejoin="round"/>
<path d="M5.92811 10.4904C5.92811 11.4417 5.15693 12.2129 4.20557 12.2129C3.25421 12.2129 2.48303 11.4417 2.48303 10.4904C2.48303 9.5391 3.25421 8.7679 4.20557 8.7679C5.15693 8.7679 5.92811 9.5391 5.92811 10.4904Z" stroke="black" stroke-width="1.29186" stroke-miterlimit="10" stroke-linecap="round" stroke-linejoin="round"/>
<path d="M22.3784 15.2227H17.2108V14.792C17.2108 13.3651 18.3676 12.2083 19.7946 12.2083C21.2216 12.2083 22.3784 13.3651 22.3784 14.792V15.2227Z" stroke="black" stroke-width="1.29186" stroke-miterlimit="10" stroke-linecap="round" stroke-linejoin="round"/>
<path d="M21.5172 10.4904C21.5172 11.4417 20.746 12.2129 19.7946 12.2129C18.8433 12.2129 18.0721 11.4417 18.0721 10.4904C18.0721 9.5391 18.8433 8.7679 19.7946 8.7679C20.746 8.7679 21.5172 9.5391 21.5172 10.4904Z" stroke="black" stroke-width="1.29186" stroke-miterlimit="10" stroke-linecap="round" stroke-linejoin="round"/>
<path d="M14.5839 22.377H9.41626V21.9463C9.41626 20.5194 10.5731 19.3626 12.0001 19.3626C13.4271 19.3626 14.5839 20.5194 14.5839 21.9463V22.377Z" stroke="black" stroke-width="1.29186" stroke-miterlimit="10" stroke-linecap="round" stroke-linejoin="round"/>
<path d="M13.7227 17.6408C13.7227 18.5921 12.9515 19.3633 12.0002 19.3633C11.0488 19.3633 10.2776 18.5921 10.2776 17.6408C10.2776 16.6895 11.0488 15.9183 12.0002 15.9183C12.9515 15.9183 13.7227 16.6895 13.7227 17.6408Z" stroke="black" stroke-width="1.29186" stroke-miterlimit="10" stroke-linecap="round" stroke-linejoin="round"/>
<path d="M14.5841 8.08203H9.4165V7.65141C9.4165 6.22445 10.5733 5.06766 12.0003 5.06766C13.4273 5.06766 14.5841 6.22445 14.5841 7.65141V8.08203Z" stroke="black" stroke-width="1.29186" stroke-miterlimit="10" stroke-linecap="round" stroke-linejoin="round"/>
<path d="M13.7227 3.33805C13.7227 4.28934 12.9515 5.06055 12.0002 5.06055C11.0488 5.06055 10.2776 4.28934 10.2776 3.33805C10.2776 2.38676 11.0488 1.61555 12.0002 1.61555C12.9515 1.61555 13.7227 2.38676 13.7227 3.33805Z" stroke="black" stroke-width="1.29186" stroke-miterlimit="10" stroke-linecap="round" stroke-linejoin="round"/>
<path d="M9.95639 20.3652C7.2492 19.7062 5.0431 17.7682 4.0144 15.2271" stroke="black" stroke-width="1.29186" stroke-miterlimit="10" stroke-linecap="round" stroke-linejoin="round"/>
<path d="M19.991 8.7793C18.9223 6.12842 16.5731 4.1314 13.7093 3.55488" stroke="black" stroke-width="1.29186" stroke-miterlimit="10" stroke-linecap="round" stroke-linejoin="round"/>
<path d="M19.9864 15.2271C18.9577 17.7682 16.7516 19.7062 14.0444 20.3652" stroke="black" stroke-width="1.29186" stroke-miterlimit="10" stroke-linecap="round" stroke-linejoin="round"/>
<path d="M10.2913 3.55488C7.42749 4.1314 5.07829 6.12842 4.00958 8.7793" stroke="black" stroke-width="1.29186" stroke-miterlimit="10" stroke-linecap="round" stroke-linejoin="round"/>
</g>

<defs>
<clipPath id="clip0_1358_1930">
<rect width="24.0006" height="24" fill="white" transform="translate(-0.000610352)"/>
</clipPath>
</defs>
</svg>
