<svg width="17" height="17" viewBox="0 0 17 17" fill="none" xmlns="http://www.w3.org/2000/svg">
<mask id="path-1-inside-1_1727_747" fill="white">
<path d="M7.89992 15.6673H5.09992C2.49325 15.6673 1.33325 14.5073 1.33325 11.9007V9.10065C1.33325 6.49398 2.49325 5.33398 5.09992 5.33398H7.89992C10.5066 5.33398 11.6666 6.49398 11.6666 9.10065V11.9007C11.6666 14.5073 10.5066 15.6673 7.89992 15.6673ZM5.09992 6.33398C3.03325 6.33398 2.33325 7.03398 2.33325 9.10065V11.9007C2.33325 13.9673 3.03325 14.6673 5.09992 14.6673H7.89992C9.96659 14.6673 10.6666 13.9673 10.6666 11.9007V9.10065C10.6666 7.03398 9.96659 6.33398 7.89992 6.33398H5.09992Z"/>
</mask>
<path d="M7.89992 15.6673H5.09992C2.49325 15.6673 1.33325 14.5073 1.33325 11.9007V9.10065C1.33325 6.49398 2.49325 5.33398 5.09992 5.33398H7.89992C10.5066 5.33398 11.6666 6.49398 11.6666 9.10065V11.9007C11.6666 14.5073 10.5066 15.6673 7.89992 15.6673ZM5.09992 6.33398C3.03325 6.33398 2.33325 7.03398 2.33325 9.10065V11.9007C2.33325 13.9673 3.03325 14.6673 5.09992 14.6673H7.89992C9.96659 14.6673 10.6666 13.9673 10.6666 11.9007V9.10065C10.6666 7.03398 9.96659 6.33398 7.89992 6.33398H5.09992Z" fill="#292D32"/>
<path d="M7.89992 14.6673H5.09992V16.6673H7.89992V14.6673ZM5.09992 14.6673C3.92147 14.6673 3.29433 14.4025 2.94619 14.0544C2.59805 13.7062 2.33325 13.0791 2.33325 11.9007H0.333252C0.333252 13.3289 0.64845 14.5851 1.53198 15.4686C2.41551 16.3521 3.6717 16.6673 5.09992 16.6673V14.6673ZM2.33325 11.9007V9.10065H0.333252V11.9007H2.33325ZM2.33325 9.10065C2.33325 7.9222 2.59805 7.29506 2.94619 6.94692C3.29433 6.59879 3.92147 6.33398 5.09992 6.33398V4.33398C3.6717 4.33398 2.41551 4.64918 1.53198 5.53271C0.64845 6.41624 0.333252 7.67243 0.333252 9.10065H2.33325ZM5.09992 6.33398H7.89992V4.33398H5.09992V6.33398ZM7.89992 6.33398C9.07836 6.33398 9.70551 6.59879 10.0536 6.94692C10.4018 7.29506 10.6666 7.9222 10.6666 9.10065H12.6666C12.6666 7.67243 12.3514 6.41624 11.4679 5.53271C10.5843 4.64918 9.32814 4.33398 7.89992 4.33398V6.33398ZM10.6666 9.10065V11.9007H12.6666V9.10065H10.6666ZM10.6666 11.9007C10.6666 13.0791 10.4018 13.7062 10.0536 14.0544C9.70551 14.4025 9.07836 14.6673 7.89992 14.6673V16.6673C9.32814 16.6673 10.5843 16.3521 11.4679 15.4686C12.3514 14.5851 12.6666 13.3289 12.6666 11.9007H10.6666ZM5.09992 5.33398C4.00749 5.33398 2.96298 5.50671 2.23448 6.23521C1.50598 6.96371 1.33325 8.00822 1.33325 9.10065H3.33325C3.33325 8.12641 3.51053 7.78759 3.64869 7.64942C3.78686 7.51126 4.12568 7.33398 5.09992 7.33398V5.33398ZM1.33325 9.10065V11.9007H3.33325V9.10065H1.33325ZM1.33325 11.9007C1.33325 12.9931 1.50598 14.0376 2.23448 14.7661C2.96298 15.4946 4.00749 15.6673 5.09992 15.6673V13.6673C4.12568 13.6673 3.78686 13.49 3.64869 13.3519C3.51053 13.2137 3.33325 12.8749 3.33325 11.9007H1.33325ZM5.09992 15.6673H7.89992V13.6673H5.09992V15.6673ZM7.89992 15.6673C8.99235 15.6673 10.0369 15.4946 10.7654 14.7661C11.4939 14.0376 11.6666 12.9931 11.6666 11.9007H9.66659C9.66659 12.8749 9.48931 13.2137 9.35115 13.3519C9.21298 13.49 8.87416 13.6673 7.89992 13.6673V15.6673ZM11.6666 11.9007V9.10065H9.66659V11.9007H11.6666ZM11.6666 9.10065C11.6666 8.00822 11.4939 6.96371 10.7654 6.23521C10.0369 5.50671 8.99235 5.33398 7.89992 5.33398V7.33398C8.87416 7.33398 9.21298 7.51126 9.35115 7.64942C9.48931 7.78759 9.66659 8.12641 9.66659 9.10065H11.6666ZM7.89992 5.33398H5.09992V7.33398H7.89992V5.33398Z" fill="#101010" mask="url(#path-1-inside-1_1727_747)"/>
<mask id="path-3-inside-2_1727_747" fill="white">
<path d="M11.8999 11.6673H11.1666C10.8933 11.6673 10.6666 11.4407 10.6666 11.1673V9.10065C10.6666 7.03398 9.96659 6.33398 7.89992 6.33398H5.83325C5.55992 6.33398 5.33325 6.10732 5.33325 5.83398V5.10065C5.33325 2.49398 6.49325 1.33398 9.09992 1.33398H11.8999C14.5066 1.33398 15.6666 2.49398 15.6666 5.10065V7.90065C15.6666 10.5073 14.5066 11.6673 11.8999 11.6673ZM11.6666 10.6673H11.8999C13.9666 10.6673 14.6666 9.96732 14.6666 7.90065V5.10065C14.6666 3.03398 13.9666 2.33398 11.8999 2.33398H9.09992C7.03325 2.33398 6.33325 3.03398 6.33325 5.10065V5.33398H7.89992C10.5066 5.33398 11.6666 6.49398 11.6666 9.10065V10.6673Z"/>
</mask>
<path d="M11.8999 11.6673H11.1666C10.8933 11.6673 10.6666 11.4407 10.6666 11.1673V9.10065C10.6666 7.03398 9.96659 6.33398 7.89992 6.33398H5.83325C5.55992 6.33398 5.33325 6.10732 5.33325 5.83398V5.10065C5.33325 2.49398 6.49325 1.33398 9.09992 1.33398H11.8999C14.5066 1.33398 15.6666 2.49398 15.6666 5.10065V7.90065C15.6666 10.5073 14.5066 11.6673 11.8999 11.6673ZM11.6666 10.6673H11.8999C13.9666 10.6673 14.6666 9.96732 14.6666 7.90065V5.10065C14.6666 3.03398 13.9666 2.33398 11.8999 2.33398H9.09992C7.03325 2.33398 6.33325 3.03398 6.33325 5.10065V5.33398H7.89992C10.5066 5.33398 11.6666 6.49398 11.6666 9.10065V10.6673Z" fill="#292D32"/>
<path d="M11.6666 10.6673H10.6666V11.6673H11.6666V10.6673ZM6.33325 5.33398H5.33325V6.33398H6.33325V5.33398ZM11.8999 10.6673H11.1666V12.6673H11.8999V10.6673ZM11.1666 10.6673C11.4455 10.6673 11.6666 10.8884 11.6666 11.1673H9.66659C9.66659 11.9929 10.341 12.6673 11.1666 12.6673V10.6673ZM11.6666 11.1673V9.10065H9.66659V11.1673H11.6666ZM11.6666 9.10065C11.6666 8.00822 11.4939 6.96371 10.7654 6.23521C10.0369 5.50671 8.99235 5.33398 7.89992 5.33398V7.33398C8.87416 7.33398 9.21298 7.51126 9.35115 7.64942C9.48931 7.78759 9.66659 8.12641 9.66659 9.10065H11.6666ZM7.89992 5.33398H5.83325V7.33398H7.89992V5.33398ZM5.83325 5.33398C6.1122 5.33398 6.33325 5.55503 6.33325 5.83398H4.33325C4.33325 6.6596 5.00763 7.33398 5.83325 7.33398V5.33398ZM6.33325 5.83398V5.10065H4.33325V5.83398H6.33325ZM6.33325 5.10065C6.33325 3.92221 6.59805 3.29506 6.94619 2.94692C7.29433 2.59879 7.92147 2.33398 9.09992 2.33398V0.333984C7.6717 0.333984 6.41551 0.649183 5.53198 1.53271C4.64845 2.41624 4.33325 3.67243 4.33325 5.10065H6.33325ZM9.09992 2.33398H11.8999V0.333984H9.09992V2.33398ZM11.8999 2.33398C13.0784 2.33398 13.7055 2.59879 14.0536 2.94692C14.4018 3.29506 14.6666 3.92221 14.6666 5.10065H16.6666C16.6666 3.67243 16.3514 2.41624 15.4679 1.53271C14.5843 0.649183 13.3281 0.333984 11.8999 0.333984V2.33398ZM14.6666 5.10065V7.90065H16.6666V5.10065H14.6666ZM14.6666 7.90065C14.6666 9.0791 14.4018 9.70624 14.0536 10.0544C13.7055 10.4025 13.0784 10.6673 11.8999 10.6673V12.6673C13.3281 12.6673 14.5843 12.3521 15.4679 11.4686C16.3514 10.5851 16.6666 9.32887 16.6666 7.90065H14.6666ZM11.6666 11.6673H11.8999V9.66732H11.6666V11.6673ZM11.8999 11.6673C12.9923 11.6673 14.0369 11.4946 14.7654 10.7661C15.4939 10.0376 15.6666 8.99308 15.6666 7.90065H13.6666C13.6666 8.87489 13.4893 9.21371 13.3511 9.35188C13.213 9.49004 12.8742 9.66732 11.8999 9.66732V11.6673ZM15.6666 7.90065V5.10065H13.6666V7.90065H15.6666ZM15.6666 5.10065C15.6666 4.00822 15.4939 2.96371 14.7654 2.23521C14.0369 1.50671 12.9923 1.33398 11.8999 1.33398V3.33398C12.8742 3.33398 13.213 3.51126 13.3511 3.64942C13.4893 3.78759 13.6666 4.12641 13.6666 5.10065H15.6666ZM11.8999 1.33398H9.09992V3.33398H11.8999V1.33398ZM9.09992 1.33398C8.00749 1.33398 6.96298 1.50671 6.23448 2.23521C5.50598 2.96371 5.33325 4.00822 5.33325 5.10065H7.33325C7.33325 4.12641 7.51053 3.78759 7.64869 3.64942C7.78686 3.51126 8.12568 3.33398 9.09992 3.33398V1.33398ZM5.33325 5.10065V5.33398H7.33325V5.10065H5.33325ZM6.33325 6.33398H7.89992V4.33398H6.33325V6.33398ZM7.89992 6.33398C9.07836 6.33398 9.70551 6.59879 10.0536 6.94692C10.4018 7.29506 10.6666 7.9222 10.6666 9.10065H12.6666C12.6666 7.67243 12.3514 6.41624 11.4679 5.53271C10.5843 4.64918 9.32814 4.33398 7.89992 4.33398V6.33398ZM10.6666 9.10065V10.6673H12.6666V9.10065H10.6666Z" fill="#101010" mask="url(#path-3-inside-2_1727_747)"/>
</svg>
