<svg width="24" height="24" viewBox="0 0 24 24" fill="none" xmlns="http://www.w3.org/2000/svg">
<path d="M22.8598 13.4523L21.2056 4.07081C20.9807 2.79618 19.7607 1.94198 18.4862 2.16676L4.29823 4.66848C3.02353 4.89323 2.16935 6.11306 2.3941 7.38769L2.51565 8.07711C1.68549 8.43924 1.10352 9.2675 1.10352 10.2296V19.5214C1.10352 20.8157 2.15654 21.8687 3.45088 21.8687H17.5351C18.8294 21.8687 19.8824 20.8157 19.8824 19.5214V16.3607L20.9556 16.1715C21.5731 16.0626 22.1112 15.7198 22.4709 15.2062C22.8305 14.6926 22.9686 14.0697 22.8598 13.4523ZM21.4221 14.4718C21.2586 14.7053 21.014 14.8611 20.7333 14.9106L19.8824 15.0606V14.3309V11.4266V10.2295C19.8824 8.9352 18.8294 7.8822 17.5351 7.8822H3.78147L3.65506 7.16533C3.60555 6.88468 3.66837 6.60155 3.83183 6.36806C3.9953 6.13461 4.23993 5.97879 4.52059 5.92928L18.7086 3.42761C18.771 3.4166 18.8331 3.41131 18.8944 3.41131C19.4021 3.41131 19.8535 3.77612 19.9446 4.29308L21.5989 13.6745C21.6483 13.9552 21.5855 14.2384 21.4221 14.4718ZM17.5351 20.5883H3.45088C2.86254 20.5883 2.3839 20.1097 2.3839 19.5214V14.9711H18.602V19.5213C18.602 20.1097 18.1234 20.5883 17.5351 20.5883ZM3.45088 9.16259H17.5351C18.1234 9.16259 18.602 9.64123 18.602 10.2296V10.7865H2.3839V10.2296C2.3839 9.64123 2.86254 9.16259 3.45088 9.16259ZM18.602 12.0669V13.6908H2.3839V12.0669H18.602Z" fill="black"/>
<path d="M7.26431 18.0156H4.35998C4.00642 18.0156 3.71979 18.3023 3.71979 18.6558C3.71979 19.0093 4.00642 19.296 4.35998 19.296H7.26431C7.61786 19.296 7.9045 19.0093 7.9045 18.6558C7.9045 18.3023 7.61786 18.0156 7.26431 18.0156Z" fill="black"/>
</svg>
