<svg width="25" height="25" viewBox="0 0 25 25" fill="none" xmlns="http://www.w3.org/2000/svg">
<path d="M22.5 23.2109H5.5C3.43 23.2109 1.75 21.5309 1.75 19.4609V2.46094C1.75 2.05094 2.09 1.71094 2.5 1.71094C2.91 1.71094 3.25 2.05094 3.25 2.46094V19.4609C3.25 20.7009 4.26 21.7109 5.5 21.7109H22.5C22.91 21.7109 23.25 22.0509 23.25 22.4609C23.25 22.8709 22.91 23.2109 22.5 23.2109Z" fill="#989898"/>
<path d="M5.49982 18.2108C5.32982 18.2108 5.14982 18.1508 5.00982 18.0308C4.69982 17.7608 4.65982 17.2908 4.92982 16.9708L9.51982 11.6108C10.0198 11.0308 10.7398 10.6808 11.4998 10.6508C12.2598 10.6308 13.0098 10.9107 13.5498 11.4507L14.4998 12.4008C14.7498 12.6508 15.0798 12.7708 15.4298 12.7708C15.7798 12.7608 16.0998 12.6008 16.3298 12.3308L20.9198 6.97077C21.1898 6.66077 21.6598 6.62075 21.9798 6.89075C22.2898 7.16075 22.3298 7.63075 22.0598 7.95075L17.4698 13.3108C16.9698 13.8908 16.2498 14.2408 15.4898 14.2708C14.7298 14.2908 13.9798 14.0108 13.4398 13.4708L12.4998 12.5208C12.2498 12.2708 11.9198 12.1408 11.5698 12.1508C11.2198 12.1608 10.8998 12.3208 10.6698 12.5908L6.07982 17.9508C5.91982 18.1208 5.70982 18.2108 5.49982 18.2108Z" fill="#989898"/>
</svg>
