<svg width="28" height="28" viewBox="0 0 28 28" fill="none" xmlns="http://www.w3.org/2000/svg">
<path d="M25.9301 1.77433C25.6955 1.64876 25.4109 1.66257 25.1896 1.81015C23.8258 2.71925 22.4065 3.81503 21.3913 6.05395C19.3977 4.21528 16.7629 3.17976 14 3.17976C12.224 3.17976 10.4559 3.61906 8.90246 4.43236V2.41032C8.90246 2.01194 8.57949 1.68897 8.18111 1.68897C7.78274 1.68897 7.45976 2.01194 7.45976 2.41032V7.50786H6.01706V2.41032C6.01706 2.01194 5.69409 1.68897 5.29571 1.68897C4.89734 1.68897 4.57436 2.01194 4.57436 2.41032V7.50786H3.13166V2.41032C3.13166 2.01194 2.80869 1.68897 2.41031 1.68897C2.01194 1.68897 1.68896 2.01194 1.68896 2.41032C1.68896 2.70689 1.68896 9.33677 1.68896 9.6719C1.68896 10.6123 2.29206 11.4141 3.13166 11.7119V24.147C3.13166 25.3402 4.10246 26.311 5.29571 26.311C6.48897 26.311 7.45976 25.3402 7.45976 24.147V22.6578C9.34407 24.0765 11.6538 24.8683 14 24.8683C17.0379 24.8683 19.9393 23.5609 21.9829 21.3561V24.147C21.9829 25.3402 22.9537 26.311 24.147 26.311C25.3402 26.311 26.311 25.3402 26.311 24.147C26.311 23.9018 26.311 2.74704 26.311 2.41032C26.311 2.14428 26.1646 1.89984 25.9301 1.77433ZM8.90246 6.09718C10.398 5.14404 12.1934 4.62246 14 4.62246C16.6106 4.62246 19.0877 5.68678 20.858 7.55441C20.6911 8.18506 20.5887 8.83182 20.5542 9.48267C19.0884 7.39922 16.6929 6.06516 14 6.06516C12.1268 6.06516 10.3201 6.72721 8.90246 7.89027V6.09718ZM7.98726 11.4376C8.46951 11.0956 8.8059 10.5615 8.88433 9.94751C10.114 8.41623 12.0107 7.50786 14 7.50786C17.6063 7.50786 20.5402 10.4202 20.5402 14C20.5402 17.5798 17.6063 20.4922 14 20.4922C10.3937 20.4922 7.45976 17.5798 7.45976 14C7.45976 13.1085 7.63731 12.2475 7.98726 11.4376ZM6.01706 24.147C6.01706 24.5447 5.69347 24.8683 5.29571 24.8683C4.89796 24.8683 4.57436 24.5447 4.57436 24.147V11.836H6.01706V24.147ZM6.73841 10.3933H3.85301C3.45526 10.3933 3.13166 10.0697 3.13166 9.6719V8.95055H7.45976V9.6719C7.45976 10.0697 7.13617 10.3933 6.73841 10.3933ZM21.9829 18.9979C20.2561 21.7336 17.216 23.4256 14 23.4256C11.5904 23.4256 9.22337 22.4595 7.45976 20.7662V18.5375C8.91381 20.5906 11.2942 21.9349 14 21.9349C17.0953 21.9349 19.7902 20.1624 21.1151 17.5918C21.1624 17.6016 21.2114 17.6068 21.2616 17.6068H21.9829V18.9979ZM24.8683 24.147C24.8683 24.5447 24.5447 24.8683 24.147 24.8683C23.7492 24.8683 23.4256 24.5447 23.4256 24.147V16.8854C23.4256 16.487 23.1027 16.1641 22.7043 16.1641H21.9829V9.97646C21.9829 7.60081 23.0717 5.30634 24.8683 3.81007C24.8683 4.38571 24.8683 23.772 24.8683 24.147Z" fill="black"/>
</svg>
