<svg width="20" height="20" viewBox="0 0 20 20" fill="none" xmlns="http://www.w3.org/2000/svg">
<path d="M17.5 18.334H2.5C2.15833 18.334 1.875 18.0507 1.875 17.709C1.875 17.3673 2.15833 17.084 2.5 17.084H17.5C17.8417 17.084 18.125 17.3673 18.125 17.709C18.125 18.0507 17.8417 18.334 17.5 18.334Z" fill="#292D32"/>
<path d="M15.85 2.90005C14.2333 1.28338 12.65 1.24172 10.9916 2.90005L9.98331 3.90838C9.89998 3.99172 9.86665 4.12505 9.89998 4.24172C10.5333 6.45005 12.3 8.21672 14.5083 8.85005C14.5416 8.85838 14.575 8.86672 14.6083 8.86672C14.7 8.86672 14.7833 8.83338 14.85 8.76672L15.85 7.75838C16.675 6.94172 17.075 6.15005 17.075 5.35005C17.0833 4.52505 16.6833 3.72505 15.85 2.90005Z" fill="#292D32"/>
<path d="M13.0083 9.60963C12.7666 9.49297 12.5333 9.3763 12.3083 9.24297C12.125 9.13464 11.95 9.01797 11.775 8.89297C11.6333 8.8013 11.4666 8.66797 11.3083 8.53464C11.2916 8.5263 11.2333 8.4763 11.1666 8.40964C10.8916 8.1763 10.5833 7.8763 10.3083 7.54297C10.2833 7.5263 10.2416 7.46797 10.1833 7.39297C10.1 7.29297 9.95831 7.1263 9.83331 6.93463C9.73331 6.80963 9.61665 6.6263 9.50831 6.44297C9.37498 6.21797 9.25831 5.99297 9.14165 5.75964C9.12399 5.72181 9.10691 5.68417 9.09035 5.64675C8.96737 5.36898 8.60517 5.28778 8.39037 5.50258L3.61665 10.2763C3.50831 10.3846 3.40831 10.593 3.38331 10.7346L2.93331 13.9263C2.84998 14.493 3.00831 15.0263 3.35831 15.3846C3.65831 15.6763 4.07498 15.8346 4.52498 15.8346C4.62498 15.8346 4.72498 15.8263 4.82498 15.8096L8.02498 15.3596C8.17498 15.3346 8.38331 15.2346 8.48331 15.1263L13.2511 10.3585C13.4674 10.1422 13.3858 9.77103 13.1044 9.65098C13.0728 9.63747 13.0407 9.62369 13.0083 9.60963Z" fill="#292D32"/>
</svg>
