<svg width="24" height="24" viewBox="0 0 24 24" fill="none" xmlns="http://www.w3.org/2000/svg">
<path fill-rule="evenodd" clip-rule="evenodd" d="M12.2506 23.9979C18.7623 23.8643 24 18.5438 24 12C24 5.37231 18.6272 -0.000488281 11.9995 -0.000488281C5.37183 -0.000488281 -0.000976562 5.37231 -0.000976562 12C-0.000976562 18.5467 5.24132 23.869 11.7571 23.9981C11.9216 24.0014 12.0861 24.0013 12.2506 23.9979ZM12.2506 23.9979C12.7938 23.9867 13.3364 23.9388 13.8748 23.8544V15.4687H16.6709L17.2031 12H13.8748V9.74916C13.8748 8.80007 14.3397 7.87499 15.8303 7.87499H17.3434V4.92183C16.455 4.77806 15.5573 4.69958 14.6574 4.68704C11.9161 4.68704 10.1244 6.34832 10.1244 9.35627V12H7.07727V15.4687H10.1244V23.8544C10.6655 23.9393 11.211 23.9872 11.7571 23.9981C11.8377 23.9997 11.9185 24.0005 11.9995 24.0005C12.0834 24.0005 12.1671 23.9996 12.2506 23.9979Z" fill="#1D4BFF"/>
</svg>
