<svg width="24" height="24" viewBox="0 0 24 24" fill="none" xmlns="http://www.w3.org/2000/svg">
<path d="M22.95 10.7921L20.0681 3.9107C19.7485 3.14749 19.0065 2.6543 18.1776 2.6543H17.5626C16.4944 2.6543 15.6252 3.52171 15.6252 4.58789C15.6252 5.51743 16.2857 6.29585 17.163 6.4801L17.9205 8.54389C16.9689 8.33407 15.9956 8.51922 15.0431 9.0996H12.4721C13.0583 9.00421 13.5996 8.73192 14.0322 8.30648C14.5907 7.75722 14.8983 7.02335 14.8983 6.24003V4.908C14.8983 3.30991 13.5981 2.00977 12 2.00977H8.77739C8.42144 2.00977 8.13286 2.29834 8.13286 2.6543C8.13286 3.01025 8.42144 3.29883 8.77739 3.29883H9.1018V6.20295C9.1018 7.6513 10.1596 8.87126 11.5333 9.0996H8.95696C8.00434 8.51914 7.03127 8.33398 6.07951 8.54393L6.83701 6.4801C7.7143 6.29585 8.37482 5.51743 8.37482 4.58789C8.37482 3.52171 7.50569 2.6543 6.4374 2.6543H5.82247C4.99357 2.6543 4.2515 3.14749 3.9319 3.91066L1.05003 10.7921C0.968172 10.9876 0.987637 11.2107 1.10202 11.3891C2.25324 13.1838 4.06475 14.1437 6.49214 14.2466L7.9077 18.8663V21.3457C7.9077 21.7016 8.19628 21.9902 8.55223 21.9902H15.4478C15.8037 21.9902 16.0923 21.7016 16.0923 21.3457V18.8663L17.5079 14.2466C19.935 14.1436 21.7469 13.1837 22.898 11.3891C23.0124 11.2107 23.0318 10.9876 22.95 10.7921ZM10.3908 6.20295V3.29883H12C12.8873 3.29883 13.6092 4.0207 13.6092 4.908V6.24003C13.6092 6.67492 13.4384 7.08239 13.1283 7.38743C12.8183 7.69233 12.4079 7.85695 11.9722 7.84895C11.1002 7.83443 10.3908 7.09601 10.3908 6.20295ZM17.0284 12.9668C16.7453 12.9668 16.4952 13.1516 16.4122 13.4225L14.8316 18.5809C14.7798 18.7496 14.8123 18.745 14.8033 20.7011H9.19676C9.1874 18.6772 9.21808 18.7427 9.16849 18.5809L7.58784 13.4225C7.50831 13.1629 7.27899 12.9668 6.93549 12.9668C4.85804 12.9668 3.36183 12.3116 2.37458 10.9664L5.12088 4.40858C5.23922 4.12597 5.5146 3.94336 5.82243 3.94336H6.43736C6.79486 3.94336 7.08571 4.23249 7.08571 4.58789C7.08571 4.94328 6.79486 5.23242 6.43736 5.23242C6.43212 5.23396 5.93836 5.18739 5.76674 5.65484L4.34732 9.52203C4.13174 10.1095 4.80064 10.6301 5.31721 10.2754C6.34953 9.56663 7.33377 9.56869 8.41491 10.2821C8.52027 10.3516 8.64367 10.3886 8.76991 10.3886H15.2302C15.3564 10.3886 15.4798 10.3516 15.5852 10.2821C16.6663 9.56873 17.6506 9.56667 18.6829 10.2754C18.9141 10.4343 19.2215 10.4253 19.4431 10.2531C19.6646 10.081 19.7494 9.78538 19.6528 9.52198L18.2333 5.6548C18.0612 5.1861 17.5693 5.23431 17.5627 5.23237C17.2052 5.23237 16.9144 4.94324 16.9144 4.58784C16.9144 4.23245 17.2052 3.94331 17.5627 3.94331H18.1777C18.4855 3.94331 18.7609 4.12593 18.8792 4.40854L21.6255 10.9663C20.5111 12.4847 18.914 12.9462 17.0284 12.9668Z" fill="black"/>
<path d="M13.5039 15.502H10.4982C10.1423 15.502 9.8537 15.7905 9.8537 16.1465C9.8537 16.5024 10.1423 16.791 10.4982 16.791H13.5039C13.8598 16.791 14.1484 16.5024 14.1484 16.1465C14.1484 15.7905 13.8598 15.502 13.5039 15.502Z" fill="black"/>
<path d="M12.8572 18.0801H11.1385C10.7825 18.0801 10.494 18.3687 10.494 18.7246C10.494 19.0806 10.7825 19.3691 11.1385 19.3691H12.8572C13.2132 19.3691 13.5018 19.0806 13.5018 18.7246C13.5018 18.3687 13.2132 18.0801 12.8572 18.0801Z" fill="black"/>
</svg>
