<svg width="40" height="40" viewBox="0 0 40 40" fill="none" xmlns="http://www.w3.org/2000/svg">
<path d="M4.29996 31.6828L4.26663 31.7161C3.81663 30.7328 3.53329 29.6161 3.41663 28.3828C3.53329 29.5995 3.84996 30.6995 4.29996 31.6828Z" fill="white"/>
<path d="M15 17.2986C17.1907 17.2986 18.9667 15.5226 18.9667 13.3319C18.9667 11.1412 17.1907 9.36523 15 9.36523C12.8093 9.36523 11.0333 11.1412 11.0333 13.3319C11.0333 15.5226 12.8093 17.2986 15 17.2986Z" fill="white"/>
<path d="M26.9834 3.33398H13.0167C6.95004 3.33398 3.33337 6.95065 3.33337 13.0173V26.984C3.33337 28.8007 3.65004 30.384 4.26671 31.7173C5.70004 34.884 8.76671 36.6673 13.0167 36.6673H26.9834C33.05 36.6673 36.6667 33.0507 36.6667 26.984V23.1673V13.0173C36.6667 6.95065 33.05 3.33398 26.9834 3.33398ZM33.95 20.834C32.65 19.7173 30.55 19.7173 29.25 20.834L22.3167 26.784C21.0167 27.9007 18.9167 27.9007 17.6167 26.784L17.05 26.3173C15.8667 25.284 13.9834 25.184 12.65 26.084L6.41671 30.2673C6.05004 29.334 5.83337 28.2507 5.83337 26.984V13.0173C5.83337 8.31732 8.31671 5.83398 13.0167 5.83398H26.9834C31.6834 5.83398 34.1667 8.31732 34.1667 13.0173V21.0173L33.95 20.834Z" fill="white"/>
</svg>
