<svg width="32" height="32" viewBox="0 0 32 32" fill="none" xmlns="http://www.w3.org/2000/svg">
<path d="M24.1956 29.0628L24.0502 30.7899C23.9375 31.4003 23.4051 31.8433 22.7837 31.8433L21.1293 31.9998H8.88089C8.25958 31.9998 7.72708 31.5568 7.61439 30.9464L7.06708 27.9917C7.36902 28.6819 8.39883 28.681 9.1792 28.681L23.123 28.4992C23.9028 28.4992 24.1956 29.0628 24.1956 29.0628Z" fill="#F5F8F9"/>
<path d="M27.4596 10.2562C26.7347 10.8895 25.9962 19.2529 25.1591 23.7728L24.4501 27.736C24.1482 28.4256 23.9434 29.1491 23.1637 29.1491H8.83645C8.05607 29.1491 7.36907 28.6823 7.06714 27.9921L6.31189 23.9145C5.43432 19.1744 4.82714 14.3898 4.4917 9.58535C7.16589 7.41122 12.3796 7.61485 15.8179 9.51553C15.9222 9.57347 16.0278 9.62947 16.1334 9.68359C17.9439 10.6185 19.6358 11.023 21.6092 11.023C23.6045 11.023 25.4636 10.8957 27.4538 10.2595C27.4557 10.2581 27.4576 10.2574 27.4596 10.2562Z" fill="#B5DBFD"/>
<path d="M24.9324 27.9932L24.3858 30.9466C24.2731 31.5569 23.7406 31.9999 23.1193 31.9999H21.1293V29.1489L21.4244 29.1437L23.2321 28.9357C24.0118 28.9357 24.132 28.6267 24.9324 27.9932Z" fill="#F5F8F9"/>
<path d="M27.4594 10.2557C27.4575 10.257 27.4556 10.2576 27.4536 10.2589C25.6411 11.2028 23.649 11.6773 21.6537 11.6773C19.6803 11.6773 17.7036 11.2131 15.8931 10.2782C15.7874 10.2241 15.6819 10.1681 15.5776 10.1101C15.3174 9.96656 15.0534 9.83263 14.7863 9.70838C18.1053 6.79256 24.7591 6.31988 27.4594 10.2557Z" fill="#8DCAFC"/>
<path d="M27.341 0.939125C27.341 4.12944 27.2497 7.26562 27.4595 10.2561C23.8197 7.89375 18.7068 7.72181 14.7863 9.70875C11.5219 8.19375 7.77202 8.15769 4.49152 9.58512C4.28496 6.62919 4.18127 3.6655 4.18127 0.699875C4.18127 0.506687 4.25984 0.331562 4.38602 0.20475C4.51284 0.0785625 4.68734 0 4.88115 0H25.7198L26.6411 0.23925C27.0281 0.23925 27.341 0.552812 27.341 0.939125Z" fill="#F5F8F9"/>
<path d="M27.4596 10.2559C27.1158 14.835 26.5247 19.3942 25.6876 23.9141L24.9324 27.993C24.6305 28.6825 23.9435 29.1487 23.1637 29.1487H21.1033C21.8831 29.1487 22.5701 28.6826 22.872 27.993L23.6273 23.9141C24.4108 19.6814 24.9794 15.4138 25.3303 11.1276C26.0438 10.3923 26.6412 10.2558 27.4538 10.259C27.4557 10.2578 27.4576 10.2571 27.4596 10.2559Z" fill="#B5DBFD"/>
<path d="M27.4595 10.2556C27.4576 10.2569 27.4556 10.2575 27.4537 10.2588C26.7686 10.6154 26.0571 10.9059 25.3302 11.1273C25.3547 10.8369 25.3772 10.5466 25.3991 10.2555C25.4216 9.95676 25.4428 9.61232 25.4635 9.23114C26.4828 8.91551 27.3911 8.81507 27.4595 10.2556Z" fill="#8DCAFC"/>
<path d="M27.8188 0.699875C27.8188 3.89019 27.6991 7.078 27.4596 10.2561C26.8331 9.84975 26.1635 9.50787 25.4636 9.23169C25.5891 6.88931 25.6741 3.15106 25.7198 0H27.1189C27.5059 0 27.8188 0.313562 27.8188 0.699875Z" fill="#F5F8F9"/>
</svg>
