<svg width="25" height="26" viewBox="0 0 25 26" fill="none" xmlns="http://www.w3.org/2000/svg">
<path d="M17.0327 21C16.0047 21 15.0794 20.4001 14.6425 19.4183L10.9159 11.5364L9.83646 13.6636C9.24534 14.8364 8.06311 15.5728 6.80377 15.5728H4.92757C3.87383 15.5728 3 14.6455 3 13.5273C3 12.4091 3.87383 11.4818 4.92757 11.4818H6.57239L8.60279 7.49997C9.0911 6.57269 9.99062 6.08182 10.993 6C11.9953 6 12.8949 6.62729 13.3575 7.55457L17.0327 15.3545L17.9065 13.4727C18.4976 12.2182 19.6542 11.4545 20.9907 11.4545H23.0724C24.1262 11.4545 25 12.3818 25 13.5C25 14.6182 24.1262 15.5455 23.0724 15.5455H21.2477L19.4229 19.391C18.9602 20.4001 18.0607 21 17.0327 21Z" fill="white"/>
</svg>
