<svg width="24" height="24" viewBox="0 0 24 24" fill="none" xmlns="http://www.w3.org/2000/svg">

<path d="M7.61394 4.19458C8.38837 4.06263 9.18254 4.10616 9.93791 4.32196C10.6933 4.53775 11.3906 4.92032 11.9784 5.44146L12.0108 5.47033L12.0406 5.44408C12.6016 4.95172 13.2612 4.58465 13.9753 4.36738C14.6895 4.15011 15.4417 4.08762 16.1819 4.18408L16.3972 4.21558C17.3302 4.37668 18.2023 4.78709 18.9211 5.40337C19.6399 6.01964 20.1787 6.81883 20.4803 7.71631C20.782 8.61379 20.8353 9.57615 20.6347 10.5015C20.4341 11.4268 19.987 12.2806 19.3407 12.9726L19.1832 13.1345L19.1412 13.1703L12.6224 19.627C12.472 19.7758 12.2727 19.8652 12.0615 19.8784C11.8502 19.8915 11.6414 19.8277 11.4736 19.6987L11.3913 19.627L4.83494 13.1327C4.14038 12.4569 3.64643 11.6021 3.40778 10.6628C3.16913 9.72358 3.1951 8.73662 3.48282 7.81123C3.77053 6.88585 4.30877 6.05816 5.0379 5.41982C5.76704 4.78148 6.65864 4.35742 7.61394 4.19458Z" fill="#F41616"/>

</svg>
