<svg width="32" height="32" viewBox="0 0 32 32" fill="none" xmlns="http://www.w3.org/2000/svg">

<path d="M28.2769 29.4043H21.5813V2.51539H28.2769V29.4043Z" stroke="black" stroke-width="1.67363" stroke-miterlimit="10" stroke-linecap="round" stroke-linejoin="round"/>
<path d="M21.5811 5.95117H23.255" stroke="black" stroke-width="1.67363" stroke-miterlimit="10" stroke-linecap="round" stroke-linejoin="round"/>
<path d="M21.5822 9.30273H24.372" stroke="black" stroke-width="1.67363" stroke-miterlimit="10" stroke-linecap="round" stroke-linejoin="round"/>
<path d="M21.5817 12.6445H23.2556" stroke="black" stroke-width="1.67363" stroke-miterlimit="10" stroke-linecap="round" stroke-linejoin="round"/>
<path d="M21.5822 15.9941H24.372" stroke="black" stroke-width="1.67363" stroke-miterlimit="10" stroke-linecap="round" stroke-linejoin="round"/>
<path d="M21.5823 19.3359H23.2562" stroke="black" stroke-width="1.67363" stroke-miterlimit="10" stroke-linecap="round" stroke-linejoin="round"/>
<path d="M21.5819 22.6895H24.3718" stroke="black" stroke-width="1.67363" stroke-miterlimit="10" stroke-linecap="round" stroke-linejoin="round"/>
<path d="M21.5822 26.0332H23.2561" stroke="black" stroke-width="1.67363" stroke-miterlimit="10" stroke-linecap="round" stroke-linejoin="round"/>

<path d="M7.6329 5.30835C7.6329 3.76787 8.88196 2.51904 10.4227 2.51904C11.9635 2.51904 13.2125 3.76787 13.2125 5.30835C13.2125 6.84883 11.9635 8.09766 10.4227 8.09766C8.88196 8.09766 7.6329 6.84883 7.6329 5.30835Z" stroke="black" stroke-width="1.67363" stroke-miterlimit="10" stroke-linecap="round" stroke-linejoin="round"/>
<path d="M10.4219 27.7288C10.4219 28.653 9.67243 29.4023 8.74799 29.4023C7.82356 29.4023 7.0741 28.653 7.0741 27.7288V12.6665V17.1294C7.0741 18.0537 6.32464 18.803 5.40021 18.803C4.47578 18.803 3.72632 18.0537 3.72632 17.1294V11.4392C3.72632 9.59062 5.22518 8.09204 7.0741 8.09204H13.7697C15.6186 8.09204 17.1175 9.59062 17.1175 11.4392V17.1294C17.1175 18.0537 16.368 18.803 15.4436 18.803C14.5191 18.803 13.7697 18.0537 13.7697 17.1294V12.6665V27.7288C13.7697 28.653 13.0202 29.4023 12.0958 29.4023C11.1713 29.4023 10.4219 28.653 10.4219 27.7288ZM10.4219 27.7288V21.0344" stroke="black" stroke-width="1.67363" stroke-miterlimit="10" stroke-linecap="round" stroke-linejoin="round"/>
<path d="M17.1175 2.50977H21.5812" stroke="black" stroke-width="1.67363" stroke-miterlimit="10" stroke-linecap="round" stroke-linejoin="round"/>

</svg>
