<svg width="25" height="25" viewBox="0 0 25 25" fill="none" xmlns="http://www.w3.org/2000/svg">
<path d="M20.54 7.28112L14.78 3.25112C13.21 2.15112 10.8 2.21112 9.28999 3.38112L4.27999 7.29112C3.27999 8.07112 2.48999 9.67112 2.48999 10.9311V17.8311C2.48999 20.3811 4.55999 22.4611 7.10999 22.4611H17.89C20.44 22.4611 22.51 20.3911 22.51 17.8411V11.0611C22.51 9.71112 21.64 8.05112 20.54 7.28112ZM13.25 18.4611C13.25 18.8711 12.91 19.2111 12.5 19.2111C12.09 19.2111 11.75 18.8711 11.75 18.4611V15.4611C11.75 15.0511 12.09 14.7111 12.5 14.7111C12.91 14.7111 13.25 15.0511 13.25 15.4611V18.4611Z" fill="black"/>
</svg>
