<svg width="32" height="32" viewBox="0 0 32 32" fill="none" xmlns="http://www.w3.org/2000/svg">
<path d="M27.7063 25.7856H4.29297C3.7463 25.7856 3.29297 25.3323 3.29297 24.7856V18.1989C3.29297 11.2389 8.95964 5.57227 15.9196 5.57227H16.0796C23.0396 5.57227 28.7063 11.2389 28.7063 18.1989V24.7856C28.7063 25.3323 28.253 25.7856 27.7063 25.7856ZM5.29297 23.7856H26.7063V18.1989C26.7063 12.3323 21.933 7.57227 16.0796 7.57227H15.9196C10.053 7.57227 5.29297 12.3456 5.29297 18.1989V23.7856Z" fill="white"/>
<path d="M16 7.57267C15.4533 7.57267 15 7.11934 15 6.57267V2.66602C15 2.11935 15.4533 1.66602 16 1.66602C16.5467 1.66602 17 2.11935 17 2.66602V6.57267C17 7.11934 16.5467 7.57267 16 7.57267Z" fill="white"/>
<path d="M16 30.3338C12.92 30.3338 10.3467 27.9204 10.1333 24.8538C10.12 24.5738 10.2133 24.3071 10.4 24.1071C10.5866 23.9071 10.8533 23.7871 11.1333 23.7871H20.8667C21.1467 23.7871 21.4133 23.9071 21.6 24.1071C21.7867 24.3071 21.88 24.5871 21.8667 24.8538C21.6533 27.9204 19.08 30.3338 16 30.3338ZM12.36 25.7871C12.9066 27.2804 14.3467 28.3338 16 28.3338C17.6533 28.3338 19.0933 27.2804 19.64 25.7871H12.36Z" fill="white"/>
</svg>
