<svg width="16" height="16" viewBox="0 0 16 16" fill="none" xmlns="http://www.w3.org/2000/svg">
<path d="M12.2664 9.26154L12.2664 9.26151L12.2623 9.25737C12.1968 9.19188 12.2029 9.09957 12.2581 9.04621L12.2582 9.04624L12.2623 9.04211C13.7255 7.57893 13.7263 5.20075 12.2617 3.74345C10.7994 2.28847 8.42169 2.27926 6.96365 3.74463C5.50877 5.20682 5.49946 7.58433 6.96453 9.04241C7.02971 9.10788 7.02359 9.19999 6.96841 9.25327L6.96837 9.25324L6.96424 9.25737C6.89874 9.32286 6.80643 9.31681 6.75307 9.26154L6.75311 9.26151L6.74897 9.25737C5.16556 7.67396 5.16622 5.0987 6.74851 3.52257C8.33262 1.94463 10.9082 1.93994 12.4838 3.52165C14.0608 5.10484 14.0608 7.67414 12.4776 9.25737C12.4121 9.32286 12.3198 9.31681 12.2664 9.26154Z" fill="#292D32" stroke="#43568E" stroke-width="0.666667"/>
<path d="M3.28657 6.50633C3.4799 6.31299 3.78657 6.31299 3.97323 6.50633C4.16657 6.69966 4.16657 7.00633 3.97323 7.19299C2.6399 8.52633 2.6399 10.693 3.97323 12.0197C5.30657 13.3463 7.47323 13.353 8.7999 12.0197C10.1266 10.6863 10.1332 8.51966 8.7999 7.19299C8.60657 6.99966 8.60657 6.69299 8.7999 6.50633C8.99323 6.31299 9.2999 6.31299 9.48657 6.50633C11.1999 8.21966 11.1999 11.0063 9.48657 12.713C7.77323 14.4197 4.98657 14.4263 3.2799 12.713C1.57323 10.9997 1.57323 8.21966 3.28657 6.50633Z" fill="#292D32"/>
</svg>
