<svg width="16" height="16" viewBox="0 0 16 16" fill="none" xmlns="http://www.w3.org/2000/svg">
<path d="M10.16 14.8476H10.0733C7.11332 14.8476 5.68666 13.681 5.43999 11.0676C5.41332 10.7943 5.61332 10.5476 5.89332 10.521C6.15999 10.4943 6.41332 10.701 6.43999 10.9743C6.63332 13.0676 7.61999 13.8476 10.08 13.8476H10.1667C12.88 13.8476 13.84 12.8876 13.84 10.1743V5.82763C13.84 3.1143 12.88 2.1543 10.1667 2.1543H10.08C7.60666 2.1543 6.61999 2.94763 6.43999 5.08096C6.40666 5.3543 6.17332 5.56096 5.89332 5.5343C5.61332 5.5143 5.41332 5.26763 5.43332 4.9943C5.65999 2.34096 7.09332 1.1543 10.0733 1.1543H10.16C13.4333 1.1543 14.8333 2.5543 14.8333 5.82763V10.1743C14.8333 13.4476 13.4333 14.8476 10.16 14.8476Z" fill="#292D32"/>
<path d="M10 8.5H2.41333C2.14 8.5 1.91333 8.27333 1.91333 8C1.91333 7.72667 2.14 7.5 2.41333 7.5H10C10.2733 7.5 10.5 7.72667 10.5 8C10.5 8.27333 10.2733 8.5 10 8.5Z" fill="#292D32"/>
<path d="M3.9 10.7326C3.77333 10.7326 3.64667 10.6859 3.54667 10.5859L1.31333 8.35258C1.12 8.15924 1.12 7.83924 1.31333 7.64591L3.54667 5.41258C3.74 5.21924 4.06 5.21924 4.25333 5.41258C4.44667 5.60591 4.44667 5.92591 4.25333 6.11924L2.37333 7.99924L4.25333 9.87924C4.44667 10.0726 4.44667 10.3926 4.25333 10.5859C4.16 10.6859 4.02667 10.7326 3.9 10.7326Z" fill="#292D32"/>
</svg>
