<svg width="41" height="40" viewBox="0 0 41 40" fill="none" xmlns="http://www.w3.org/2000/svg">
<path d="M18.4929 1.16429C19.7341 0.444284 21.2659 0.444285 22.5071 1.16429L29.15 5.01776L35.8087 8.84395C37.0528 9.55886 37.8187 10.8854 37.8158 12.3203L37.8 20L37.8158 27.6797C37.8187 29.1146 37.0528 30.4411 35.8087 31.1561L29.15 34.9822L22.5071 38.8357C21.2659 39.5557 19.7341 39.5557 18.4929 38.8357L11.85 34.9822L5.19135 31.1561C3.9472 30.4411 3.18131 29.1146 3.18425 27.6797L3.2 20L3.18425 12.3203C3.18131 10.8854 3.9472 9.55886 5.19135 8.84395L11.85 5.01776L18.4929 1.16429Z" fill="#FFD54B"/>
<g clip-path="url(#clip0_1483_12406)">
<path d="M20.5 15L23.8333 20L28 16.6667L26.3333 25H14.6667L13 16.6667L17.1667 20L20.5 15Z" fill="white" stroke="white" stroke-width="1.5" stroke-linecap="round" stroke-linejoin="round"/>
</g>
<defs>
<clipPath id="clip0_1483_12406">
<rect width="20" height="20" fill="white" transform="translate(10.5 10)"/>
</clipPath>
</defs>
</svg>
