<svg width="40" height="41" viewBox="0 0 40 41" fill="none" xmlns="http://www.w3.org/2000/svg">
<path d="M17.9929 1.66429C19.2341 0.944284 20.7659 0.944285 22.0071 1.66429L28.65 5.51776L35.3087 9.34395C36.5528 10.0589 37.3187 11.3854 37.3158 12.8203L37.3 20.5L37.3158 28.1797C37.3187 29.6146 36.5528 30.9411 35.3087 31.6561L28.65 35.4822L22.0071 39.3357C20.7659 40.0557 19.2341 40.0557 17.9929 39.3357L11.35 35.4822L4.69135 31.6561C3.4472 30.9411 2.68131 29.6146 2.68425 28.1797L2.7 20.5L2.68425 12.8203C2.68131 11.3854 3.4472 10.0589 4.69135 9.34395L11.35 5.51776L17.9929 1.66429Z" fill="#E1E1E2"/>
<g clip-path="url(#clip0_1483_13382)">
<path d="M20 15.5L23.3333 20.5L27.5 17.1667L25.8333 25.5H14.1667L12.5 17.1667L16.6667 20.5L20 15.5Z" fill="white" stroke="white" stroke-width="1.5" stroke-linecap="round" stroke-linejoin="round"/>
</g>
<defs>
<clipPath id="clip0_1483_13382">
<rect width="20" height="20" fill="white" transform="translate(10 10.5)"/>
</clipPath>
</defs>
</svg>
