<svg width="16" height="16" viewBox="0 0 16 16" fill="none" xmlns="http://www.w3.org/2000/svg">
<g id="vuesax/bold/messages-3">
<g id="messages-3">
<path id="Vector" d="M10.3933 8.26667V10.98C10.3933 11.22 10.3666 11.4467 10.3066 11.6533C10.06 12.6333 9.24665 13.2467 8.12665 13.2467H6.31331L4.29998 14.5867C3.99998 14.7933 3.59998 14.5733 3.59998 14.2133V13.2467C2.91998 13.2467 2.35331 13.02 1.95998 12.6267C1.55998 12.2267 1.33331 11.66 1.33331 10.98V8.26667C1.33331 7 2.11998 6.12667 3.33331 6.01333C3.41998 6.00667 3.50665 6 3.59998 6H8.12665C9.48665 6 10.3933 6.90667 10.3933 8.26667Z" fill="white"/>
<path id="Vector_2" d="M11.8333 10.4007C12.68 10.4007 13.3933 10.1207 13.8866 9.62065C14.3866 9.12732 14.6666 8.41398 14.6666 7.56732V4.16732C14.6666 2.60065 13.4 1.33398 11.8333 1.33398H6.16665C4.59998 1.33398 3.33331 2.60065 3.33331 4.16732V4.66732C3.33331 4.85398 3.47998 5.00065 3.66665 5.00065H8.12665C9.93331 5.00065 11.3933 6.46065 11.3933 8.26732V10.0673C11.3933 10.254 11.54 10.4007 11.7266 10.4007H11.8333Z" fill="white"/>
</g>
</g>
</svg>
