<svg width="24" height="24" viewBox="0 0 24 24" fill="none" xmlns="http://www.w3.org/2000/svg">
<g id="notification 1">
<g id="Group">
<path id="Vector" d="M18.6198 12.2928V10.2487C18.6198 7.26671 16.6377 4.73928 13.9219 3.91377V2.98828C13.9219 1.92856 13.0598 1.06641 12 1.06641C10.9403 1.06641 10.0782 1.92856 10.0782 2.98828V3.91377C7.36235 4.73928 5.38026 7.26667 5.38026 10.2487V12.2928C5.38026 14.9122 4.38182 17.3959 2.5689 19.2865C2.39123 19.4718 2.3413 19.7452 2.44201 19.9813C2.54272 20.2174 2.77462 20.3706 3.0313 20.3706H8.86137C9.15896 21.8308 10.4532 22.9331 12 22.9331C13.5469 22.9331 14.8411 21.8308 15.1387 20.3706H20.9688C21.2255 20.3706 21.4573 20.2174 21.558 19.9813C21.6587 19.7452 21.6088 19.4718 21.4312 19.2865C19.6183 17.3959 18.6198 14.9121 18.6198 12.2928ZM11.3594 2.98828C11.3594 2.63504 11.6468 2.34766 12 2.34766C12.3533 2.34766 12.6407 2.63504 12.6407 2.98828V3.66C12.4298 3.63967 12.2161 3.6289 12 3.6289C11.7839 3.6289 11.5703 3.63967 11.3594 3.66V2.98828ZM12 21.6518C11.1649 21.6518 10.4528 21.1162 10.1884 20.3706H13.8117C13.5473 21.1162 12.8352 21.6518 12 21.6518ZM4.41206 19.0893C5.87102 17.1336 6.6615 14.7669 6.6615 12.2928V10.2487C6.6615 7.30502 9.05637 4.91015 12 4.91015C14.9437 4.91015 17.3386 7.30502 17.3386 10.2487V12.2928C17.3386 14.7669 18.1291 17.1336 19.5881 19.0893H4.41206Z" fill="black"/>
<path id="Vector_2" d="M20.3282 10.2481C20.3282 10.6019 20.615 10.8888 20.9688 10.8888C21.3226 10.8888 21.6094 10.6019 21.6094 10.2481C21.6094 7.68137 20.6099 5.26822 18.7949 3.45325C18.5448 3.20311 18.1391 3.20306 17.8889 3.45325C17.6387 3.70343 17.6387 4.10903 17.8889 4.35922C19.4619 5.93221 20.3282 8.02359 20.3282 10.2481Z" fill="black"/>
<path id="Vector_3" d="M3.03125 10.8887C3.38505 10.8887 3.67187 10.6019 3.67187 10.2481C3.67187 8.02361 4.53817 5.93222 6.11112 4.35923C6.3613 4.10905 6.3613 3.70345 6.11112 3.45326C5.86097 3.20308 5.45533 3.20308 5.20514 3.45326C3.39017 5.26824 2.39062 7.68134 2.39062 10.2481C2.39062 10.6019 2.67745 10.8887 3.03125 10.8887Z" fill="black"/>
</g>
</g>
</svg>
