<svg width="24" height="24" viewBox="0 0 24 24" fill="none" xmlns="http://www.w3.org/2000/svg">
<path d="M8.0838 8.35299L6.4112 10.0085L5.79462 9.31829C5.55957 9.05514 5.15589 9.03215 4.89274 9.26719C4.62959 9.50181 4.60702 9.9059 4.84164 10.169L5.90618 11.3613C6.14932 11.6334 6.57216 11.647 6.83233 11.3894L8.98269 9.26038C9.23307 9.01256 9.2352 8.60804 8.98695 8.35725C8.7387 8.10645 8.3346 8.10474 8.0838 8.35299Z" fill="black"/>
<path d="M10.8111 10.8692H14.4305C14.7835 10.8692 15.0692 10.5835 15.0692 10.2305C15.0692 9.87794 14.7835 9.5918 14.4305 9.5918H10.8111C10.4585 9.5918 10.1724 9.87794 10.1724 10.2305C10.1724 10.5835 10.4585 10.8692 10.8111 10.8692Z" fill="black"/>
<path d="M8.0838 12.384L6.4112 14.04L5.79462 13.3493C5.55957 13.0862 5.15589 13.0632 4.89274 13.2982C4.62959 13.5333 4.60702 13.9369 4.84164 14.2001L5.90618 15.3923C6.14932 15.6649 6.57216 15.6785 6.83233 15.4209L8.98269 13.2918C9.23307 13.0436 9.2352 12.6391 8.98695 12.3887C8.7387 12.1379 8.3346 12.1358 8.0838 12.384Z" fill="black"/>
<path d="M8.08362 16.4135L6.41101 18.0691L5.79443 17.3788C5.55938 17.1157 5.15571 17.0927 4.89256 17.3277C4.6294 17.5624 4.60684 17.9664 4.84146 18.2296L5.906 19.4218C6.14914 19.6939 6.57197 19.7076 6.83215 19.4499L8.98251 17.3209C9.23289 17.0731 9.23502 16.6686 8.98677 16.4178C8.73852 16.167 8.33442 16.1653 8.08362 16.4135Z" fill="black"/>
<path d="M10.8291 14.8907H12.6037C12.9565 14.8907 13.2425 14.6047 13.2425 14.252C13.2425 13.8993 12.9565 13.6133 12.6037 13.6133H10.8111C10.4485 13.6133 10.1562 13.9155 10.1731 14.2822C10.1889 14.626 10.4849 14.8907 10.8291 14.8907Z" fill="black"/>
<path d="M21.0961 15.3774C21.786 14.6635 22.0003 13.5986 21.7324 12.2103C21.683 11.9541 21.4826 11.7537 21.2263 11.7042C20.0742 11.4818 19.1446 11.5916 18.4537 12.0296V5.62506C18.4537 4.80326 17.7847 4.13475 16.9633 4.13475H14.6622C14.3982 3.38746 13.685 2.85052 12.8487 2.85052H11.9157C11.7641 1.86052 10.9065 1.09961 9.8743 1.09961C8.84255 1.09961 7.98496 1.86052 7.83295 2.85052H6.90041C6.06411 2.85052 5.35045 3.38746 5.08687 4.13475H2.78576C1.96394 4.13475 1.29541 4.80326 1.29541 5.62506V21.4105C1.29541 22.2323 1.96394 22.9008 2.78576 22.9008H19.8778C20.0945 22.9008 20.8134 22.7293 21.3283 22.0927C23.5727 19.3185 22.7617 16.4745 21.0961 15.3774ZM20.5448 12.8918C20.6237 13.631 20.4956 14.1728 20.1624 14.5058C19.7527 14.9151 19.0319 15.0056 18.4568 14.98C18.3831 13.3408 19.1258 12.7405 20.5448 12.8918ZM6.80545 4.13475C6.87571 4.12495 6.75819 4.12793 8.44782 4.12793C8.80082 4.12793 9.08654 3.84222 9.08654 3.48923V3.16476C9.08654 2.73044 9.43997 2.37702 9.8743 2.37702C10.3086 2.37702 10.6621 2.73044 10.6621 3.16476V3.48923C10.6621 3.84222 10.9482 4.12793 11.3008 4.12793C12.99 4.12793 12.8742 4.12495 12.9432 4.13475C13.254 4.18073 13.4937 4.44984 13.4937 4.77345C13.4937 5.09706 13.254 5.36617 12.9432 5.41216C12.8682 5.42238 6.88721 5.42323 6.80545 5.41216C6.49461 5.36617 6.25488 5.09706 6.25488 4.77345C6.25488 4.44984 6.49461 4.18073 6.80545 4.13475ZM10.8111 18.9217H12.9368C13.0063 19.8226 13.349 20.746 13.9508 21.6234H2.78576C2.66824 21.6234 2.57285 21.528 2.57285 21.4105V5.62506C2.57285 5.50754 2.66824 5.41216 2.78576 5.41216H5.08687C5.35045 6.15945 6.06411 6.69639 6.90041 6.69639H12.8486C13.6849 6.69639 14.3982 6.15945 14.6622 5.41216H16.9633C17.0804 5.41216 17.1762 5.50754 17.1762 5.62506V15.1803C16.7217 14.9546 16.2261 14.865 15.7221 14.9288C14.4781 15.0862 13.3714 16.1378 13.0278 17.6443H10.8111C10.4585 17.6443 10.1724 17.9304 10.1724 18.283C10.1724 18.636 10.4585 18.9217 10.8111 18.9217ZM20.3352 21.2893C20.2027 21.453 20.0135 21.5729 19.81 21.6234C19.4286 21.6234 16.279 21.6234 15.8779 21.6234C15.6437 21.5808 15.4326 21.4604 15.2942 21.2893C13.2031 18.7045 14.5285 16.3674 15.8826 16.196C16.4062 16.1299 16.8964 16.385 17.3002 16.934C17.5553 17.2808 18.0743 17.2806 18.3293 16.934C18.733 16.3849 19.2231 16.1298 19.7469 16.196C21.1004 16.3674 22.4268 18.7038 20.3352 21.2893Z" fill="black"/>
</svg>
