<svg width="20" height="21" viewBox="0 0 20 21" fill="none" xmlns="http://www.w3.org/2000/svg">
<path fill-rule="evenodd" clip-rule="evenodd" d="M9.15605 9.44201V3.99368C9.15605 3.29063 9.72045 2.7207 10.4167 2.7207C11.1129 2.7207 11.6773 3.29063 11.6773 3.99368V9.44201H17.0727C17.7689 9.44201 18.3333 10.0119 18.3333 10.715C18.3333 11.418 17.7689 11.988 17.0727 11.988H11.6773V17.4363C11.6773 18.1393 11.1129 18.7093 10.4167 18.7093C9.72045 18.7093 9.15605 18.1393 9.15605 17.4363V11.988H3.76062C3.0644 11.988 2.5 11.418 2.5 10.715C2.5 10.0119 3.0644 9.44201 3.76062 9.44201H9.15605Z" fill="white"/>
</svg>
