<svg width="25" height="25" viewBox="0 0 25 25" fill="none" xmlns="http://www.w3.org/2000/svg">
<path d="M9.17 23.2109H2.5C2.09 23.2109 1.75 22.8709 1.75 22.4609V16.4609C1.75 14.9409 2.98 13.7109 4.5 13.7109H9.17C9.58 13.7109 9.92 14.0509 9.92 14.4609V22.4609C9.92 22.8709 9.58 23.2109 9.17 23.2109ZM3.25 21.7109H8.42V15.2109H4.5C3.81 15.2109 3.25 15.7709 3.25 16.4609V21.7109Z" fill="#989898"/>
<path d="M15.8302 23.2109H9.16016C8.75016 23.2109 8.41016 22.8709 8.41016 22.4609V12.4609C8.41016 10.9409 9.64016 9.71094 11.1602 9.71094H13.8302C15.3502 9.71094 16.5802 10.9409 16.5802 12.4609V22.4609C16.5802 22.8709 16.2502 23.2109 15.8302 23.2109ZM9.92015 21.7109H15.0902V12.4609C15.0902 11.7709 14.5302 11.2109 13.8402 11.2109H11.1702C10.4802 11.2109 9.92015 11.7709 9.92015 12.4609V21.7109Z" fill="#989898"/>
<path d="M22.5001 23.2109H15.8301C15.4201 23.2109 15.0801 22.8709 15.0801 22.4609V17.4609C15.0801 17.0509 15.4201 16.7109 15.8301 16.7109H20.5001C22.0201 16.7109 23.2501 17.9409 23.2501 19.4609V22.4609C23.2501 22.8709 22.9101 23.2109 22.5001 23.2109ZM16.5801 21.7109H21.7501V19.4609C21.7501 18.7709 21.1901 18.2109 20.5001 18.2109H16.5801V21.7109Z" fill="#989898"/>
<path d="M14.1999 8.81117C13.9599 8.81117 13.6599 8.74115 13.3199 8.54115L12.4999 8.05116L11.6899 8.53117C10.8699 9.02117 10.3299 8.73117 10.1299 8.59117C9.92989 8.45117 9.49989 8.01117 9.70989 7.09117L9.89989 6.26115L9.21989 5.58116C8.79989 5.16116 8.64989 4.66115 8.79989 4.20115C8.94989 3.74115 9.35989 3.42115 9.93989 3.32115L10.8099 3.17115L11.2999 2.19117C11.8399 1.12117 13.1499 1.12117 13.6799 2.19117L14.1699 3.17115L15.0399 3.32115C15.6199 3.42115 16.0399 3.74115 16.1799 4.20115C16.3299 4.66115 16.1699 5.16116 15.7599 5.58116L15.0799 6.26115L15.2699 7.09117C15.4799 8.02117 15.0499 8.45118 14.8499 8.60118C14.7599 8.68118 14.5299 8.81117 14.1999 8.81117ZM12.4999 6.54115C12.7399 6.54115 12.9799 6.60117 13.1799 6.72117L13.7399 7.05116L13.6199 6.51115C13.5199 6.09115 13.6699 5.58116 13.9799 5.27116L14.4899 4.76115L13.8599 4.65116C13.4599 4.58116 13.0699 4.29116 12.8899 3.93116L12.4999 3.18116L12.1199 3.93116C11.9399 4.29116 11.5499 4.58116 11.1499 4.65116L10.5199 4.75117L11.0299 5.26115C11.3399 5.57115 11.4799 6.08117 11.3899 6.50117L11.2699 7.04115L11.8299 6.71116C12.0199 6.59116 12.2599 6.54115 12.4999 6.54115Z" fill="#989898"/>
</svg>
