<svg width="25" height="24" viewBox="0 0 25 24" fill="none" xmlns="http://www.w3.org/2000/svg">
<g id="vuesax/outline/rotate-left">
<g id="rotate-left">
<path id="Vector" d="M12.5001 22.7506C7.30008 22.7506 3.08008 18.5206 3.08008 13.3306C3.08008 11.4606 3.63008 9.65062 4.67008 8.09062C4.90008 7.75062 5.37008 7.65062 5.71008 7.88063C6.05008 8.11062 6.15008 8.58062 5.92008 8.92062C5.05008 10.2206 4.59008 11.7506 4.59008 13.3206C4.59008 17.6906 8.14008 21.2406 12.5101 21.2406C16.8801 21.2406 20.4301 17.6906 20.4301 13.3206C20.4301 8.95062 16.8701 5.40062 12.5001 5.40062C11.5801 5.40062 10.6801 5.53062 9.83008 5.79062C9.43008 5.91062 9.01008 5.69062 8.89008 5.29062C8.77008 4.89062 8.99008 4.47062 9.39008 4.35062C10.3901 4.05062 11.4301 3.89062 12.5001 3.89062C17.7001 3.89062 21.9201 8.12063 21.9201 13.3106C21.9201 18.5006 17.7001 22.7506 12.5001 22.7506Z" fill="white"/>
<path id="Vector_2" d="M8.37011 6.07012C8.20011 6.07012 8.02011 6.01012 7.88011 5.89012C7.56011 5.61012 7.53012 5.14012 7.80012 4.83012L10.6901 1.51012C10.9601 1.20012 11.4401 1.16012 11.7501 1.44012C12.0601 1.71012 12.0901 2.19012 11.8201 2.50012L8.93012 5.81012C8.78012 5.98012 8.57011 6.07012 8.37011 6.07012Z" fill="white"/>
<path id="Vector_3" d="M11.7401 8.53013C11.5901 8.53013 11.4301 8.48013 11.3001 8.39013L7.92008 5.92013C7.59008 5.68013 7.52008 5.21013 7.76008 4.88013C8.00008 4.54013 8.47008 4.47013 8.81008 4.71013L12.1801 7.17013C12.5101 7.41013 12.5901 7.88013 12.3401 8.22013C12.2001 8.43013 11.9701 8.53013 11.7401 8.53013Z" fill="white"/>
</g>
</g>
</svg>
