<svg width="20" height="20" viewBox="0 0 20 20" fill="none" xmlns="http://www.w3.org/2000/svg">
<path d="M7.40123 14.8755L1.69123 10.7755C1.55704 10.6958 1.4459 10.5825 1.3687 10.4469C1.29151 10.3112 1.25092 10.1578 1.25092 10.0018C1.25092 9.84567 1.29151 9.69228 1.3687 9.55662C1.4459 9.42097 1.55704 9.30772 1.69123 9.228L7.40123 5.1255C7.53734 5.04544 7.69222 5.00282 7.85013 5.00197C8.00804 5.00111 8.16337 5.04205 8.30034 5.12063C8.43732 5.19921 8.55106 5.31263 8.63003 5.44938C8.709 5.58613 8.75039 5.74134 8.74998 5.89925V7.5005C10.625 7.5005 16.25 7.5005 17.5 17.5005C14.375 11.8755 8.74998 12.5005 8.74998 12.5005V14.1018C8.74998 14.8018 7.99248 15.2243 7.40123 14.8768V14.8755Z" fill="#060606"/>
</svg>
