<svg width="28" height="28" viewBox="0 0 28 28" fill="none" xmlns="http://www.w3.org/2000/svg">
<path d="M8.68896 22.6426H19.3111" stroke="black" stroke-width="1.44848" stroke-miterlimit="10" stroke-linecap="round" stroke-linejoin="round"/>

<path d="M2.36487 15.8828H25.6355" stroke="black" stroke-width="1.44848" stroke-miterlimit="10" stroke-linecap="round" stroke-linejoin="round"/>
<path d="M15.6901 10.3304C15.6901 10.7304 15.3658 11.0547 14.9658 11.0547C14.5658 11.0547 14.2416 10.7304 14.2416 10.3304C14.2416 9.93047 14.5658 9.60621 14.9658 9.60621C15.3658 9.60621 15.6901 9.93047 15.6901 10.3304Z" fill="currentColor"/>
<path d="M9.17187 10.3304C9.17187 10.7304 8.8476 11.0547 8.44763 11.0547C8.04765 11.0547 7.72339 10.7304 7.72339 10.3304C7.72339 9.93047 8.04765 9.60621 8.44763 9.60621C8.8476 9.60621 9.17187 9.93047 9.17187 10.3304Z" fill="currentColor"/>
<path d="M13.0344 8.3993C13.0344 8.79927 12.7102 9.12354 12.3102 9.12354C11.9102 9.12354 11.5859 8.79927 11.5859 8.3993C11.5859 7.99932 11.9102 7.67506 12.3102 7.67506C12.7102 7.67506 13.0344 7.99932 13.0344 8.3993Z" fill="currentColor"/>
<path d="M2.36389 12.9862V15.8165C2.36389 19.3953 5.1204 22.3703 8.68892 22.6427L7.72326 25.6362H20.2767L19.3111 22.6427C22.8796 22.3703 25.6361 19.3953 25.6361 15.8165V12.9862H2.36389Z" stroke="black" stroke-width="1.44848" stroke-miterlimit="10" stroke-linecap="round" stroke-linejoin="round"/>
<path d="M23.3888 12.9858C23.5547 12.7008 23.6567 12.3738 23.6567 12.0202C23.6567 10.9535 22.792 10.0889 21.7254 10.0889C21.6283 10.0889 21.5352 10.1037 21.4421 10.1175C21.6181 9.82622 21.7254 9.48839 21.7254 9.12323C21.7254 8.05657 20.8607 7.19192 19.7941 7.19192C19.5899 7.19192 19.3969 7.23224 19.2122 7.29095C19.2709 7.10627 19.3112 6.91329 19.3112 6.7091C19.3112 5.64244 18.4466 4.77779 17.3799 4.77779C16.7335 4.77779 16.1648 5.09824 15.8142 5.58585C15.5492 4.83568 14.8411 4.29497 14.0002 4.29497C13.0815 4.29497 12.3162 4.9377 12.1205 5.79699C11.7075 5.4665 11.1905 5.26062 10.6204 5.26062C9.35691 5.26062 8.33187 6.23467 8.22676 7.47095C7.93725 7.29771 7.60251 7.19192 7.24059 7.19192C6.17393 7.19192 5.30928 8.05657 5.30928 9.12323C5.30928 9.52383 5.43134 9.89585 5.64016 10.2044C4.8871 10.4679 4.34363 11.1772 4.34363 12.0202C4.34363 12.3738 4.4456 12.7008 4.6115 12.9858" stroke="black" stroke-width="1.44848" stroke-miterlimit="10" stroke-linecap="round" stroke-linejoin="round"/>
<path d="M21.6426 8.56348L25.5879 2.3637" stroke="black" stroke-width="1.44848" stroke-miterlimit="10" stroke-linecap="round" stroke-linejoin="round"/>
<path d="M19.2883 6.41064L20.7599 2.36393" stroke="black" stroke-width="1.44848" stroke-miterlimit="10" stroke-linecap="round" stroke-linejoin="round"/>

</svg>
