<svg width="14" height="14" viewBox="0 0 14 14" fill="none" xmlns="http://www.w3.org/2000/svg">
<path d="M10.325 4.49171C9.839 3.8397 9.17182 3.34519 8.40665 3.06984C7.64148 2.79449 6.81218 2.75049 6.02217 2.94333C5.23216 3.13616 4.5164 3.55731 3.96414 4.15423C3.41189 4.75116 3.04758 5.49745 2.91666 6.30005" stroke="#FDFDFD" stroke-width="1.16667" stroke-linecap="round" stroke-linejoin="round"/>
<path d="M10.5 2.33301V4.66634H8.16665M3.67499 9.50801C4.16098 10.16 4.82816 10.6545 5.59333 10.9299C6.3585 11.2052 7.1878 11.2492 7.97781 11.0564C8.76782 10.8636 9.48358 10.4424 10.0358 9.84549C10.5881 9.24857 10.9524 8.50227 11.0833 7.69967" stroke="#FDFDFD" stroke-width="1.16667" stroke-linecap="round" stroke-linejoin="round"/>
<path d="M3.5 11.6663V9.33301H5.83333" stroke="#FDFDFD" stroke-width="1.16667" stroke-linecap="round" stroke-linejoin="round"/>
</svg>
