<svg width="28" height="28" viewBox="0 0 28 28" fill="none" xmlns="http://www.w3.org/2000/svg">
<path d="M26.1143 8.71134C25.6634 8.20393 25.0154 7.91295 24.3362 7.91295C23.7535 7.91295 23.1925 8.12635 22.7567 8.51373L20.7847 10.2667L19.2208 8.7027C20.7584 8.47594 21.9425 7.14798 21.9425 5.54827C21.9425 3.78993 20.512 2.35938 18.7536 2.35938C16.9952 2.35938 15.5647 3.78988 15.5647 5.54827C15.5647 6.48527 15.971 7.32901 16.6165 7.91295H9.74453C9.10928 7.91295 8.51203 8.16027 8.06292 8.60948L5.22544 11.4469C4.77629 11.8961 4.52881 12.4933 4.52881 13.1286C4.52881 13.7638 4.77619 14.3611 5.22544 14.8103C5.6746 15.2594 6.27186 15.5069 6.9071 15.5069C7.54235 15.5069 8.1396 15.2595 8.58876 14.8103L10.7296 12.6695H11.7044L8.35405 16.0198H3.66442C2.35305 16.0198 1.28613 17.0866 1.28613 18.398C1.28613 19.7094 2.35305 20.7763 3.66442 20.7763H9.33922C9.97447 20.7763 10.5717 20.529 11.0208 20.0797L12.5855 18.5151L13.2782 19.2109L12.6682 22.8711C12.5637 23.4977 12.7095 24.1275 13.0788 24.6444C13.448 25.1614 13.9965 25.5035 14.6227 25.6078C14.7526 25.6296 14.885 25.6405 15.016 25.6405C16.1822 25.6405 17.1679 24.8047 17.36 23.653L18.1706 18.789C18.2962 18.0351 18.0494 17.2617 17.5101 16.72L15.9489 15.1518L17.4461 13.6546L19.0072 15.2157C19.4564 15.6648 20.0537 15.9122 20.689 15.9122C21.272 15.9122 21.833 15.6988 22.2688 15.3115L25.9169 12.0687C26.8968 11.1974 26.9854 9.69125 26.1143 8.71134ZM18.7536 3.87312C19.6773 3.87312 20.4288 4.62458 20.4288 5.54827C20.4288 6.47201 19.6773 7.22347 18.7536 7.22347C17.83 7.22347 17.0785 6.47201 17.0785 5.54827C17.0784 4.62463 17.83 3.87312 18.7536 3.87312ZM24.9111 10.9374L21.263 14.1801C21.1046 14.3209 20.9007 14.3984 20.6889 14.3984C20.4579 14.3984 20.2407 14.3085 20.0774 14.1452L17.9811 12.049C17.8392 11.9071 17.6466 11.8274 17.446 11.8274C17.2452 11.8274 17.0527 11.9071 16.9108 12.0491L14.3445 14.6155C14.0493 14.9107 14.0488 15.389 14.3433 15.6847L16.4373 17.7881C16.6334 17.985 16.7231 18.2662 16.6775 18.5402L15.8668 23.4042C15.797 23.823 15.4391 24.1269 15.016 24.1269C14.9684 24.1269 14.92 24.1229 14.8719 24.1148C14.6441 24.0769 14.4448 23.9525 14.3106 23.7647C14.1764 23.5767 14.1234 23.3478 14.1614 23.12L14.8352 19.0767C14.8754 18.8362 14.7971 18.5911 14.6251 18.4183L13.1232 16.9096C12.9813 16.7672 12.7887 16.687 12.5877 16.6868C12.5874 16.6868 12.5871 16.6868 12.5868 16.6868C12.386 16.6868 12.1935 16.7665 12.0516 16.9085L9.95053 19.0095C9.78724 19.1728 9.57016 19.2627 9.33927 19.2627H3.66442C3.18775 19.2627 2.79988 18.8749 2.79988 18.3982C2.79988 17.9213 3.18775 17.5335 3.66442 17.5335H8.66757C8.86836 17.5335 9.06086 17.4538 9.20275 17.3119L14.0668 12.4478C14.2833 12.2313 14.348 11.9057 14.2309 11.623C14.1138 11.3401 13.8377 11.1557 13.5317 11.1557H10.4161C10.2153 11.1557 10.0228 11.2354 9.88095 11.3774L7.51846 13.7399C7.35517 13.9032 7.13804 13.9931 6.90715 13.9931C6.67627 13.9931 6.45914 13.9032 6.29584 13.7399C6.13255 13.5766 6.04261 13.3595 6.04261 13.1285C6.04261 12.8976 6.1325 12.6806 6.29584 12.5173L9.13327 9.67983C9.29651 9.51659 9.51359 9.42669 9.74453 9.42669H17.446C17.6769 9.42669 17.8941 9.51659 18.0573 9.67983L20.219 11.8416C20.5024 12.1251 20.9576 12.1384 21.257 11.8721L23.7625 9.64502C23.9209 9.50417 24.1247 9.4266 24.3362 9.4266C24.5832 9.4266 24.8189 9.53238 24.9828 9.71688C25.2995 10.0731 25.2673 10.6207 24.9111 10.9374Z" fill="currentColor"/>
</svg>
