<svg width="20" height="20" viewBox="0 0 20 20" fill="none" xmlns="http://www.w3.org/2000/svg">
<path d="M13.45 2.46524L5.92498 4.96524C0.866642 6.6569 0.866642 9.41524 5.92498 11.0986L8.15831 11.8402L8.89998 14.0736C10.5833 19.1319 13.35 19.1319 15.0333 14.0736L17.5416 6.5569C18.6583 3.1819 16.825 1.34024 13.45 2.46524ZM13.7166 6.94857L10.55 10.1319C10.425 10.2569 10.2666 10.3152 10.1083 10.3152C9.94998 10.3152 9.79164 10.2569 9.66664 10.1319C9.42498 9.89024 9.42498 9.49024 9.66664 9.24857L12.8333 6.06524C13.075 5.82357 13.475 5.82357 13.7166 6.06524C13.9583 6.3069 13.9583 6.7069 13.7166 6.94857Z" fill="#E62074"/>
</svg>
