<svg width="14" height="14" viewBox="0 0 14 14" fill="none" xmlns="http://www.w3.org/2000/svg">
<path d="M10.5 12.8337C10.0139 12.8337 9.60069 12.6635 9.26042 12.3232C8.92014 11.983 8.75 11.5698 8.75 11.0837C8.75 11.0156 8.75486 10.945 8.76458 10.8719C8.7743 10.7988 8.78889 10.7333 8.80833 10.6753L4.69583 8.28366C4.53056 8.42949 4.34583 8.54383 4.14167 8.62666C3.9375 8.70949 3.72361 8.75071 3.5 8.75033C3.01389 8.75033 2.60069 8.58019 2.26042 8.23991C1.92014 7.89963 1.75 7.48644 1.75 7.00033C1.75 6.51421 1.92014 6.10102 2.26042 5.76074C2.60069 5.42046 3.01389 5.25033 3.5 5.25033C3.72361 5.25033 3.9375 5.29174 4.14167 5.37458C4.34583 5.45741 4.53056 5.57155 4.69583 5.71699L8.80833 3.32533C8.78889 3.26699 8.7743 3.20146 8.76458 3.12874C8.75486 3.05602 8.75 2.98544 8.75 2.91699C8.75 2.43088 8.92014 2.01769 9.26042 1.67741C9.60069 1.33713 10.0139 1.16699 10.5 1.16699C10.9861 1.16699 11.3993 1.33713 11.7396 1.67741C12.0799 2.01769 12.25 2.43088 12.25 2.91699C12.25 3.4031 12.0799 3.8163 11.7396 4.15658C11.3993 4.49685 10.9861 4.66699 10.5 4.66699C10.2764 4.66699 10.0625 4.62577 9.85833 4.54333C9.65417 4.46088 9.46944 4.34655 9.30417 4.20033L5.19167 6.59199C5.21111 6.65033 5.22569 6.71605 5.23542 6.78916C5.24514 6.86227 5.25 6.93266 5.25 7.00033C5.25 7.06838 5.24514 7.13896 5.23542 7.21208C5.22569 7.28519 5.21111 7.35071 5.19167 7.40866L9.30417 9.80032C9.46944 9.65449 9.65417 9.54035 9.85833 9.45791C10.0625 9.37546 10.2764 9.33405 10.5 9.33366C10.9861 9.33366 11.3993 9.5038 11.7396 9.84408C12.0799 10.1844 12.25 10.5975 12.25 11.0837C12.25 11.5698 12.0799 11.983 11.7396 12.3232C11.3993 12.6635 10.9861 12.8337 10.5 12.8337Z" fill="black"/>
</svg>
