<svg width="11" height="10" viewBox="0 0 11 10" fill="none" xmlns="http://www.w3.org/2000/svg">
<g id="vuesax/outline/tick-circle">
<g id="vuesax/outline/tick-circle_2">
<g id="tick-circle">
<g id="Vector">
<path d="M5.25041 9.48959C2.77957 9.48959 0.77124 7.48125 0.77124 5.01042C0.77124 2.53958 2.77957 0.53125 5.25041 0.53125C7.72124 0.53125 9.72958 2.53958 9.72958 5.01042C9.72958 7.48125 7.72124 9.48959 5.25041 9.48959ZM5.25041 1.15625C3.12541 1.15625 1.39624 2.88542 1.39624 5.01042C1.39624 7.13542 3.12541 8.86459 5.25041 8.86459C7.37541 8.86459 9.10458 7.13542 9.10458 5.01042C9.10458 2.88542 7.37541 1.15625 5.25041 1.15625Z" fill="#1AB800"/>
<path d="M5.25041 1.15625C3.12541 1.15625 1.39624 2.88542 1.39624 5.01042C1.39624 7.13542 3.12541 8.86459 5.25041 8.86459C7.37541 8.86459 9.10458 7.13542 9.10458 5.01042C9.10458 2.88542 7.37541 1.15625 5.25041 1.15625Z" fill="#1AB800"/>
</g>
<path id="Vector_2" d="M4.65811 6.48646C4.57477 6.48646 4.49561 6.45312 4.43727 6.39479L3.25811 5.21562C3.13727 5.09479 3.13727 4.89479 3.25811 4.77396C3.37894 4.65313 3.57894 4.65313 3.69977 4.77396L4.65811 5.73229L6.79977 3.59062C6.92061 3.46979 7.12061 3.46979 7.24144 3.59062C7.36227 3.71146 7.36227 3.91146 7.24144 4.03229L4.87894 6.39479C4.82061 6.45312 4.74144 6.48646 4.65811 6.48646Z" fill="white"/>
</g>
</g>
</g>
</svg>
