<svg width="20" height="20" viewBox="0 0 20 20" fill="none" xmlns="http://www.w3.org/2000/svg">
<path fill-rule="evenodd" clip-rule="evenodd" d="M9.99992 6.66667C7.2385 6.66667 4.99992 8.90524 4.99992 11.6667C4.99992 14.4281 7.2385 16.6667 9.99992 16.6667C12.7613 16.6667 14.9999 14.4281 14.9999 11.6667C14.9999 8.90524 12.7613 6.66667 9.99992 6.66667ZM3.33325 11.6667C3.33325 7.98477 6.31802 5 9.99992 5C13.6818 5 16.6666 7.98477 16.6666 11.6667C16.6666 15.3486 13.6818 18.3333 9.99992 18.3333C6.31802 18.3333 3.33325 15.3486 3.33325 11.6667Z" fill="#AAE23A"/>
<path d="M9.16663 9.16683C9.16663 8.70659 9.53972 8.3335 9.99996 8.3335C10.4602 8.3335 10.8333 8.70659 10.8333 9.16683V11.6668C10.8333 12.1271 10.4602 12.5002 9.99996 12.5002C9.53972 12.5002 9.16663 12.1271 9.16663 11.6668V9.16683Z" fill="#AAE23A"/>
<path fill-rule="evenodd" clip-rule="evenodd" d="M9.16659 1.6665C8.70635 1.6665 8.33325 2.0396 8.33325 2.49984C8.33325 2.96007 8.70635 3.33317 9.16659 3.33317H10.8333C11.2935 3.33317 11.6666 2.96007 11.6666 2.49984C11.6666 2.0396 11.2935 1.6665 10.8333 1.6665H9.16659ZM15.4999 3.2915C15.1317 3.01536 14.6094 3.08998 14.3333 3.45817C14.0571 3.82636 14.1317 4.34869 14.4999 4.62484L15.3333 5.24984C15.7014 5.52598 16.2238 5.45136 16.4999 5.08317C16.7761 4.71498 16.7014 4.19265 16.3333 3.9165L15.4999 3.2915Z" fill="#AAE23A"/>
</svg>
