<svg width="24" height="25" viewBox="0 0 24 25" fill="none" xmlns="http://www.w3.org/2000/svg">
<path d="M12 23.25C6.07 23.25 1.25 18.43 1.25 12.5C1.25 6.57 6.07 1.75 12 1.75C17.93 1.75 22.75 6.57 22.75 12.5C22.75 18.43 17.93 23.25 12 23.25ZM12 3.25C6.9 3.25 2.75 7.4 2.75 12.5C2.75 17.6 6.9 21.75 12 21.75C17.1 21.75 21.25 17.6 21.25 12.5C21.25 7.4 17.1 3.25 12 3.25Z" fill="#9CA3AF"/>
<path d="M12 15.25C10.48 15.25 9.25 14.02 9.25 12.5C9.25 10.98 10.48 9.75 12 9.75C13.52 9.75 14.75 10.98 14.75 12.5C14.75 14.02 13.52 15.25 12 15.25ZM12 11.25C11.31 11.25 10.75 11.81 10.75 12.5C10.75 13.19 11.31 13.75 12 13.75C12.69 13.75 13.25 13.19 13.25 12.5C13.25 11.81 12.69 11.25 12 11.25Z" fill="#9CA3AF"/>
</svg>
