<svg width="24" height="25" viewBox="0 0 24 25" fill="none" xmlns="http://www.w3.org/2000/svg">
<path d="M12.1596 12.0809C12.1296 12.0809 12.1096 12.0809 12.0796 12.0809C12.0296 12.0709 11.9596 12.0709 11.8996 12.0809C8.9996 11.9909 6.8096 9.71094 6.8096 6.90094C6.8096 4.04094 9.1396 1.71094 11.9996 1.71094C14.8596 1.71094 17.1896 4.04094 17.1896 6.90094C17.1796 9.71094 14.9796 11.9909 12.1896 12.0809C12.1796 12.0809 12.1696 12.0809 12.1596 12.0809ZM11.9996 3.21094C9.9696 3.21094 8.3096 4.87094 8.3096 6.90094C8.3096 8.90094 9.8696 10.5109 11.8596 10.5809C11.9096 10.5709 12.0496 10.5709 12.1796 10.5809C14.1396 10.4909 15.6796 8.88094 15.6896 6.90094C15.6896 4.87094 14.0296 3.21094 11.9996 3.21094Z" fill="#989898"/>
<path d="M12.1696 23.0109C10.2096 23.0109 8.23961 22.5109 6.74961 21.5109C5.35961 20.5909 4.59961 19.3309 4.59961 17.9609C4.59961 16.5909 5.35961 15.3209 6.74961 14.3909C9.74961 12.4009 14.6096 12.4009 17.5896 14.3909C18.9696 15.3109 19.7396 16.5709 19.7396 17.9409C19.7396 19.3109 18.9796 20.5809 17.5896 21.5109C16.0896 22.5109 14.1296 23.0109 12.1696 23.0109ZM7.57961 15.6509C6.61961 16.2909 6.09961 17.1109 6.09961 17.9709C6.09961 18.8209 6.62961 19.6409 7.57961 20.2709C10.0696 21.9409 14.2696 21.9409 16.7596 20.2709C17.7196 19.6309 18.2396 18.8109 18.2396 17.9509C18.2396 17.1009 17.7096 16.2809 16.7596 15.6509C14.2696 13.9909 10.0696 13.9909 7.57961 15.6509Z" fill="#989898"/>
</svg>
