<svg width="24" height="24" viewBox="0 0 24 24" fill="none" xmlns="http://www.w3.org/2000/svg">
<path fill-rule="evenodd" clip-rule="evenodd" d="M12 4.30662C10.8695 5.29879 9.82452 6.38428 8.876 7.55162C7.305 9.50662 6 11.8166 6 13.9996C6 15.5909 6.63214 17.117 7.75736 18.2423C8.88258 19.3675 10.4087 19.9996 12 19.9996C13.5913 19.9996 15.1174 19.3675 16.2426 18.2423C17.3679 17.117 18 15.5909 18 13.9996C18 11.8166 16.695 9.50662 15.124 7.55162C14.1755 6.38428 13.1305 5.29878 12 4.30662ZM11.249 2.32062C11.4604 2.14619 11.7259 2.05078 12 2.05078C12.2741 2.05078 12.5396 2.14619 12.751 2.32062C14.188 3.51549 15.5047 4.84818 16.682 6.29962C18.322 8.33862 20 11.1056 20 13.9996C20 16.1213 19.1571 18.1562 17.6569 19.6565C16.1566 21.1568 14.1217 21.9996 12 21.9996C9.87827 21.9996 7.84344 21.1568 6.34315 19.6565C4.84285 18.1562 4 16.1213 4 13.9996C4 11.1056 5.678 8.33862 7.318 6.29862C8.49509 4.84758 9.81236 3.51523 11.249 2.32062Z" fill="#FDFDFD"/>
</svg>
