<svg width="28" height="28" viewBox="0 0 28 28" fill="none" xmlns="http://www.w3.org/2000/svg">

<path d="M23.8906 25.2969H4.10938C3.33275 25.2969 2.70312 24.6672 2.70312 23.8906V4.10937C2.70312 3.33275 3.33275 2.70312 4.10938 2.70312H23.8906C24.6673 2.70312 25.2969 3.33275 25.2969 4.10937V23.8906C25.2969 24.6672 24.6673 25.2969 23.8906 25.2969Z" stroke="black" stroke-width="1.40625" stroke-miterlimit="10" stroke-linecap="round" stroke-linejoin="round"/>
<path d="M6.3125 8.17128C7.54977 9.8173 8.78698 11.4633 10.0242 13.1094C11.202 12.2261 12.601 11.7844 14 11.7844C15.399 11.7844 16.798 12.2261 17.9758 13.1094L21.6875 8.17128C17.1329 4.75536 10.8671 4.75536 6.3125 8.17128Z" stroke="black" stroke-width="1.40625" stroke-miterlimit="10" stroke-linecap="round" stroke-linejoin="round"/>
<path d="M14 11.7842V8.97168" stroke="black" stroke-width="1.40625" stroke-miterlimit="10" stroke-linecap="round" stroke-linejoin="round"/>

</svg>
