<svg width="300" height="300" viewBox="0 0 30 30" fill="none" xmlns="http://www.w3.org/2000/svg">
<mask id="mask0_1451_31758" style="mask-type:luminance" maskUnits="userSpaceOnUse" x="3" y="9" width="23" height="11">
<path d="M26 9H3V19.6786H26V9Z" fill="white"/>
</mask>
<g mask="url(#mask0_1451_31758)">
<path d="M3.03467 14.8376L8.95534 8.87098C8.96628 8.8599 8.97931 8.8511 8.99367 8.84509C9.00803 8.83908 9.02344 8.83597 9.039 8.83594H13.501C13.5167 8.83594 13.5322 8.83903 13.5466 8.84504C13.5611 8.85105 13.5742 8.85985 13.5853 8.87095C13.5963 8.88205 13.6051 8.89522 13.611 8.90971C13.617 8.9242 13.62 8.93973 13.62 8.9554V13.4517C13.6203 13.4673 13.6176 13.4828 13.6118 13.4973C13.6061 13.5118 13.5976 13.525 13.5867 13.5362L7.664 19.5025C7.65305 19.5136 7.64003 19.5224 7.62567 19.5284C7.61131 19.5344 7.5959 19.5375 7.58034 19.5375H3.11834C3.08683 19.5374 3.05669 19.5247 3.0345 19.5023C3.01232 19.4799 2.99991 19.4496 3 19.4181V14.9217C2.99989 14.9061 3.00289 14.8906 3.00885 14.8762C3.0148 14.8617 3.02358 14.8486 3.03467 14.8376Z" fill="#124dc4"/>
<path d="M12.2231 14.8376L18.1438 8.87098C18.1547 8.85989 18.1678 8.85108 18.1821 8.84506C18.1965 8.83905 18.2119 8.83595 18.2275 8.83594H22.6895C22.7051 8.83598 22.7205 8.83911 22.7349 8.84514C22.7493 8.85117 22.7624 8.85999 22.7734 8.87109C22.7844 8.88218 22.7931 8.89534 22.799 8.90981C22.8049 8.92428 22.8079 8.93978 22.8078 8.9554V13.4517C22.8082 13.4673 22.8054 13.4828 22.7997 13.4973C22.7939 13.5118 22.7854 13.525 22.7745 13.5362L16.8525 19.5025C16.8415 19.5136 16.8285 19.5224 16.8141 19.5284C16.7998 19.5344 16.7844 19.5375 16.7688 19.5375H12.3078C12.2763 19.5374 12.2462 19.5247 12.224 19.5023C12.2018 19.4799 12.1894 19.4496 12.1895 19.4181V14.9217C12.1892 14.9062 12.1921 14.8907 12.1979 14.8763C12.2036 14.8618 12.2122 14.8487 12.2231 14.8376Z" fill="#111111"/>
<path d="M21.3354 14.9784C21.3464 14.9673 21.3594 14.9585 21.3738 14.9525C21.3882 14.9465 21.4036 14.9434 21.4191 14.9434H25.8811C25.8967 14.9434 25.9122 14.9465 25.9266 14.9526C25.941 14.9586 25.9541 14.9674 25.965 14.9785C25.976 14.9896 25.9847 15.0028 25.9906 15.0172C25.9965 15.0317 25.9995 15.0472 25.9994 15.0628V19.5592C25.9995 19.5907 25.987 19.6209 25.9649 19.6433C25.9427 19.6657 25.9126 19.6784 25.8811 19.6786H21.4195C21.4038 19.6786 21.3884 19.6755 21.3739 19.6694C21.3595 19.6634 21.3464 19.6546 21.3354 19.6435C21.3244 19.6324 21.3157 19.6193 21.3097 19.6048C21.3038 19.5903 21.3007 19.5748 21.3008 19.5592V15.0625C21.3007 15.0469 21.3037 15.0314 21.3096 15.0169C21.3156 15.0025 21.3244 14.9894 21.3354 14.9784Z" fill="#111111"/>
</g>
</svg>
