<svg width="352" height="174" viewBox="0 0 352 174" fill="none" xmlns="http://www.w3.org/2000/svg">
<path d="M143.493 174H97.9658C84.7506 173.876 71.6322 171.726 59.0661 167.624C44.8645 162.999 33.1979 156.382 25.323 148.487C21.2231 144.373 17.5155 139.885 14.2484 135.08C7.96626 125.83 3.65477 115.382 1.58328 104.387C-0.509445 92.9461 -0.527749 81.2209 1.52925 69.7736C3.57519 58.7592 7.88595 48.2921 14.1873 39.0383C20.7895 29.4136 29.0952 21.0827 38.6929 14.458C47.9222 8.12603 58.3602 3.77904 69.349 1.69107C75.045 0.615396 80.8295 0.0808751 86.6258 0.0946158H132.16L133.87 26.3443H85.8223C77.995 26.3625 70.2508 27.9535 63.0476 31.0232C55.8444 34.0928 49.3284 38.5789 43.8849 44.2161L43.8261 44.2774C32.5286 55.6483 26.1906 71.0452 26.2016 87.0924C26.2126 103.14 32.5717 118.528 43.8849 129.883C55.3965 141.489 80.3508 147.75 97.9682 147.75H117.282L113.471 106.902V106.855H139.116L143.493 174Z" fill="url(#paint0_linear_571_5283)"/>
<path d="M254.063 174H208.529L212.922 106.855H238.553V106.902L234.74 147.75H254.105C271.697 147.75 296.628 141.489 308.189 129.883C313.884 124.333 318.391 117.677 321.431 110.322C324.472 102.967 325.984 95.067 325.874 87.106C325.845 71.0329 319.475 55.6236 308.153 44.2403C296.831 32.857 281.477 26.4237 265.441 26.3442H218.189L219.906 0.0944938H265.455C271.251 0.0805288 277.036 0.615052 282.732 1.69095C293.714 3.77823 304.145 8.1254 313.366 14.4579C318.16 17.7534 322.633 21.4925 326.729 25.626C330.83 29.7417 334.535 34.2353 337.795 39.0475C344.067 48.3231 348.367 58.7933 350.427 69.8064C352.524 81.2381 352.524 92.9575 350.427 104.389C348.374 115.383 344.073 125.832 337.792 135.077C334.519 139.887 330.8 144.376 326.685 148.485C318.812 156.385 307.157 163.001 292.979 167.621C280.408 171.727 267.284 173.878 254.063 174Z" fill="url(#paint1_linear_571_5283)"/>
<path d="M176.459 0C175.808 0.000618142 175.163 0.12974 174.562 0.379993C173.961 0.630245 173.415 0.996728 172.955 1.45852C172.495 1.92031 172.13 2.46836 171.882 3.07138C171.633 3.6744 171.506 4.32058 171.506 4.97303V21.5498C171.506 22.8662 172.028 24.1287 172.957 25.0596C173.886 25.9905 175.145 26.5134 176.459 26.5134C177.772 26.5134 179.032 25.9905 179.96 25.0596C180.889 24.1287 181.411 22.8662 181.411 21.5498V4.97303C181.412 4.32058 181.284 3.6744 181.035 3.07138C180.787 2.46836 180.422 1.92031 179.962 1.45852C179.503 0.996728 178.956 0.630245 178.355 0.379993C177.754 0.12974 177.11 0.000618142 176.459 0Z" fill="url(#paint2_linear_571_5283)"/>
<path d="M203.872 0.138965C202.567 -0.00700529 201.257 0.370212 200.227 1.1884C199.198 2.00658 198.533 3.1994 198.377 4.50685L195.065 20.8458C194.988 21.4938 195.039 22.1506 195.215 22.7788C195.391 23.4071 195.689 23.9944 196.092 24.5072C196.905 25.5429 198.095 26.2125 199.401 26.3686C200.706 26.5248 202.02 26.1546 203.054 25.3397C204.087 24.5248 204.755 23.3318 204.911 22.0231L208.223 5.68418C208.378 4.37085 208.007 3.04948 207.192 2.00993C206.376 0.97038 205.182 0.297527 203.872 0.138965Z" fill="url(#paint3_linear_571_5283)"/>
<path d="M156.191 20.6621L152.867 4.3938C152.693 3.09221 152.016 1.91124 150.981 1.1061C149.946 0.300959 148.637 -0.0636886 147.336 0.0909593C146.035 0.245607 144.847 0.907131 144.028 1.93257C143.21 2.95801 142.827 4.26501 142.962 5.57113L146.286 21.8394C146.46 23.141 147.137 24.322 148.172 25.1271C149.207 25.9323 150.517 26.2969 151.818 26.1423C153.119 25.9876 154.307 25.3261 155.125 24.3007C155.943 23.2752 156.326 21.9682 156.191 20.6621Z" fill="url(#paint4_linear_571_5283)"/>
<path d="M182.165 135.2L176.813 0.93481L170.068 135.15C165.564 136.574 161.715 139.564 159.216 143.581C156.717 147.598 155.732 152.378 156.439 157.058C157.146 161.739 159.499 166.012 163.073 169.108C166.646 172.203 171.206 173.917 175.929 173.94C180.652 173.963 185.228 172.294 188.832 169.233C192.435 166.173 194.829 161.922 195.581 157.249C196.334 152.575 195.396 147.786 192.936 143.745C190.475 139.704 186.656 136.676 182.165 135.209V135.2Z" fill="url(#paint5_linear_571_5283)"/>
<defs>
<linearGradient id="paint0_linear_571_5283" x1="176.187" y1="75.1171" x2="176.187" y2="185.395" gradientUnits="userSpaceOnUse">
<stop stop-color="#E6E6E6"/>
<stop offset="1" stop-color="#E6E6E6" stop-opacity="0"/>
</linearGradient>
<linearGradient id="paint1_linear_571_5283" x1="176.187" y1="75.1171" x2="176.187" y2="185.395" gradientUnits="userSpaceOnUse">
<stop stop-color="#E6E6E6"/>
<stop offset="1" stop-color="#E6E6E6" stop-opacity="0"/>
</linearGradient>
<linearGradient id="paint2_linear_571_5283" x1="176.187" y1="75.1171" x2="176.187" y2="185.395" gradientUnits="userSpaceOnUse">
<stop stop-color="#E6E6E6"/>
<stop offset="1" stop-color="#E6E6E6" stop-opacity="0"/>
</linearGradient>
<linearGradient id="paint3_linear_571_5283" x1="176.187" y1="75.1171" x2="176.187" y2="185.395" gradientUnits="userSpaceOnUse">
<stop stop-color="#E6E6E6"/>
<stop offset="1" stop-color="#E6E6E6" stop-opacity="0"/>
</linearGradient>
<linearGradient id="paint4_linear_571_5283" x1="176.187" y1="75.1171" x2="176.187" y2="185.395" gradientUnits="userSpaceOnUse">
<stop stop-color="#E6E6E6"/>
<stop offset="1" stop-color="#E6E6E6" stop-opacity="0"/>
</linearGradient>
<linearGradient id="paint5_linear_571_5283" x1="176.187" y1="75.1171" x2="176.187" y2="185.395" gradientUnits="userSpaceOnUse">
<stop stop-color="#E6E6E6"/>
<stop offset="1" stop-color="#E6E6E6" stop-opacity="0"/>
</linearGradient>
</defs>
</svg>
