<svg width="90" height="55" viewBox="0 0 90 55" fill="none" xmlns="http://www.w3.org/2000/svg">
<path d="M0.154157 23.0585L23.127 0.133603C23.2127 0.0479601 23.3326 0 23.4525 0L40.7455 0.0205543C40.999 0.0205543 41.2046 0.226098 41.2046 0.479601L41.184 17.7726C41.184 17.896 41.1361 18.0124 41.0504 18.0981L18.0775 41.0196C17.9919 41.1052 17.8754 41.1532 17.7521 41.1532L0.459047 41.1326C0.205543 41.1361 0 40.9305 0 40.6736L0.0205543 23.3805C0.0205543 23.2572 0.0685144 23.1407 0.154157 23.0551V23.0585Z" fill="#124dc4"/>
<path d="M36.035 23.0551L59.0079 0.133603C59.0935 0.0479601 59.21 0 59.3333 0L76.6264 0.0205543C76.8799 0.0205543 77.0854 0.226098 77.0854 0.479601L77.0649 17.7726C77.0649 17.896 77.0169 18.0124 76.9313 18.0981L53.9584 41.0196C53.8727 41.1052 53.7563 41.1532 53.6329 41.1532L36.3399 41.1326C36.0864 41.1326 35.8809 40.9271 35.8809 40.6736L35.9014 23.3805C35.9014 23.2572 35.9494 23.1408 36.035 23.0551Z" fill="white"/>
<path d="M71.9227 23.0545C72.0084 22.9689 72.1248 22.9209 72.2482 22.9209L89.5412 22.9415C89.7947 22.9415 90.0002 23.147 90.0002 23.4005L89.9797 40.6935C89.9797 40.8169 89.9317 40.9333 89.8461 41.019C89.7604 41.1046 89.644 41.1526 89.5206 41.1526L72.2276 41.132C71.9741 41.132 71.7686 40.9265 71.7686 40.673L71.7891 23.3799C71.7891 23.2566 71.8371 23.1401 71.9227 23.0545Z" fill="white"/>
<path d="M12.4486 54.9066H14.8568L14.8332 49.0023L12.4624 45.8096H8.66993L7.39791 47.4004L6.12036 45.8096H0V54.9066H2.66874V48.225H6.12036V54.9066H8.68379L8.66023 48.225H12.4486V54.9066Z" fill="white"/>
<path d="M19.6846 47.6868V53.3255L21.4 54.9177H28.7993V52.8583H21.9168V51.3885H27.1892V49.667H21.9168V47.8926H28.7993V45.8096H21.4859L19.6846 47.6868Z" fill="white"/>
<path d="M33.627 52.8319L35.5405 54.9344H42.9398L44.8271 52.8319V49.9854H41.3519V51.9225H42.5103V52.8319H36.0338V47.8857H42.2955V45.8096H35.7345L33.627 47.8857V52.8319Z" fill="white"/>
<path d="M60.7487 48.3446L58.461 45.8096H52.2284L49.6553 48.46V54.9358H52.2007V52.1894H58.4194V54.9358H60.7501C60.6933 54.9358 60.7501 48.3446 60.7501 48.3446H60.7487ZM58.418 50.1231H52.1993V47.9997H58.418C58.418 47.9997 58.3612 50.0661 58.418 50.1231Z" fill="white"/>
    <path d="M65.5791 54.9177H67.99V49.2L72.4 54.9177H74.6938V45.8096H72.3V51.3L67.9 45.8096H65.5791V54.9177Z" fill="white"/>
    <path d="M80 49.5H84V45.8H86.5V49.5H90.5V52H86.5V55.7H84V52H80V49.5Z" fill="white"/>
</svg>
