<svg width="156" height="146" viewBox="0 0 156 146" fill="none" xmlns="http://www.w3.org/2000/svg">
<g clip-path="url(#clip0_2276_3178)">
<path d="M77.221 145.2C117.091 145.2 149.413 112.879 149.413 73.0081C149.413 33.1377 117.091 0.816406 77.221 0.816406C37.3506 0.816406 5.0293 33.1377 5.0293 73.0081C5.0293 112.879 37.3506 145.2 77.221 145.2Z" fill="black" stroke="black" stroke-width="0.667618"/>
<path d="M83.4522 145.2C123.323 145.2 155.644 112.879 155.644 73.0081C155.644 33.1377 123.323 0.816406 83.4522 0.816406C43.5818 0.816406 11.2605 33.1377 11.2605 73.0081C11.2605 112.879 43.5818 145.2 83.4522 145.2Z" fill="#E62074" stroke="black" stroke-width="0.667618"/>
<path d="M83.4522 131.847C115.948 131.847 142.292 105.503 142.292 73.0073C142.292 40.5113 115.948 14.168 83.4522 14.168C50.9561 14.168 24.6128 40.5113 24.6128 73.0073C24.6128 105.503 50.9561 131.847 83.4522 131.847Z" fill="#E62074" stroke="black" stroke-width="0.667618"/>
<path d="M83.4523 118.049C108.328 118.049 128.494 97.8828 128.494 73.0068C128.494 48.1308 108.328 27.9648 83.4523 27.9648C58.5764 27.9648 38.4104 48.1308 38.4104 73.0068C38.4104 97.8828 58.5764 118.049 83.4523 118.049Z" fill="white" stroke="black" stroke-width="0.667618"/>
<path fill-rule="evenodd" clip-rule="evenodd" d="M79.6689 132.07C110.602 130.112 135.081 104.43 135.081 73.0079C135.081 41.5854 110.602 15.9044 79.6689 13.946C80.9152 13.857 82.1614 13.8125 83.4521 13.8125C116.165 13.8125 142.648 40.2947 142.648 73.0079C142.648 105.721 116.165 132.203 83.4521 132.203C82.1614 132.203 80.9152 132.159 79.6689 132.07Z" fill="black"/>
<path d="M79.669 132.07L79.6245 131.402V132.737L79.669 132.07ZM79.669 13.9457L79.6245 13.2781V14.6133L79.669 13.9457ZM134.414 73.0076C134.414 104.074 110.201 129.488 79.6245 131.402L79.7135 132.737C111.003 130.779 135.749 104.786 135.749 73.0076H134.414ZM79.6245 14.6133C110.201 16.5271 134.414 41.9411 134.414 73.0076H135.749C135.749 41.229 111.003 15.2364 79.7135 13.2781L79.6245 14.6133ZM79.7135 14.6133C80.9598 14.5243 82.206 14.4798 83.4522 14.4798V13.1445C82.1615 13.1445 80.8707 13.189 79.6245 13.2781L79.7135 14.6133ZM83.4522 14.4798C115.765 14.4798 141.98 40.6949 141.98 73.0076H143.315C143.315 39.9383 116.522 13.1445 83.4522 13.1445V14.4798ZM141.98 73.0076C141.98 105.32 115.765 131.535 83.4522 131.535V132.871C116.522 132.871 143.315 106.077 143.315 73.0076H141.98ZM83.4522 131.535C82.206 131.535 80.9598 131.491 79.7135 131.402L79.6245 132.737C80.8707 132.826 82.1615 132.871 83.4522 132.871V131.535Z" fill="black"/>
<path fill-rule="evenodd" clip-rule="evenodd" d="M133.346 42.8743C130.586 40.1148 126.046 40.1148 123.287 42.8743L82.4285 83.7325L61.1983 62.5023C58.4388 59.7428 53.899 59.7428 51.1395 62.5023L48.6026 65.0392C45.8431 67.7987 45.8431 72.3385 48.6026 75.098L77.1321 103.628C77.9778 104.473 79.0459 105.096 80.1141 105.408C82.6066 106.298 85.5441 105.764 87.5469 103.717L135.838 55.4255C138.597 52.666 138.597 48.1262 135.838 45.3667L133.346 42.8743Z" fill="black"/>
<path d="M82.384 83.7333L81.8944 84.2229L82.384 84.7125L82.8735 84.2229L82.384 83.7333ZM123.732 43.3647C126.269 40.8278 130.319 40.8278 132.856 43.3647L133.791 42.4301C130.764 39.4035 125.824 39.4035 122.797 42.4301L123.732 43.3647ZM82.8735 84.2229L123.732 43.3647L122.797 42.4301L81.9389 83.2883L82.8735 84.2229ZM60.7086 62.9927L81.9389 84.2229L82.8735 83.2883L61.6433 62.058L60.7086 62.9927ZM51.5845 62.9927C54.1215 60.4557 58.1717 60.4557 60.7086 62.9927L61.6433 62.058C58.6168 59.0315 53.6764 59.0315 50.6499 62.058L51.5845 62.9927ZM49.0476 65.5296L51.5845 62.9927L50.6499 62.058L48.1129 64.595L49.0476 65.5296ZM49.0476 74.6537C46.5106 72.1168 46.5106 68.0666 49.0476 65.5296L48.1129 64.595C45.0864 67.6215 45.0864 72.5619 48.1129 75.5884L49.0476 74.6537ZM77.6216 103.183L49.0921 74.6537L48.1574 75.5884L76.687 104.118L77.6216 103.183ZM80.3366 104.786C79.3574 104.474 78.4228 103.94 77.6216 103.183L76.687 104.118C77.6216 105.053 78.7788 105.72 79.936 106.076L80.3366 104.786ZM87.1018 103.317C85.277 105.142 82.651 105.631 80.3811 104.83L79.936 106.076C82.6955 107.055 85.8556 106.432 88.081 104.251L87.1018 103.317ZM135.393 55.0258L87.1018 103.317L88.0365 104.251L136.327 55.9604L135.393 55.0258ZM135.393 45.9017C137.93 48.4386 137.93 52.4888 135.393 55.0258L136.327 55.9604C139.354 52.9339 139.354 47.9935 136.327 44.967L135.393 45.9017ZM132.856 43.3647L135.393 45.9017L136.327 44.967L133.791 42.4301L132.856 43.3647Z" fill="black"/>
<path fill-rule="evenodd" clip-rule="evenodd" d="M137.93 42.1634C135.17 39.4039 130.63 39.4039 127.871 42.1634L87.0128 83.0216L65.7825 61.7913C63.023 59.0318 58.4832 59.0318 55.7237 61.7913L53.1868 64.3283C50.4273 67.0878 50.4273 71.6276 53.1868 74.3871L81.7163 102.917C82.562 103.762 83.6302 104.385 84.6984 104.697C87.1908 105.587 90.1283 105.053 92.1312 103.006L140.467 54.7591C143.226 51.9996 143.226 47.4598 140.467 44.7003L137.93 42.1634Z" fill="#F1F332"/>
<path d="M87.0129 83.0239L86.5233 83.5135L87.0129 84.0031L87.5025 83.5135L87.0129 83.0239ZM128.316 42.6108C130.853 40.0739 134.903 40.0739 137.44 42.6108L138.375 41.6762C135.348 38.6496 130.408 38.6496 127.381 41.6762L128.316 42.6108ZM87.5025 83.469L128.361 42.6108L127.426 41.6762L86.5678 82.5344L87.5025 83.469ZM65.3375 62.2388L86.5678 83.469L87.5025 82.5344L66.2722 61.3041L65.3375 62.2388ZM56.1689 62.2388C58.7059 59.7018 62.7561 59.7018 65.293 62.2388L66.2277 61.3041C63.2012 58.2776 58.2608 58.2776 55.2343 61.3041L56.1689 62.2388ZM53.6765 64.7757L56.2134 62.2388L55.2788 61.3041L52.7418 63.8411L53.6765 64.7757ZM53.6765 73.8998C51.1395 71.3629 51.1395 67.3127 53.6765 64.7757L52.7418 63.8411C49.7153 66.8676 49.7153 71.808 52.7418 74.8345L53.6765 73.8998ZM82.206 102.429L53.6765 73.8998L52.7418 74.8345L81.2714 103.364L82.206 102.429ZM84.921 104.076C83.9418 103.765 83.0072 103.23 82.206 102.474L81.2714 103.409C82.206 104.343 83.3632 105.011 84.5204 105.367L84.921 104.076ZM91.6862 102.563C89.8614 104.388 87.2354 104.877 84.9655 104.076L84.5204 105.322C87.2799 106.302 90.44 105.678 92.6654 103.498L91.6862 102.563ZM139.977 54.2719L91.6862 102.563L92.6209 103.498L140.912 55.2065L139.977 54.2719ZM139.977 45.1478C142.514 47.6847 142.514 51.7349 139.977 54.2719L140.912 55.2065C143.938 52.18 143.938 47.2396 140.912 44.2131L139.977 45.1478ZM137.44 42.6108L139.977 45.1478L140.912 44.2131L138.375 41.6762L137.44 42.6108Z" fill="black"/>
<path d="M114.074 104.521C114.118 104.387 114.252 104.254 114.385 104.254C114.519 104.254 114.697 104.343 114.697 104.521L117.011 115.737L128.45 118.051C128.583 118.096 128.717 118.229 128.717 118.363C128.717 118.496 128.583 118.674 128.45 118.674L117.011 120.989L114.697 132.205C114.652 132.338 114.519 132.472 114.385 132.472C114.252 132.472 114.074 132.383 114.074 132.205L111.759 120.989L100.321 118.674C100.187 118.63 100.054 118.496 100.054 118.363C100.054 118.229 100.187 118.051 100.321 118.051L111.759 115.737L114.074 104.521Z" fill="white" stroke="black" stroke-width="0.667618" stroke-linejoin="round"/>
<path d="M14.9993 30.1928C14.9548 30.0593 14.8213 29.9258 14.6877 29.9258C14.5542 29.9258 14.3762 30.0148 14.3762 30.1928L12.0173 41.4533L0.623248 43.7677C0.445217 43.7677 0.356201 43.9012 0.356201 44.0793C0.356201 44.2573 0.489725 44.3908 0.623248 44.3908L12.0618 46.7052L14.3762 57.9212C14.4207 58.0547 14.5542 58.1883 14.6877 58.1883C14.8213 58.1883 14.9993 58.0993 14.9993 57.9212L17.3137 46.7052L28.7522 44.3908C28.9302 44.3463 29.0193 44.2128 29.0193 44.0793C29.0193 43.9458 28.8857 43.7677 28.7522 43.7677L17.3582 41.4533L14.9993 30.1928Z" fill="white" stroke="black" stroke-width="0.667618" stroke-linejoin="round"/>
</g>
<defs>
<clipPath id="clip0_2276_3178">
<rect width="156" height="145.096" fill="white" transform="translate(0 0.460938)"/>
</clipPath>
</defs>
</svg>
