<svg width="292" height="280" viewBox="0 0 292 280" fill="none" xmlns="http://www.w3.org/2000/svg">
<path d="M28.3186 72.1593H91.1979C91.1979 72.1593 84.9666 55.1299 75.3715 55.1299C65.7764 55.1299 62.7688 66.88 62.7688 66.88C62.7688 66.88 56.2922 60.4968 50.9778 60.4968C45.6634 60.4968 41.0498 68.9356 41.0498 68.9356C41.0498 68.9356 33.522 64.398 28.3186 72.1593Z" fill="#EBEBEB"/>
<path opacity="0.5" d="M176.981 135.991H206.368C206.368 135.991 199.798 126.472 194.629 126.472C189.461 126.472 187.925 132.82 187.925 132.82C187.925 132.82 184.275 129.859 180.917 130.384C177.559 130.91 176.981 135.991 176.981 135.991Z" fill="#EBEBEB"/>
<path d="M206.444 106.558H263.676C263.676 106.558 255.839 89.0378 247.453 87.9691C239.067 86.9004 235.06 100.969 235.06 100.969C235.06 100.969 229.653 95.9874 225.395 95.9874C221.138 95.9874 217.862 102.552 217.862 102.552C217.862 102.552 209.358 98.0548 206.444 106.558Z" fill="#EBEBEB"/>
<path opacity="0.5" d="M178.914 71.2486H217.581C217.581 71.2486 210.941 58.57 203.734 58.4006C196.528 58.2313 192.72 67.9782 192.72 67.9782C192.72 67.9782 181.531 58.9846 178.914 71.2486Z" fill="#EBEBEB"/>
<path opacity="0.5" d="M80.3584 147.864H119.025C119.025 147.864 112.379 135.185 105.173 135.016C97.966 134.846 94.1817 144.611 94.1817 144.611C94.1817 144.611 82.9747 135.6 80.3584 147.864Z" fill="#EBEBEB"/>
<path d="M72.3222 69.0466C72.3579 69.3133 72.3137 69.5846 72.1953 69.8263C72.0768 70.0679 71.8894 70.2689 71.6566 70.404C71.4239 70.5391 71.1564 70.6022 70.8878 70.5852C70.6193 70.5683 70.3618 70.4721 70.1479 70.3088C69.934 70.1455 69.7733 69.9225 69.6861 69.6679C69.599 69.4133 69.5893 69.1386 69.6582 68.8785C69.7272 68.6184 69.8717 68.3846 70.0735 68.2066C70.2754 68.0286 70.5254 67.9145 70.7921 67.8786C71.1497 67.8321 71.5111 67.9287 71.7977 68.1475C72.0843 68.3663 72.2728 68.6895 72.3222 69.0466Z" fill="#FF3489"/>
<path d="M70.9618 92.768C70.9976 93.0347 70.9534 93.3061 70.8349 93.5477C70.7165 93.7893 70.529 93.9903 70.2963 94.1254C70.0636 94.2605 69.796 94.3236 69.5275 94.3066C69.2589 94.2897 69.0014 94.1935 68.7875 94.0302C68.5736 93.8669 68.4129 93.6439 68.3258 93.3893C68.2386 93.1347 68.2289 92.86 68.2979 92.5999C68.3668 92.3398 68.5114 92.106 68.7132 91.928C68.915 91.75 69.1651 91.6359 69.4318 91.6C69.6089 91.5762 69.7891 91.5875 69.9619 91.6333C70.1346 91.6791 70.2967 91.7585 70.4388 91.867C70.5809 91.9755 70.7002 92.1109 70.79 92.2655C70.8797 92.4201 70.9381 92.5909 70.9618 92.768Z" fill="#263238"/>
<path d="M119.282 121.653C119.293 121.742 119.287 121.832 119.264 121.918C119.241 122.004 119.201 122.085 119.146 122.156C119.092 122.227 119.024 122.286 118.946 122.33C118.869 122.375 118.784 122.404 118.695 122.415C118.606 122.427 118.516 122.421 118.43 122.397C118.344 122.374 118.263 122.334 118.192 122.28C118.122 122.225 118.062 122.157 118.018 122.08C117.973 122.002 117.944 121.917 117.933 121.828C117.91 121.649 117.958 121.469 118.069 121.326C118.179 121.183 118.341 121.089 118.52 121.066C118.699 121.043 118.88 121.092 119.022 121.202C119.165 121.312 119.259 121.474 119.282 121.653Z" fill="#FF3489"/>
<path d="M95.3613 44.6522C95.3799 44.7863 95.3582 44.9229 95.299 45.0446C95.2398 45.1664 95.1457 45.2678 95.0288 45.336C94.9119 45.4042 94.7773 45.4361 94.6422 45.4278C94.5071 45.4194 94.3775 45.371 94.2699 45.2889C94.1623 45.2068 94.0815 45.0945 94.0378 44.9664C93.9941 44.8383 93.9894 44.7001 94.0244 44.5693C94.0594 44.4385 94.1324 44.3211 94.2342 44.2319C94.336 44.1426 94.4621 44.0857 94.5963 44.0682C94.7751 44.0449 94.9558 44.0933 95.0991 44.2027C95.2424 44.312 95.3367 44.4736 95.3613 44.6522Z" fill="#FF3489"/>
<path d="M179.872 29.369C179.895 29.5478 179.846 29.7286 179.736 29.8716C179.626 30.0145 179.464 30.1078 179.285 30.1311C179.106 30.1543 178.925 30.1055 178.782 29.9955C178.639 29.8854 178.546 29.723 178.523 29.5442C178.5 29.3653 178.548 29.1845 178.658 29.0415C178.768 28.8986 178.931 28.8053 179.11 28.782C179.289 28.7588 179.469 28.8076 179.612 28.9177C179.755 29.0277 179.849 29.1901 179.872 29.369Z" fill="#263238"/>
<path d="M103.07 81.1292C103.091 81.2217 103.093 81.3175 103.074 81.4106C103.056 81.5038 103.019 81.5921 102.965 81.6699C102.911 81.7478 102.841 81.8136 102.76 81.8631C102.679 81.9125 102.589 81.9446 102.495 81.9572C102.401 81.9698 102.305 81.9627 102.214 81.9363C102.123 81.91 102.038 81.8649 101.965 81.8041C101.893 81.7432 101.833 81.6679 101.791 81.5828C101.749 81.4978 101.725 81.405 101.721 81.3102C101.714 81.1397 101.77 80.9725 101.88 80.8416C101.989 80.7107 102.144 80.6255 102.313 80.6028C102.482 80.58 102.654 80.6215 102.794 80.7189C102.934 80.8163 103.033 80.9627 103.07 81.1292Z" fill="#263238"/>
<path d="M165.722 142.281C165.733 142.37 165.727 142.46 165.704 142.546C165.681 142.632 165.641 142.713 165.586 142.784C165.532 142.854 165.464 142.914 165.386 142.958C165.309 143.003 165.223 143.032 165.135 143.043C165.046 143.055 164.956 143.049 164.87 143.025C164.784 143.002 164.703 142.962 164.632 142.908C164.561 142.853 164.502 142.785 164.457 142.708C164.413 142.63 164.384 142.545 164.373 142.456C164.349 142.277 164.398 142.097 164.508 141.954C164.618 141.811 164.781 141.717 164.96 141.694C165.138 141.671 165.319 141.72 165.462 141.83C165.605 141.94 165.698 142.102 165.722 142.281Z" fill="#455A64"/>
<path d="M69.2335 146.211C69.2508 146.343 69.2284 146.478 69.169 146.599C69.1096 146.719 69.0159 146.818 68.8998 146.885C68.7837 146.952 68.6503 146.983 68.5166 146.974C68.3829 146.965 68.2549 146.917 68.1487 146.835C68.0425 146.754 67.9629 146.642 67.92 146.515C67.877 146.388 67.8727 146.251 67.9076 146.122C67.9424 145.993 68.0149 145.877 68.1157 145.788C68.2166 145.7 68.3414 145.644 68.4742 145.627C68.5626 145.614 68.6524 145.62 68.7386 145.642C68.8248 145.665 68.9056 145.705 68.9763 145.759C69.0469 145.814 69.1061 145.882 69.1502 145.959C69.1944 146.037 69.2227 146.122 69.2335 146.211Z" fill="#FF3489"/>
<path d="M48.7348 120.544C48.7705 120.811 48.7263 121.082 48.6079 121.324C48.4894 121.565 48.302 121.766 48.0692 121.902C47.8365 122.037 47.569 122.1 47.3004 122.083C47.0319 122.066 46.7744 121.97 46.5605 121.806C46.3466 121.643 46.1859 121.42 46.0987 121.165C46.0116 120.911 46.0019 120.636 46.0708 120.376C46.1398 120.116 46.2843 119.882 46.4861 119.704C46.688 119.526 46.938 119.412 47.2047 119.376C47.382 119.352 47.5624 119.362 47.7355 119.408C47.9086 119.453 48.071 119.533 48.2132 119.641C48.3555 119.75 48.4749 119.886 48.5644 120.041C48.6539 120.195 48.7118 120.367 48.7348 120.544Z" fill="#FF3489"/>
<path d="M131.651 29.2758C131.687 29.5426 131.643 29.8139 131.524 30.0555C131.406 30.2971 131.218 30.4981 130.985 30.6332C130.753 30.7683 130.485 30.8314 130.217 30.8144C129.948 30.7975 129.691 30.7013 129.477 30.538C129.263 30.3747 129.102 30.1517 129.015 29.8971C128.928 29.6425 128.918 29.3678 128.987 29.1077C129.056 28.8476 129.201 28.6138 129.402 28.4358C129.604 28.2579 129.854 28.1437 130.121 28.1078C130.298 28.084 130.478 28.0953 130.651 28.1411C130.824 28.1869 130.986 28.2664 131.128 28.3748C131.27 28.4833 131.389 28.6187 131.479 28.7733C131.569 28.9279 131.627 29.0987 131.651 29.2758Z" fill="#FF3489"/>
<path d="M224.046 166.125L225.973 165.477C225.973 165.477 224.659 164.799 224.659 162.691C224.659 160.583 226.463 159.771 225.687 157.85L223.538 158.434C223.779 158.935 223.913 159.482 223.93 160.038C223.947 160.594 223.847 161.148 223.637 161.663C223.088 162.866 222.551 164.309 224.046 166.125Z" fill="#FF3489"/>
<path d="M64.0764 161.563L62.1725 160.845C62.1725 160.845 62.7565 162.2 61.4367 163.835C60.1169 165.47 58.1838 165.003 57.5881 166.953L59.6146 167.859C59.7439 167.317 59.9853 166.808 60.3233 166.366C60.6613 165.923 61.0883 165.556 61.5769 165.289C62.7857 164.687 64.0881 163.911 64.0764 161.563Z" fill="#FF3489"/>
<path d="M116.975 71.8317L115.048 71.1309C115.048 71.1309 115.632 72.4857 114.312 74.1209C112.992 75.7561 111.059 75.2889 110.464 77.2337L112.49 78.1447C112.618 77.6026 112.859 77.0936 113.197 76.6508C113.536 76.2081 113.963 75.8415 114.452 75.5751C115.685 74.9853 116.987 74.1969 116.975 71.8317Z" fill="#455A64"/>
<path d="M186.296 132.726L184.392 132.014C184.392 132.014 184.976 133.369 183.656 135.004C182.337 136.639 180.404 136.172 179.808 138.116L181.834 139.028C181.963 138.485 182.204 137.976 182.542 137.534C182.88 137.091 183.307 136.724 183.797 136.458C185.017 135.868 186.325 135.08 186.296 132.726Z" fill="#455A64"/>
<path d="M105.12 114.768L105.394 112.759C105.394 112.759 104.226 113.635 102.317 112.701C100.407 111.766 100.483 109.781 98.4273 109.635L97.9893 111.813C98.5426 111.822 99.088 111.946 99.5908 112.177C100.094 112.408 100.543 112.742 100.909 113.156C101.791 114.207 102.854 115.305 105.12 114.768Z" fill="#FF3489"/>
<path d="M196.668 154.455L196.942 152.44C196.942 152.44 195.774 153.316 193.865 152.381C191.955 151.447 192.031 149.461 189.975 149.315L189.537 151.494C190.091 151.503 190.637 151.628 191.14 151.86C191.643 152.092 192.091 152.427 192.457 152.843C193.304 153.888 194.379 154.986 196.668 154.455Z" fill="#455A64"/>
<path d="M188.445 61.3726L188.719 59.3637C188.719 59.3637 187.551 60.2397 185.642 59.3053C183.732 58.3709 183.808 56.3853 181.752 56.2393L181.314 58.4176C181.868 58.4263 182.413 58.5503 182.916 58.7816C183.418 59.0128 183.868 59.3463 184.234 59.7608C185.093 60.8061 186.156 61.9041 188.445 61.3726Z" fill="#FF3489"/>
<path d="M225.424 71.0147L223.287 69.8467C223.287 69.8467 221.535 72.4572 223.637 73.777C223.631 73.7828 223.199 72.0834 225.424 71.0147Z" fill="#FF3489"/>
<path d="M223.671 76.9661L225.926 76.131C225.926 76.131 226.06 74.1979 223.619 73.795C223.631 73.7833 225.161 75.5353 223.671 76.9661Z" fill="#FF3489"/>
<path d="M111.299 133.631L109.156 132.463C109.156 132.463 107.404 135.079 109.506 136.393C109.506 136.399 109.08 134.705 111.299 133.631Z" fill="#455A64"/>
<path d="M109.564 139.576L111.813 138.735C111.813 138.735 111.947 136.808 109.477 136.399C109.506 136.399 111.036 138.151 109.564 139.576Z" fill="#455A64"/>
<path d="M194.84 56.4717C194.804 56.2048 194.848 55.9332 194.967 55.6913C195.085 55.4495 195.273 55.2482 195.506 55.1132C195.739 54.9781 196.007 54.9152 196.276 54.9325C196.545 54.9498 196.802 55.0465 197.016 55.2103C197.23 55.3742 197.39 55.5978 197.477 55.8528C197.564 56.1079 197.573 56.3829 197.503 56.6431C197.433 56.9033 197.288 57.1369 197.085 57.3143C196.882 57.4917 196.631 57.605 196.364 57.6397C196.007 57.6862 195.647 57.5894 195.361 57.3705C195.075 57.1516 194.888 56.8284 194.84 56.4717Z" fill="#263238"/>
<path d="M216.349 89.5804C216.313 89.3137 216.357 89.0423 216.476 88.8007C216.594 88.5591 216.782 88.3581 217.014 88.223C217.247 88.0879 217.515 88.0248 217.783 88.0418C218.052 88.0587 218.309 88.1549 218.523 88.3182C218.737 88.4815 218.898 88.7045 218.985 88.9591C219.072 89.2137 219.082 89.4884 219.013 89.7485C218.944 90.0086 218.799 90.2424 218.597 90.4204C218.396 90.5984 218.145 90.7125 217.879 90.7484C217.702 90.7722 217.522 90.7609 217.349 90.7151C217.176 90.6693 217.014 90.5899 216.872 90.4814C216.73 90.3729 216.61 90.2375 216.521 90.0829C216.431 89.9283 216.372 89.7575 216.349 89.5804Z" fill="#FF3489"/>
<path d="M210.707 138.648C210.69 138.515 210.712 138.38 210.772 138.26C210.831 138.14 210.925 138.04 211.041 137.973C211.157 137.906 211.29 137.875 211.424 137.884C211.558 137.893 211.686 137.942 211.792 138.023C211.898 138.105 211.978 138.216 212.021 138.343C212.064 138.47 212.068 138.607 212.033 138.736C211.998 138.866 211.926 138.982 211.825 139.07C211.724 139.158 211.599 139.215 211.466 139.232C211.288 139.255 211.108 139.207 210.966 139.097C210.823 138.988 210.73 138.826 210.707 138.648Z" fill="#FF3489"/>
<path d="M131.774 116.858L131.493 118.873C131.493 118.873 132.661 117.997 134.571 118.931C136.481 119.866 136.411 121.851 138.466 121.997L138.899 119.819C138.345 119.81 137.8 119.686 137.297 119.455C136.794 119.224 136.345 118.89 135.979 118.476C135.12 117.425 134.063 116.327 131.774 116.858Z" fill="#455A64"/>
<path d="M243.721 139.792L240.479 140.709C240.479 140.709 238.932 136.656 242.15 135.511C242.15 135.488 241.052 137.672 243.721 139.792Z" fill="#455A64"/>
<path d="M243.189 131.231L245.975 133.048C245.975 133.048 245.566 135.693 242.15 135.512C242.15 135.489 244.743 133.614 243.189 131.231Z" fill="#455A64"/>
<path d="M185.712 107.1L182.453 108.041C182.453 108.041 180.911 103.988 184.123 102.843C184.123 102.82 183.031 104.98 185.712 107.1Z" fill="#263238"/>
<path d="M185.169 98.5381L187.954 100.354C187.954 100.354 187.546 103 184.123 102.819C184.123 102.819 186.722 100.921 185.169 98.5381Z" fill="#263238"/>
<path d="M75.0263 126.245L71.7793 127.161C71.7793 127.161 70.2375 123.109 73.4495 121.964C73.4495 121.964 72.3516 124.125 75.0263 126.245Z" fill="#263238"/>
<path d="M74.4948 117.681L77.2805 119.497C77.2805 119.497 76.8659 122.142 73.4495 121.961C73.4495 121.961 76.0483 120.063 74.4948 117.681Z" fill="#263238"/>
<path d="M211.268 100.576L213.411 101.744C213.411 101.744 215.163 99.1275 213.061 97.8135C213.061 97.8077 213.487 99.5012 211.268 100.576Z" fill="#455A64"/>
<path d="M213.002 94.6074L210.748 95.4484C210.748 95.4484 210.62 97.3756 213.084 97.7844C213.061 97.8077 211.531 96.0557 213.002 94.6074Z" fill="#455A64"/>
<path d="M136.755 90.2985L138.898 91.4665C138.898 91.4665 140.65 88.856 138.548 87.5361C138.548 87.5303 138.992 89.2297 136.755 90.2985Z" fill="#FF3489"/>
<path d="M138.49 84.3477L136.236 85.1828C136.236 85.1828 136.107 87.1158 138.572 87.5188C138.548 87.5305 137.018 85.7843 138.49 84.3477Z" fill="#FF3489"/>
<path d="M155.531 167.531L155.887 169.938C155.887 169.938 159.017 169.756 158.807 167.298C158.848 167.298 157.721 168.659 155.531 167.531Z" fill="#FF3489"/>
<path d="M161.33 165.342L159.31 164.046C159.31 164.046 157.686 165.097 158.819 167.299C158.848 167.299 159.298 165.027 161.33 165.342Z" fill="#FF3489"/>
<path d="M173.851 124.638C165.184 130.198 150.304 133.865 138.688 132.843C136.861 132.709 135.048 132.422 133.269 131.985C130.88 131.401 128.556 130.741 126.313 130.128C111.386 126.04 98.5031 122.536 76.2878 128.592C49.7567 135.822 43.8407 139.104 43.3268 139.174L47.2455 134.905L42.0479 131.663C42.1705 131.663 48.174 128.352 74.2671 121.239C98.4798 114.646 112.957 118.599 128.287 122.781C130.506 123.365 132.796 124.013 135.12 124.609C136.021 124.835 136.933 125.014 137.853 125.146C148.902 126.734 164.904 122.81 171.509 117.554C172.203 117.025 172.776 116.354 173.191 115.586L173.302 123.762C173.448 123.885 173.6 124.194 173.851 124.638Z" fill="#FF3489"/>
<path opacity="0.2" d="M173.851 124.638C165.184 130.198 150.304 133.865 138.688 132.843C136.861 132.709 135.048 132.422 133.269 131.985C130.88 131.401 128.556 130.741 126.313 130.128C111.386 126.04 98.5031 122.536 76.2878 128.592C49.7567 135.822 43.8407 139.104 43.3268 139.174L47.2455 134.905L42.0479 131.663C42.1705 131.663 48.174 128.352 74.2671 121.239C98.4798 114.646 112.957 118.599 128.287 122.781C130.506 123.365 132.796 124.013 135.12 124.609C136.021 124.835 136.933 125.014 137.853 125.146C148.902 126.734 164.904 122.81 171.509 117.554C172.203 117.025 172.776 116.354 173.191 115.586L173.302 123.762C173.448 123.885 173.6 124.194 173.851 124.638Z" fill="black"/>
<path d="M172.117 112.748C172.117 112.748 172.251 132.382 168.408 136.622C168.408 136.622 143.057 183.289 129.397 185.941C117.828 188.189 75.7041 156.998 75.7041 156.998L89.0251 136.476C89.0251 136.476 96.3894 140.062 106.434 145.545C114.727 150.077 121.852 155.211 122.068 154.831C125.21 149.178 138.023 133.112 137.772 132.055C134.998 120.299 143.384 112.783 143.384 112.783L172.117 112.748Z" fill="#263238"/>
<path d="M168.402 136.623C168.402 136.623 162.177 148.093 154.229 159.983L137.766 132.039C135.003 120.289 143.389 112.767 143.389 112.767H172.122C172.122 112.767 172.245 132.383 168.402 136.623Z" fill="#37474F"/>
<path d="M37.4869 153.184C37.8665 151.765 59.9592 118.617 61.6061 117.893C62.2252 117.607 89.0541 136.476 89.0541 136.476L75.7448 156.916L58.6569 145.902C58.6569 145.902 44.8862 154.586 42.994 155.193C41.1019 155.8 37.1015 154.597 37.4869 153.184Z" fill="#EB9481"/>
<path d="M37.4928 153.185C37.8724 151.766 59.9593 118.618 61.6003 117.894C61.8982 117.754 70.3603 123.512 75.4119 126.981L61.7288 147.918L58.6278 145.926C58.6278 145.926 44.8863 154.581 42.9941 155.194C41.1019 155.807 37.1015 154.593 37.4928 153.185Z" fill="#EBEBEB"/>
<path d="M37.4115 153.335C37.7969 151.928 59.8079 118.354 61.4373 117.624C62.0563 117.343 67.0729 120.707 72.3989 124.906L58.5757 146.269C58.5757 146.269 44.7757 154.725 42.9011 155.344C41.0265 155.963 37.0319 154.76 37.4115 153.335Z" fill="#FF3489"/>
<path d="M39.0462 153.746C42.8714 148.303 57.7634 125.988 61.1273 120.318C61.1273 120.271 61.1273 120.248 61.0922 120.318C57.1911 125.626 42.4743 148.064 38.9586 153.705C38.8827 153.804 38.9703 153.857 39.0462 153.746Z" fill="#263238"/>
<path d="M45.4996 154.002C45.9266 153.398 46.223 152.711 46.3698 151.986C46.5166 151.261 46.5106 150.514 46.3522 149.791C46.0817 148.488 45.318 147.339 44.2206 146.585C44.2206 146.585 44.1505 146.62 44.1797 146.649C45.1513 147.566 45.7985 148.774 46.0239 150.09C46.2493 151.407 46.0407 152.761 45.4295 153.949C45.4061 154.002 45.4704 154.048 45.4996 154.002Z" fill="#263238"/>
<path d="M56.8643 147.631C58.371 145.441 59.2995 142.375 58.406 139.771C58.371 139.671 58.2308 139.718 58.2191 139.806C57.9443 142.419 57.3902 144.996 56.5664 147.491C56.5588 147.528 56.5639 147.567 56.5809 147.601C56.598 147.635 56.6259 147.662 56.6602 147.678C56.6946 147.694 56.7334 147.699 56.7704 147.69C56.8074 147.682 56.8405 147.661 56.8643 147.631Z" fill="#263238"/>
<path d="M55.0598 148.922C56.5665 146.732 57.4951 143.666 56.6016 141.056C56.5665 140.956 56.4264 141.009 56.4147 141.097C56.1391 143.71 55.5851 146.286 54.762 148.782C54.7544 148.819 54.7595 148.858 54.7765 148.892C54.7935 148.926 54.8214 148.953 54.8558 148.969C54.8902 148.985 54.9289 148.99 54.9659 148.981C55.003 148.973 55.036 148.952 55.0598 148.922Z" fill="#263238"/>
<path d="M53.2553 150.165C54.7621 147.97 55.6906 144.909 54.7971 142.299C54.7621 142.2 54.6219 142.252 54.6102 142.34C54.3346 144.951 53.7806 147.526 52.9575 150.019C52.9478 150.057 52.9514 150.097 52.9677 150.132C52.984 150.168 53.012 150.197 53.047 150.214C53.0819 150.231 53.1218 150.235 53.1597 150.227C53.1977 150.218 53.2315 150.196 53.2553 150.165Z" fill="#263238"/>
<path d="M51.4504 151.432C52.9571 149.236 53.8857 146.147 52.9922 143.566C52.9571 143.466 52.817 143.519 52.8053 143.606C52.5297 146.218 51.9756 148.792 51.1526 151.286C51.1429 151.324 51.1464 151.364 51.1627 151.399C51.179 151.434 51.2071 151.463 51.242 151.48C51.277 151.497 51.3168 151.502 51.3548 151.493C51.3928 151.484 51.4265 151.463 51.4504 151.432Z" fill="#263238"/>
<path d="M65.443 125.223C67.0899 122.735 63.2238 120.172 61.5769 122.665C59.93 125.159 63.7961 127.717 65.443 125.223Z" fill="#263238"/>
<path d="M61.18 153.966C62.8619 153.458 62.8911 151.437 62.3888 150.112C61.6685 148.312 60.5828 146.681 59.2002 145.323C59.0133 145.124 58.8148 144.943 58.6162 144.739C58.5248 144.67 58.4371 144.595 58.3534 144.517L58.2775 144.47L58.0614 144.295C58.0525 144.289 58.0424 144.285 58.0318 144.284C58.0212 144.282 58.0104 144.283 58.0002 144.287C57.9901 144.29 57.9809 144.296 57.9732 144.303C57.9656 144.311 57.9598 144.32 57.9563 144.33C57.8943 144.308 57.8275 144.305 57.7635 144.319C57.6995 144.334 57.6408 144.366 57.5942 144.412C57.5672 144.436 57.5459 144.466 57.5317 144.499C57.5176 144.532 57.511 144.568 57.5124 144.605C57.5124 145.241 57.5124 145.895 57.5124 146.549C57.5065 146.662 57.5065 146.775 57.5124 146.888C57.4294 148.481 57.615 150.076 58.0614 151.607C58.4935 152.927 59.5973 154.433 61.18 153.966ZM58.26 148.126C58.26 147.577 58.2249 147.028 58.2074 146.485C58.1899 145.942 58.1724 145.562 58.149 145.101C58.149 145.037 58.149 144.967 58.149 144.908C58.149 144.85 58.149 144.786 58.149 144.733L58.2541 144.862C58.476 145.159 58.6921 145.446 58.9199 145.732C59.5228 146.506 60.0823 147.313 60.596 148.149C60.9551 148.727 61.2751 149.328 61.5537 149.948C61.9625 150.918 62.3596 154.328 59.8017 152.938C58.4001 152.185 58.3417 149.458 58.2891 148.114L58.26 148.126Z" fill="#263238"/>
<path d="M57.8746 144.886C57.8743 144.897 57.8765 144.907 57.881 144.917C57.8856 144.927 57.8924 144.936 57.9009 144.943C57.9094 144.949 57.9194 144.954 57.93 144.956C57.9406 144.959 57.9517 144.959 57.9622 144.956C58.0322 144.943 58.1006 144.924 58.1666 144.897C58.193 144.907 58.222 144.907 58.2484 144.897C58.371 144.88 58.4908 144.847 58.6046 144.798C59.0343 144.677 59.4541 144.522 59.8602 144.337C61.4932 143.652 62.98 142.661 64.2402 141.417C65.2447 140.406 66.0273 138.549 64.6957 137.411C64.6476 137.37 64.5969 137.333 64.5439 137.3C63.3117 136.406 61.7757 137.3 60.8822 138.281C59.9901 139.332 59.2635 140.514 58.7273 141.785C58.336 142.667 57.9681 143.537 57.5593 144.419C57.5328 144.47 57.5206 144.527 57.524 144.585C57.5274 144.642 57.5462 144.698 57.5784 144.746C57.6107 144.793 57.6552 144.832 57.7073 144.856C57.7594 144.881 57.8172 144.891 57.8746 144.886ZM59.6967 141.586C60.2807 140.371 61.4487 137.907 63.0605 137.773C63.4301 137.722 63.8063 137.769 64.1526 137.907C65.3907 138.491 64.0767 140.611 63.4401 141.212C62.9357 141.672 62.4012 142.097 61.84 142.485C61.4195 142.783 60.9932 143.069 60.5435 143.309C59.8252 143.741 59.0893 144.132 58.3593 144.547C58.3126 144.547 58.2717 144.605 58.225 144.623C58.2533 144.582 58.275 144.536 58.2893 144.489C58.3593 144.372 58.4177 144.267 58.4761 144.144C58.8908 143.303 59.2762 142.439 59.6967 141.586Z" fill="#263238"/>
<path d="M257.678 237.743C256.761 238.911 223.286 260.478 221.47 260.519C220.787 260.519 203.734 232.539 203.734 232.539L224.104 219.107L235.375 236.043C235.375 236.043 251.435 233.585 253.409 233.777C255.383 233.97 258.595 236.598 257.678 237.743Z" fill="#EB9481"/>
<path d="M257.673 237.742C256.762 238.91 223.281 260.477 221.465 260.518C221.138 260.518 215.677 251.869 212.425 246.671L233.326 232.93L235.37 235.996C235.37 235.996 251.424 233.537 253.404 233.73C255.384 233.922 258.596 236.603 257.673 237.742Z" fill="#EBEBEB"/>
<path d="M257.807 237.631C256.896 238.799 223.322 260.781 221.535 260.798C220.852 260.798 217.599 255.723 214.387 249.749L235.58 235.675C235.58 235.675 251.611 233.415 253.573 233.607C255.535 233.8 258.712 236.486 257.807 237.631Z" fill="#FF3489"/>
<path d="M256.47 236.603C250.793 240.072 228.239 254.596 222.89 258.45C222.849 258.485 222.89 258.515 222.89 258.485C228.589 255.174 251.032 240.469 256.505 236.696C256.645 236.615 256.592 236.521 256.47 236.603Z" fill="#263238"/>
<path d="M250.659 233.794C250.029 234.176 249.485 234.685 249.061 235.288C248.637 235.891 248.342 236.575 248.195 237.298C247.925 238.599 248.167 239.955 248.872 241.082C248.872 241.117 248.954 241.082 248.936 241.041C248.411 239.814 248.298 238.449 248.614 237.152C248.93 235.855 249.657 234.695 250.688 233.846C250.747 233.829 250.7 233.764 250.659 233.794Z" fill="#263238"/>
<path d="M237.688 235.103C235.434 236.516 233.349 238.975 233.139 241.702C233.139 241.807 233.279 241.819 233.326 241.737C234.621 239.451 236.158 237.311 237.91 235.354C237.936 235.323 237.95 235.283 237.95 235.243C237.949 235.202 237.934 235.163 237.907 235.132C237.881 235.102 237.844 235.082 237.803 235.077C237.763 235.071 237.722 235.081 237.688 235.103Z" fill="#263238"/>
<path d="M239.855 234.658C237.594 236.072 235.515 238.536 235.305 241.258C235.305 241.363 235.445 241.374 235.492 241.299C236.785 239.011 238.32 236.869 240.071 234.91C240.094 234.879 240.106 234.841 240.105 234.802C240.104 234.763 240.09 234.726 240.064 234.697C240.039 234.667 240.004 234.647 239.966 234.64C239.928 234.633 239.889 234.64 239.855 234.658Z" fill="#263238"/>
<path d="M242.016 234.221C239.756 235.634 237.677 238.093 237.466 240.82C237.466 240.925 237.606 240.937 237.653 240.855C238.947 238.57 240.482 236.43 242.232 234.472C242.255 234.441 242.267 234.403 242.266 234.364C242.265 234.326 242.251 234.288 242.225 234.259C242.2 234.23 242.165 234.21 242.127 234.203C242.089 234.196 242.05 234.202 242.016 234.221Z" fill="#263238"/>
<path d="M244.176 233.777C241.916 235.19 239.837 237.654 239.627 240.376C239.627 240.481 239.767 240.493 239.814 240.417C241.107 238.13 242.642 235.988 244.392 234.028C244.416 233.997 244.428 233.959 244.427 233.92C244.426 233.881 244.411 233.844 244.386 233.815C244.361 233.785 244.326 233.766 244.288 233.759C244.25 233.752 244.21 233.758 244.176 233.777Z" fill="#263238"/>
<path d="M220.892 252.231C218.387 253.854 220.892 257.749 223.415 256.12C225.938 254.491 223.397 250.601 220.892 252.231Z" fill="#263238"/>
<path d="M236.263 227.573C234.511 227.363 233.687 229.208 233.617 230.627C233.562 232.563 233.906 234.489 234.628 236.286C234.721 236.543 234.832 236.789 234.943 237.028C235.001 237.127 235.048 237.232 235.095 237.332L235.147 237.408L235.276 237.653C235.282 237.661 235.291 237.668 235.3 237.673C235.31 237.678 235.321 237.68 235.331 237.68C235.342 237.68 235.353 237.678 235.362 237.673C235.372 237.668 235.38 237.661 235.387 237.653C235.435 237.699 235.495 237.73 235.56 237.742C235.626 237.755 235.693 237.748 235.755 237.723C235.789 237.712 235.82 237.693 235.846 237.669C235.872 237.645 235.893 237.616 235.907 237.583C236.146 236.999 236.415 236.415 236.677 235.796C236.73 235.697 236.771 235.597 236.818 235.492C237.528 234.063 237.994 232.526 238.196 230.943C238.313 229.6 237.904 227.76 236.263 227.573ZM236.584 234.091C236.385 234.604 236.175 235.113 236 235.615C235.825 236.117 235.661 236.479 235.498 236.911C235.498 236.97 235.451 237.04 235.434 237.092L235.375 237.256C235.375 237.203 235.346 237.151 235.334 237.098C235.247 236.742 235.171 236.392 235.077 236.035C234.827 235.086 234.632 234.123 234.493 233.15C234.397 232.477 234.344 231.798 234.336 231.118C234.336 230.067 235.34 226.785 237.127 229.074C238.091 230.312 237.069 232.841 236.584 234.091Z" fill="#263238"/>
<path d="M235.673 237.216C235.678 237.206 235.68 237.195 235.68 237.184C235.68 237.173 235.677 237.163 235.672 237.153C235.667 237.143 235.66 237.135 235.651 237.129C235.642 237.122 235.632 237.118 235.621 237.117C235.551 237.109 235.48 237.109 235.411 237.117C235.398 237.11 235.384 237.107 235.37 237.107C235.356 237.107 235.342 237.11 235.329 237.117C235.21 237.087 235.089 237.071 234.967 237.07C234.524 237.008 234.077 236.98 233.629 236.988C231.862 236.96 230.105 237.271 228.455 237.905C227.135 238.431 225.675 239.821 226.44 241.409C226.468 241.465 226.499 241.52 226.534 241.573C227.31 242.881 229.08 242.665 230.283 242.157C231.528 241.543 232.67 240.741 233.67 239.78C234.383 239.131 235.072 238.454 235.779 237.823C235.841 237.793 235.891 237.743 235.923 237.681C235.954 237.619 235.965 237.549 235.953 237.48C235.941 237.412 235.908 237.349 235.857 237.301C235.807 237.254 235.742 237.224 235.673 237.216ZM232.689 239.517C231.655 240.393 229.6 242.186 228.081 241.672C227.722 241.574 227.396 241.383 227.135 241.117C226.224 240.095 228.303 238.664 229.103 238.366C229.749 238.148 230.408 237.972 231.077 237.841C231.58 237.736 232.088 237.66 232.596 237.595C233.431 237.49 234.26 237.426 235.095 237.333H235.253C235.211 237.363 235.172 237.396 235.136 237.432C235.025 237.514 234.932 237.59 234.827 237.677C234.108 238.273 233.413 238.904 232.689 239.517Z" fill="#263238"/>
<path d="M224.724 219.737L203.752 232.509C203.752 232.509 182.372 210.066 177.472 190.689C175.995 184.849 151.034 148.465 142.66 139.349C131.64 127.348 142.747 112.73 142.747 112.73H173.186L173.337 123.716C175.732 127.599 224.724 219.737 224.724 219.737Z" fill="#263238"/>
<path d="M167.024 118.553C168.203 119.254 169.324 120.049 170.377 120.93C171.442 121.794 172.438 122.741 173.355 123.762C172.175 123.06 171.053 122.263 170.003 121.379C168.937 120.517 167.942 119.572 167.024 118.553Z" fill="#37474F"/>
<path d="M161.85 56.2576C161.476 53.9216 160.98 51.463 157.488 50.33C149.995 47.9064 144.64 58.1206 135.99 61.391C125.572 65.3505 121.39 71.6402 125.63 75.6815C130.367 80.2075 139.162 77.6846 146.438 65.1695C150.993 57.3497 155.052 55.3758 156.921 55.405C158.27 55.405 160.162 58.1381 160.162 58.1381L161.85 56.2576Z" fill="#263238"/>
<path d="M149.054 60.9355C148.242 62.1035 147.571 63.3942 146.858 64.6381C146.146 65.882 145.457 67.1376 144.721 68.3582C143.985 69.5788 143.208 70.7818 142.35 71.9147C141.514 73.0569 140.568 74.1133 139.523 75.0683C138.498 76.031 137.296 76.7865 135.984 77.2934C134.638 77.7591 133.221 77.9883 131.797 77.9708C130.356 77.9571 128.938 77.6135 127.651 76.9663C127 76.6424 126.393 76.2361 125.846 75.7575C125.575 75.5168 125.32 75.2593 125.081 74.9866C124.832 74.7182 124.624 74.4153 124.462 74.0872C124.757 74.7672 125.188 75.3793 125.729 75.886C126.252 76.4154 126.84 76.8748 127.481 77.2525C128.135 77.6265 128.831 77.9206 129.554 78.1285C130.28 78.3336 131.026 78.4551 131.779 78.4906C132.526 78.5278 133.275 78.4945 134.016 78.3913L134.571 78.3037L135.114 78.1928C135.482 78.1128 135.844 78.0114 136.2 77.8891C137.598 77.3626 138.879 76.5692 139.973 75.5531C142.062 73.532 143.815 71.1898 145.165 68.6151C145.871 67.3537 146.514 66.0689 147.139 64.7783C147.764 63.4876 148.377 62.197 149.054 60.9355Z" fill="#263238"/>
<path d="M161.867 56.9348C161.798 55.9407 161.601 54.9594 161.283 54.0148C160.961 53.0928 160.433 52.2564 159.738 51.5693C159.044 50.8821 158.202 50.3624 157.277 50.0495C156.818 49.8932 156.345 49.7817 155.864 49.7166C155.389 49.6378 154.908 49.6085 154.427 49.629C153.469 49.7029 152.53 49.942 151.653 50.3356C150.769 50.7507 149.929 51.2556 149.148 51.8424C147.559 53.0104 146.088 54.3652 144.563 55.6676C143.046 57.0023 141.429 58.2205 139.728 59.3117C137.982 60.3303 136.161 61.2128 134.279 61.9514C132.416 62.6532 130.602 63.4784 128.848 64.4217C127.975 64.9007 127.166 65.4895 126.442 66.1737L125.916 66.6935C125.753 66.8862 125.607 67.0848 125.449 67.2775L125.216 67.5695L125.017 67.8848L124.626 68.5272C125.492 66.6863 126.892 65.1481 128.644 64.1122C130.381 63.0958 132.184 62.1945 134.04 61.4141C135.862 60.6286 137.63 59.7214 139.331 58.6985C140.992 57.6159 142.57 56.4094 144.05 55.0894C145.58 53.8046 147.051 52.438 148.722 51.2642C149.554 50.6613 150.446 50.1466 151.385 49.7283C152.342 49.3147 153.368 49.083 154.41 49.045C154.931 49.0426 155.452 49.0934 155.963 49.1968C156.471 49.289 156.969 49.4258 157.452 49.6056C158.425 49.9593 159.298 50.5403 160 51.3002C160.702 52.0601 161.212 52.9769 161.488 53.974C161.754 54.938 161.882 55.9349 161.867 56.9348Z" fill="#263238"/>
<path d="M164.244 56.3909C164.174 55.6667 163.544 54.8024 163.076 54.7324C162.609 54.6623 159.327 56.5661 159.134 57.4888C158.942 58.4116 160.577 59.0014 160.577 59.0014L164.244 56.3909Z" fill="#FF3489"/>
<path d="M169.997 81.4817C174.207 72.1377 178.284 64.8318 184.597 53.7709C187.879 48.0126 193.59 38.7387 195.056 36.2509C196.989 33.0038 210.795 45.5949 209.236 47.6389C208.219 48.9879 202.432 57.3625 196.843 63.2842C189.666 70.8762 184.369 77.9309 176.356 85.7799C170.3 91.7309 167.217 87.6545 169.997 81.4817Z" fill="#EB9481"/>
<path d="M205.352 51.6396C208.815 50.2964 219.322 42.8796 221.062 40.9874C222.802 39.0953 227.422 33.1852 226.09 31.7018C224.759 30.2185 223.269 31.8303 223.269 31.8303C223.269 31.8303 225.021 28.7993 223.345 27.6664C222.014 26.767 219.8 28.9278 219.8 28.9278C219.8 28.9278 221.552 25.5056 219.742 24.5945C218.101 23.7594 216.302 26.6969 216.302 26.6969C216.302 26.6969 217.47 23.6835 215.718 23.1929C213.633 22.6089 211.63 27.8065 209.528 29.7805C209.055 30.2301 195.763 38.2543 195.763 38.2543L205.352 51.6396Z" fill="#EB9481"/>
<path d="M216.22 26.5386C214.311 30.2879 213.411 31.7946 210.158 34.189C210.094 34.2358 210.158 34.3409 210.217 34.2942C213.621 32.2326 214.819 30.539 216.413 26.6029C216.489 26.4102 216.314 26.3634 216.22 26.5386Z" fill="#263238"/>
<path d="M219.759 28.9209C217.832 32.7636 216.401 34.2178 213.16 36.9859C213.114 37.0268 213.16 37.1027 213.225 37.0677C216.618 34.6207 218.481 33.0439 219.876 28.9559C219.958 28.7691 219.847 28.7457 219.759 28.9209Z" fill="#263238"/>
<path d="M223.088 31.9702C220.98 35.556 219.502 37.3197 216.027 39.609C216.014 39.6206 216.005 39.6366 216.002 39.6541C216 39.6715 216.003 39.6894 216.012 39.7047C216.021 39.7199 216.035 39.7316 216.052 39.7375C216.068 39.7435 216.087 39.7435 216.103 39.7374C219.876 37.7518 221.733 35.5677 223.193 32.0462C223.31 31.8067 223.24 31.7425 223.088 31.9702Z" fill="#263238"/>
<path d="M193.24 39.5904C193.24 39.5904 194.671 33.9548 200.02 31.8816C202.175 31.0406 205.194 24.6342 207.186 24.7626C209.411 24.9086 207.816 30.7078 205.107 33.8263C205.107 33.8263 208.722 39.5729 206.275 42.6914C205.743 43.3689 201.86 45.5122 200.89 45.3136L193.24 39.5904Z" fill="#EB9481"/>
<path d="M204.943 34.241C206.433 36.431 207.466 39.754 206.409 42.1717C206.401 42.1857 206.4 42.2021 206.404 42.2174C206.408 42.2328 206.419 42.2457 206.433 42.2535C206.447 42.2612 206.463 42.2631 206.478 42.2587C206.494 42.2544 206.507 42.2441 206.514 42.2301C208.004 39.7948 206.836 35.9346 205.393 34.0541C205.113 33.6979 204.558 33.6804 204.943 34.241Z" fill="#263238"/>
<path d="M174.079 107.936L173.168 112.749H143.384C143.384 112.749 148.056 88.3433 158.948 81.1017C164.402 77.4809 169.378 79.0694 171.796 83.134C172.409 84.1618 178.64 94.9308 178.465 100.07C178.301 104.649 174.079 107.936 174.079 107.936Z" fill="#EB9481"/>
<path d="M178.471 100.093C178.313 104.362 174.581 107.527 174.12 107.907L145.083 105.951C145.761 103.58 146.637 100.8 147.752 97.9324C150.637 98.0362 153.526 97.9054 156.39 97.5411C157.657 97.3017 160.477 93.0793 164.087 93.5115C167.696 93.9436 171.305 97.5411 171.305 97.5411C172.889 95.8454 174.943 94.6601 177.203 94.1364C177.974 96.3614 178.529 98.5047 178.471 100.093Z" fill="#263238"/>
<path d="M171.801 83.1281C171.647 82.8653 171.477 82.6118 171.293 82.3689C172.152 84.8567 173.775 90.3405 171.684 90.8836C169.389 91.4676 163.614 82.5149 161.827 79.6475C160.813 80.014 159.849 80.5023 158.953 81.1016C150.596 86.562 143.594 106.284 142.736 112.731H173.174L174.079 107.919C174.079 107.919 178.301 104.631 178.471 100.076C178.646 94.9307 172.414 84.1618 171.801 83.1281ZM160.454 95.0709C158.912 98.4055 155.403 100.993 153.067 100.677C151.157 100.414 150.263 97.8215 151.023 94.5103C152.331 88.8688 157.896 80.5527 160.431 80.7512C163.339 80.979 163.012 89.5171 160.454 95.0709Z" fill="#455A64"/>
<path d="M164.449 103.895C166.079 104.172 167.681 104.592 169.237 105.151C170.014 105.443 170.767 105.781 171.527 106.132C171.9 106.313 172.28 106.47 172.695 106.628C173.085 106.808 173.501 106.93 173.927 106.99C173.962 106.99 173.956 107.06 173.927 107.06C173.524 107.059 173.122 107.026 172.724 106.961C172.339 106.878 171.96 106.767 171.591 106.628C170.803 106.342 170.026 106.009 169.255 105.711C167.666 105.127 166.084 104.543 164.466 104.053C164.343 104.035 164.373 103.877 164.449 103.895Z" fill="#263238"/>
<path d="M160.314 105.39C161.665 105.3 163.021 105.3 164.373 105.39C165.05 105.443 165.716 105.542 166.388 105.659C166.703 105.717 167.024 105.781 167.34 105.852C167.655 105.922 168.029 106.062 168.379 106.132C168.42 106.132 168.414 106.208 168.379 106.202C168.046 106.144 167.702 106.161 167.369 106.126L166.358 106.033C165.687 105.974 165.015 105.922 164.338 105.852C162.995 105.711 161.651 105.595 160.302 105.513C160.226 105.519 160.244 105.39 160.314 105.39Z" fill="#263238"/>
<path d="M145.533 102.697C148.42 102.854 151.313 102.854 154.2 102.697C159.765 102.317 166.043 101.307 166.172 101.389C166.405 101.541 177.373 101.284 177.373 101.284L178.219 101.763L178.354 101.179L177.6 100.77C177.867 99.9321 177.927 99.0426 177.776 98.1767C177.519 96.8043 175.44 91.1687 175.381 91.0111C175.323 90.8534 171.725 82.7066 171.679 82.6599C171.632 82.6131 171.293 82.362 171.293 82.362L174.879 91.0578C173.696 91.3189 172.496 91.4926 171.287 91.5775C169.813 91.5068 168.343 91.3606 166.884 91.1395C166.884 91.1395 164.314 84.3885 163.906 83.6935C163.497 82.9986 162.107 79.5355 161.967 79.6055C161.834 79.6495 161.7 79.6865 161.564 79.7165C161.564 79.7165 163.666 84.9725 163.97 85.5098C164.274 86.0471 166.236 91.5308 166.236 91.5308C166.236 91.5308 166.656 96.1094 166.674 96.9328C166.563 98.1515 166.38 99.3625 166.125 100.559C166.125 100.559 159.876 101.476 154.357 101.949C149.755 102.352 145.726 102.329 145.667 102.329C145.609 102.329 145.533 102.697 145.533 102.697Z" fill="white"/>
<path d="M169.705 93.9435L169.967 99.5733C169.967 99.8711 169.821 100.105 169.623 100.116C169.424 100.128 169.255 99.9061 169.243 99.6083L169.021 94.9363L168.77 95.164C168.724 95.2161 168.659 95.2476 168.589 95.2517C168.517 95.2461 168.448 95.2193 168.391 95.1747C168.333 95.13 168.291 95.0694 168.268 95.0005C168.21 94.8846 168.187 94.754 168.203 94.6252C168.218 94.4964 168.271 94.3751 168.355 94.2764L169.126 93.5405C169.126 93.5405 169.126 93.5405 169.161 93.5405H169.196C169.196 93.5405 169.196 93.5405 169.226 93.5405C169.241 93.5347 169.257 93.5347 169.272 93.5405H169.36C169.36 93.5405 169.389 93.5405 169.401 93.5405H169.43C169.43 93.5405 169.459 93.5697 169.471 93.5697C169.481 93.572 169.491 93.572 169.5 93.5697V93.5989C169.5 93.5989 169.5 93.5989 169.529 93.634C169.559 93.669 169.529 93.634 169.529 93.6748L169.559 93.7099C169.559 93.7099 169.559 93.7391 169.559 93.7566C169.559 93.7741 169.559 93.7975 169.559 93.8033C169.56 93.8189 169.56 93.8345 169.559 93.85C169.55 93.8726 169.55 93.8976 169.559 93.9201L169.705 93.9435Z" fill="#263238"/>
<path d="M171.895 93.8388L172.164 99.4744C172.164 99.7664 172.018 100.006 171.819 100.017C171.62 100.029 171.451 99.8014 171.434 99.5036L171.217 94.8316L170.96 95.0652C170.939 95.0905 170.912 95.1109 170.882 95.125C170.852 95.1391 170.819 95.1466 170.785 95.1469C170.712 95.1438 170.642 95.1179 170.584 95.0729C170.527 95.0278 170.485 94.9659 170.464 94.8958C170.404 94.7806 170.38 94.6502 170.395 94.5213C170.409 94.3923 170.462 94.2706 170.546 94.1716L171.323 93.4416C171.323 93.4416 171.323 93.4416 171.352 93.4416H171.393C171.408 93.4367 171.424 93.4367 171.439 93.4416H171.539C171.545 93.4389 171.552 93.4375 171.559 93.4375C171.566 93.4375 171.573 93.4389 171.58 93.4416C171.58 93.4416 171.609 93.4416 171.62 93.4416L171.65 93.4708L171.679 93.5117C171.681 93.5233 171.681 93.5352 171.679 93.5468L171.708 93.5818C171.708 93.5818 171.708 93.5818 171.708 93.611C171.711 93.6264 171.711 93.6423 171.708 93.6577C171.71 93.6732 171.71 93.6889 171.708 93.7044C171.708 93.7044 171.708 93.7395 171.708 93.7512C171.704 93.7724 171.704 93.7942 171.708 93.8154L171.895 93.8388Z" fill="#263238"/>
<path d="M175.673 93.8611L174.301 99.5843C174.254 99.7829 174.132 99.9055 173.98 99.9114C173.931 99.9154 173.883 99.9053 173.84 99.8822C173.741 99.8026 173.667 99.6966 173.627 99.5766C173.587 99.4566 173.582 99.3276 173.612 99.2047L174.78 94.2407L173.092 94.3166C172.894 94.3166 172.718 94.083 172.707 93.7969C172.695 93.5107 172.847 93.2654 173.04 93.2596L175.288 93.1545C175.309 93.149 175.331 93.149 175.352 93.1545C175.403 93.1683 175.451 93.1921 175.492 93.2246V93.2537C175.496 93.2651 175.496 93.2775 175.492 93.2888L175.522 93.3238V93.3647C175.522 93.3803 175.522 93.3959 175.522 93.4114V93.4582C175.522 93.4582 175.522 93.4932 175.522 93.5049C175.519 93.5204 175.519 93.5361 175.522 93.5516C175.527 93.6216 175.527 93.6919 175.522 93.7618C175.679 93.8027 175.679 93.8319 175.673 93.8611Z" fill="#263238"/>
<path d="M164.051 80.0101C164.162 80.67 167.006 85.0967 169.996 85.1493C170.966 85.1493 171.287 79.8582 171.287 79.8582L171.398 79.4669L172.975 74.0591L166.79 69.4981L165.891 68.9141C165.891 68.9141 165.558 70.4208 165.161 72.3071C165.161 72.3947 165.126 72.4823 165.102 72.5757C165.079 72.6692 165.056 72.7801 165.038 72.8794C164.974 73.1597 164.91 73.4634 164.851 73.7321C164.793 74.0007 164.764 74.1642 164.729 74.392C164.694 74.6197 164.647 74.8475 164.6 75.0811C164.307 76.7099 164.123 78.3566 164.051 80.0101Z" fill="#EB9481"/>
<path d="M165.161 72.2954C165.618 73.8719 166.412 75.33 167.49 76.5684C168.567 77.8068 169.9 78.7959 171.398 79.4669L172.975 74.0591L166.79 69.4981L165.891 68.9141C165.891 68.9141 165.558 70.4091 165.161 72.2954Z" fill="#263238"/>
<path d="M177.565 61.3506C182.406 69.9821 177.781 73.854 175.918 74.8935C174.23 75.8396 168.326 78.8472 162.65 70.7646C156.973 62.6821 159.426 57.7006 163.181 55.3354C166.936 52.9702 172.724 52.7249 177.565 61.3506Z" fill="#EB9481"/>
<path d="M175.2 60.6446C174.989 60.7267 174.772 60.795 174.552 60.849C174.332 60.9539 174.083 60.9827 173.845 60.9307C173.774 60.9005 173.714 60.8474 173.676 60.7798C173.638 60.7121 173.624 60.6338 173.635 60.557C173.682 60.4112 173.767 60.2804 173.881 60.1779C173.995 60.0753 174.133 60.0046 174.283 59.973C174.58 59.8593 174.909 59.8593 175.206 59.973C175.269 60.0042 175.321 60.0525 175.358 60.1122C175.394 60.1719 175.413 60.2406 175.413 60.3106C175.412 60.3806 175.392 60.449 175.354 60.508C175.317 60.5671 175.263 60.6144 175.2 60.6446Z" fill="#263238"/>
<path d="M169.553 63.8617C169.738 63.7286 169.914 63.5822 170.078 63.4237C170.287 63.2987 170.447 63.1075 170.534 62.8806C170.548 62.8035 170.535 62.7239 170.498 62.6549C170.461 62.5859 170.402 62.5316 170.329 62.501C170.181 62.4569 170.022 62.4542 169.872 62.4933C169.722 62.5324 169.585 62.6118 169.477 62.7229C169.216 62.9081 169.036 63.186 168.975 63.4997C168.965 63.5711 168.976 63.6438 169.006 63.7092C169.036 63.7745 169.085 63.8297 169.146 63.8679C169.207 63.9062 169.278 63.926 169.35 63.9249C169.423 63.9238 169.493 63.9019 169.553 63.8617Z" fill="#263238"/>
<path d="M174.283 69.6834C174.49 69.7958 174.729 69.833 174.96 69.7885C175.188 69.6791 175.388 69.5193 175.544 69.3213C175.544 69.3213 175.591 69.3213 175.585 69.3213C175.56 69.4804 175.492 69.6298 175.389 69.754C175.287 69.8782 175.153 69.9728 175.001 70.0279C174.862 70.0549 174.717 70.0399 174.586 69.9848C174.455 69.9297 174.344 69.837 174.265 69.7184C174.207 69.7067 174.248 69.6717 174.283 69.6834Z" fill="#263238"/>
<path d="M175.556 66.1857C175.556 66.1857 176.169 66.9974 176.397 67.4121C176.397 67.4471 176.333 67.523 176.193 67.6106C175.871 67.875 175.483 68.0454 175.071 68.1031C174.659 68.1608 174.239 68.1035 173.857 67.9377C173.849 67.9311 173.843 67.9221 173.839 67.912C173.836 67.9019 173.836 67.8911 173.84 67.881C173.843 67.8709 173.849 67.862 173.857 67.8554C173.865 67.8489 173.876 67.845 173.886 67.8442C174.615 67.9123 175.347 67.7422 175.971 67.3595C175.936 67.231 174.879 66.0046 174.943 65.9637C175.28 65.8134 175.635 65.7092 176 65.6542C174.78 63.9022 173.29 62.4072 172.099 60.6727C172.089 60.6601 172.084 60.6441 172.085 60.628C172.086 60.6119 172.093 60.5968 172.105 60.5857C172.117 60.5747 172.133 60.5685 172.149 60.5684C172.165 60.5682 172.181 60.5742 172.192 60.5851C173.839 62.1621 175.324 63.8993 176.625 65.771C176.789 65.993 175.784 66.1623 175.556 66.1857Z" fill="#263238"/>
<path d="M175.708 67.7451C175.642 68.13 175.48 68.4917 175.235 68.7963C175.096 68.9572 174.91 69.0713 174.704 69.1234C174.254 69.2285 174.05 68.8722 173.956 68.5394C173.905 68.349 173.879 68.1526 173.88 67.9554C174.496 68.0841 175.138 68.0104 175.708 67.7451Z" fill="#263238"/>
<path d="M175.235 68.7856C175.096 68.9464 174.91 69.0606 174.704 69.1126C174.254 69.2177 174.05 68.8615 173.956 68.5286C174.168 68.4232 174.408 68.3913 174.64 68.4378C174.871 68.4844 175.081 68.6067 175.235 68.7856Z" fill="#FF9CBD"/>
<path d="M170.779 65.8463C170.778 65.9288 170.76 66.0102 170.727 66.0857C170.705 66.1487 170.67 66.206 170.624 66.2535C170.577 66.301 170.52 66.3375 170.458 66.3602C170.073 66.5121 169.716 66.2084 169.5 65.8463C169.5 65.8463 169.5 65.7996 169.5 65.8113C169.751 65.9222 170.032 66.0273 170.224 65.8872C170.346 65.7633 170.429 65.6072 170.464 65.4375C170.555 65.5838 170.661 65.7208 170.779 65.8463Z" fill="#263238"/>
<path d="M170.528 65.8479C170.455 65.6625 170.434 65.4602 170.469 65.2639C170.493 65.1601 170.537 65.0621 170.599 64.9758C170.661 64.8895 170.74 64.8166 170.831 64.7617C170.928 64.7129 171.035 64.6875 171.144 64.6875C171.252 64.6875 171.359 64.7129 171.456 64.7617C171.628 64.8424 171.778 64.9624 171.894 65.1121C171.964 65.2004 172.026 65.2942 172.081 65.3924C172.202 65.5953 172.273 65.8231 172.291 66.0582C172.214 65.9076 172.122 65.7649 172.017 65.6319C171.919 65.5121 171.814 65.399 171.702 65.2931C171.474 65.0829 171.199 64.9544 171.001 65.0829C170.889 65.1566 170.806 65.2664 170.766 65.394C170.725 65.5216 170.73 65.6591 170.779 65.7837C170.853 66.1009 170.959 66.41 171.094 66.7064C170.84 66.4694 170.646 66.1751 170.528 65.8479Z" fill="#263238"/>
<path d="M176.099 62.5351C176.171 62.5744 176.247 62.6039 176.327 62.6227C176.392 62.6379 176.46 62.639 176.525 62.6259C176.591 62.6128 176.652 62.5859 176.707 62.5468C176.849 62.4079 176.937 62.2224 176.954 62.024C176.972 61.8256 176.917 61.6277 176.8 61.4664C176.8 61.4664 176.765 61.4255 176.759 61.4664C176.712 61.7409 176.648 62.0504 176.426 62.1147C176.256 62.1509 176.079 62.1346 175.918 62.0679C175.996 62.2162 176.057 62.3729 176.099 62.5351Z" fill="#263238"/>
<path d="M176.228 62.3317C176.113 62.1789 175.96 62.0583 175.784 61.9813C175.685 61.9441 175.578 61.9275 175.472 61.9325C175.365 61.9375 175.261 61.9641 175.165 62.0105C175.07 62.0618 174.988 62.1343 174.925 62.2224C174.862 62.3105 174.821 62.4118 174.803 62.5186C174.775 62.7147 174.793 62.9147 174.856 63.1026C174.897 63.2077 174.943 63.3128 174.99 63.4121C175.097 63.6233 175.251 63.8072 175.44 63.9494C175.351 63.8029 175.28 63.646 175.23 63.4822C175.179 63.3375 175.14 63.1891 175.113 63.0383C175.066 62.7288 175.113 62.4543 175.323 62.3375C175.446 62.2848 175.583 62.2758 175.711 62.3119C175.84 62.3481 175.952 62.4272 176.03 62.5361C176.25 62.7705 176.446 63.0268 176.614 63.3011C176.565 62.9517 176.433 62.6191 176.228 62.3317Z" fill="#263238"/>
<path d="M166.872 56.0662C167.463 56.7174 167.843 57.5315 167.964 58.4022C168.058 60.8784 165.401 61.6084 164.998 62.8172C164.595 64.0261 165.681 65.3343 165.377 66.4322C164.951 67.9506 163.917 67.5652 164.122 68.3302C164.326 69.0952 165.009 71.513 164.285 72.2488C163.561 72.9847 151.945 60.5688 163.584 55.0676C163.584 55.0676 164.817 53.5024 167.883 53.555C172.28 53.6309 175.2 57.8182 175.2 57.8182C174.764 57.9354 174.309 57.9593 173.863 57.8883C173.063 57.6956 172.596 57.4736 172.029 57.3685C171.136 57.2108 170.931 57.7656 170.02 57.6313C168.613 57.4152 166.872 56.0662 166.872 56.0662Z" fill="#263238"/>
<path d="M166.51 55.6104C166.986 56.084 167.405 56.6111 167.76 57.1813C168.139 57.7178 168.363 58.3481 168.408 59.0034C168.363 59.6602 168.079 60.2776 167.608 60.7379C167.17 61.2226 166.603 61.5905 166.142 62.1336C165.903 62.4109 165.743 62.748 165.681 63.1089C165.652 63.464 165.694 63.8211 165.803 64.1601C166.043 64.7664 166.112 65.4271 166.002 66.0698C165.921 66.3797 165.776 66.6687 165.574 66.9175C165.373 67.1663 165.12 67.3691 164.834 67.5123C164.25 67.8159 163.537 67.9853 163.111 68.5343C163.584 68.0203 164.279 67.9503 164.898 67.6524C165.223 67.5151 165.513 67.3078 165.748 67.0453C165.983 66.7828 166.158 66.4717 166.259 66.134C166.412 65.4508 166.359 64.7374 166.107 64.0842C166.013 63.7822 165.978 63.4651 166.002 63.1498C166.063 62.8459 166.204 62.5637 166.411 62.3322C166.819 61.8358 167.386 61.4504 167.847 60.9306C168.086 60.6727 168.283 60.3791 168.431 60.0604C168.594 59.7408 168.672 59.3851 168.659 59.0268C168.586 58.3334 168.321 57.6742 167.894 57.1229C167.495 56.5648 167.031 56.0569 166.51 55.6104Z" fill="#263238"/>
<path d="M167.024 56.0137C167.424 56.502 167.887 56.9342 168.403 57.2985C168.926 57.6899 169.554 57.9175 170.207 57.9526C170.525 57.949 170.842 57.9138 171.153 57.8474C171.434 57.7985 171.724 57.8288 171.988 57.935C172.257 58.0998 172.54 58.2386 172.835 58.3497C173.143 58.4357 173.467 58.4497 173.781 58.3906C173.475 58.387 173.173 58.3215 172.894 58.1978C172.615 58.0655 172.351 57.9051 172.105 57.719C171.802 57.5603 171.457 57.501 171.118 57.5496C170.822 57.606 170.521 57.6353 170.219 57.6372C169.619 57.5896 169.042 57.3885 168.543 57.0532C168.015 56.739 167.508 56.3918 167.024 56.0137Z" fill="#263238"/>
<path d="M164.63 70.4022C164.63 70.4022 161.488 68.3231 160.472 69.5554C159.456 70.7876 162.604 74.35 164.361 74.315C164.587 74.326 164.812 74.2914 165.023 74.2131C165.234 74.1349 165.428 74.0146 165.591 73.8597C165.755 73.7047 165.886 73.5182 165.975 73.3114C166.065 73.1046 166.112 72.8818 166.113 72.6564L164.63 70.4022Z" fill="#EB9481"/>
<path d="M161.4 70.5542C161.371 70.5542 161.4 70.6009 161.4 70.6009C162.644 70.6009 163.602 71.3835 164.408 72.2536C164.303 72.1707 164.181 72.1116 164.051 72.0803C163.922 72.049 163.786 72.0464 163.655 72.0725C163.524 72.0986 163.4 72.1528 163.292 72.2315C163.184 72.3102 163.095 72.4114 163.03 72.5281C163.03 72.5631 163.03 72.5923 163.082 72.5748C163.245 72.4439 163.445 72.366 163.653 72.3514C163.862 72.3368 164.07 72.3862 164.25 72.4931C164.553 72.6805 164.835 72.8998 165.091 73.1471C165.179 73.2231 165.331 73.1004 165.249 73.007C164.741 71.6054 162.936 70.1103 161.4 70.5542Z" fill="#263238"/>
<path d="M178.704 63.7617C179.325 65.0064 179.702 66.3583 179.814 67.7446C179.872 68.4424 179.843 69.1448 179.726 69.8353C179.669 70.1823 179.591 70.5255 179.493 70.8632C179.382 71.1996 179.251 71.5292 179.101 71.8501C178.793 72.4841 178.4 73.0734 177.933 73.6021C177.455 74.1148 176.911 74.5625 176.316 74.9336C175.128 75.6634 173.778 76.0887 172.385 76.1717C173.059 76.0495 173.717 75.8537 174.348 75.5877C175.604 75.0971 176.73 74.3214 177.636 73.3218C178.076 72.8221 178.446 72.264 178.734 71.6632C179.311 70.4492 179.576 69.1103 179.504 67.768C179.49 67.0909 179.413 66.4165 179.277 65.7532C179.138 65.0754 178.947 64.4095 178.704 63.7617Z" fill="#263238"/>
<path d="M156.956 88.8166C156.816 88.5888 156.676 88.3611 156.53 88.1333C157.441 89.056 158.387 89.932 159.368 90.7788C159.368 90.7788 159.426 90.7788 159.403 90.7438C158.439 89.6342 157.458 88.5479 156.436 87.4909C155.951 86.9945 155.484 86.4806 154.982 85.9959C154.48 85.5111 153.814 84.9388 153.3 84.3665C153.236 84.2964 153.125 84.3665 153.189 84.4541C153.697 84.9972 154.153 85.5871 154.643 86.1535C155.134 86.72 155.519 87.1113 155.975 87.5726C156.061 87.7527 156.156 87.9282 156.261 88.0983C156.436 88.3727 156.611 88.6414 156.804 88.9042C157.189 89.4239 157.598 89.932 157.972 90.4401C157.633 89.9379 157.289 89.3539 156.956 88.8166Z" fill="#263238"/>
<path d="M160.846 80.6652C156.378 70.7372 152.635 63.5716 145.936 51.8273C142.432 45.7128 138.029 38.3953 136.47 35.7556C134.42 32.3042 119.761 45.6428 121.42 47.8444C122.494 49.2811 126.057 53.918 132.346 61.3699C139.518 69.8554 145.592 76.916 154.1 85.2555C160.524 91.5452 163.801 87.2177 160.846 80.6652Z" fill="#EB9481"/>
<path d="M125.046 51.1712C121.367 49.7462 110.218 41.8973 108.367 39.8591C106.516 37.821 101.616 31.5838 103.029 30.007C104.443 28.4302 106.025 30.1414 106.025 30.1414C106.025 30.1414 104.168 26.9235 105.943 25.7205C107.357 24.7627 109.704 27.0578 109.704 27.0578C109.704 27.0578 107.859 23.4254 109.769 22.4559C111.521 21.5741 113.424 24.6868 113.424 24.6868C113.424 24.6868 112.186 21.4923 114.008 20.9609C116.222 20.3302 118.365 25.8665 120.578 27.9689C121.081 28.4478 135.178 36.9625 135.178 36.9625L125.046 51.1712Z" fill="#EB9481"/>
<path d="M113.501 24.5296C115.533 28.5125 116.491 30.101 119.925 32.6531C119.989 32.6998 119.925 32.8107 119.855 32.764C116.24 30.574 114.972 28.7753 113.279 24.588C113.22 24.3895 113.407 24.3369 113.501 24.5296Z" fill="#263238"/>
<path d="M109.751 27.0536C111.766 31.1416 113.314 32.6775 116.759 35.615C116.806 35.6559 116.759 35.7435 116.689 35.7085C113.092 33.1038 111.106 31.4277 109.629 27.0886C109.535 26.8959 109.658 26.8667 109.751 27.0536Z" fill="#263238"/>
<path d="M106.195 30.2874C108.431 34.0951 110.002 35.9697 113.693 38.3992C113.709 38.4113 113.72 38.4287 113.724 38.4483C113.728 38.4678 113.724 38.4881 113.714 38.5053C113.704 38.5226 113.688 38.5355 113.669 38.5418C113.65 38.548 113.63 38.5472 113.611 38.5393C109.605 36.4311 107.631 34.1068 106.084 30.3633C105.978 30.1122 106.054 30.048 106.195 30.2874Z" fill="#263238"/>
<path d="M137.906 38.3814C137.906 38.3814 136.387 32.3954 130.711 30.2054C128.416 29.3177 125.209 22.5141 123.119 22.6484C120.783 22.8061 122.447 28.9615 125.326 32.2728C125.326 32.2728 121.484 38.3697 124.1 41.6868C124.684 42.4052 128.772 44.6769 129.811 44.4725L137.906 38.3814Z" fill="#EB9481"/>
<path d="M125.478 32.7049C123.901 35.0409 122.797 38.5449 123.925 41.1204C123.933 41.1359 123.935 41.1541 123.93 41.1711C123.925 41.1881 123.914 41.2024 123.898 41.2109C123.883 41.2194 123.865 41.2214 123.848 41.2165C123.831 41.2116 123.816 41.2001 123.808 41.1846C122.231 38.5975 123.469 34.4978 125.005 32.5064C125.297 32.1209 125.887 32.1209 125.478 32.7049Z" fill="#263238"/>
<path d="M173.191 114.051C166.113 110.682 145.837 103.796 131.984 100.45C119.586 97.4658 106.773 101.77 94.3862 105.928C86.5547 108.556 79.1613 111.038 71.9898 111.698C43.8468 114.291 34.6547 94.2947 34.0298 93.4421L39.2274 94.7386L40.1443 88.9336C40.6699 89.6461 47.5494 106.325 71.3007 104.118C77.5903 103.534 84.575 101.198 91.9743 98.7098C104.758 94.4174 119.247 89.5526 133.765 93.045C148.126 96.4964 170.16 103.358 175.317 106.728L173.191 114.051Z" fill="#FF3489"/>
<path d="M143.81 109.426C140.89 109.543 137.97 109.601 135.05 109.648C132.13 109.694 129.21 109.694 126.29 109.718C123.37 109.741 120.45 109.718 117.53 109.648L113.144 109.566C111.684 109.519 110.224 109.49 108.764 109.426C110.224 109.362 111.684 109.332 113.144 109.28L117.53 109.198C120.45 109.151 123.37 109.157 126.29 109.134C129.21 109.11 132.13 109.134 135.05 109.204C137.97 109.274 140.884 109.303 143.81 109.426Z" fill="#263238"/>
<path d="M188.93 40.2037C186.01 40.3205 183.09 40.3789 180.17 40.4256C177.25 40.4723 174.33 40.4665 171.41 40.4898C168.49 40.5132 165.57 40.4898 162.65 40.4256L158.265 40.3438C156.805 40.2971 155.345 40.2679 153.879 40.2037C155.345 40.1336 156.799 40.1044 158.265 40.0577L162.65 39.9759C165.57 39.9292 168.49 39.9292 171.41 39.9117C174.33 39.8942 177.25 39.9117 180.17 39.9759C183.09 40.0402 186.005 40.081 188.93 40.2037Z" fill="#263238"/>
<path d="M193.532 43.742C191.617 43.8646 189.707 43.9172 187.791 43.9639C185.876 44.0106 183.966 44.0281 182.056 44.034C180.147 44.0398 178.225 44.034 176.316 43.9697L173.448 43.888C172.496 43.8354 171.539 43.812 170.581 43.742C171.539 43.6777 172.496 43.6485 173.448 43.6018L176.322 43.52C178.231 43.4675 180.147 43.4558 182.062 43.45C183.978 43.4441 185.887 43.45 187.797 43.52C189.707 43.5901 191.617 43.6252 193.532 43.742Z" fill="#263238"/>
<path d="M68.404 151.958C65.8402 152.075 63.2706 152.133 60.7068 152.18C58.1431 152.227 55.5735 152.227 53.0097 152.25C50.446 152.273 47.8764 152.25 45.3068 152.18L41.464 152.098C40.1792 152.051 38.8944 152.022 37.6155 151.958C38.8944 151.894 40.1792 151.865 41.464 151.812L45.3126 151.73C47.8822 151.683 50.446 151.689 53.0156 151.666C55.5852 151.643 58.1489 151.666 60.7127 151.736C63.2764 151.806 65.8402 151.841 68.404 151.958Z" fill="#263238"/>
<path d="M85.3692 146.696C82.7996 146.813 80.2359 146.872 77.6663 146.918C75.0967 146.965 72.5329 146.965 69.9692 146.988C67.4054 147.012 64.8358 146.988 62.2662 146.918L58.4176 146.837C57.1328 146.79 55.8539 146.761 54.5691 146.696C55.8539 146.626 57.1328 146.603 58.4176 146.55L62.2662 146.469C64.8358 146.422 67.3996 146.428 69.9692 146.404C72.5388 146.381 75.1025 146.404 77.6663 146.469C80.2301 146.533 82.7996 146.585 85.3692 146.696Z" fill="#263238"/>
<path d="M149.072 116.941C144.984 117.064 140.896 117.117 136.808 117.163L124.544 117.233L112.28 117.169L106.16 117.087C104.116 117.035 102.072 117.011 100.033 116.941C102.077 116.877 104.121 116.848 106.16 116.801L112.28 116.719L124.544 116.649L136.808 116.719C140.913 116.766 144.99 116.801 149.072 116.941Z" fill="#263238"/>
<path d="M124.024 112.274C120.52 112.391 116.975 112.45 113.454 112.496C109.932 112.543 106.405 112.537 102.883 112.566C99.3618 112.596 95.8344 112.566 92.3071 112.496L87.0219 112.415C85.2699 112.368 83.5179 112.339 81.7659 112.274C83.5179 112.204 85.2699 112.175 87.0219 112.128L92.3071 112.047C95.8111 112 99.356 112.006 102.883 111.982C106.411 111.959 109.926 111.982 113.454 112.047C116.981 112.111 120.503 112.128 124.024 112.274Z" fill="#263238"/>
</svg>
