<svg width="156" height="169" viewBox="0 0 156 169" fill="none" xmlns="http://www.w3.org/2000/svg">
<g clip-path="url(#clip0_1845_5136)">
<path d="M141.125 146.583V32.119C141.125 25.937 136.102 20.9141 129.92 20.9141H11.5916C5.40959 20.9141 0.338379 25.937 0.338379 32.119V146.583C0.338379 152.765 5.36129 157.788 11.5433 157.837H129.872C136.102 157.837 141.125 152.765 141.125 146.583Z" fill="black" stroke="black" stroke-width="0.724458"/>
<path d="M155.614 146.583V32.119C155.614 25.937 150.591 20.9141 144.409 20.9141H26.0804C19.8984 20.9141 14.8755 25.937 14.8755 32.119V146.583C14.8755 152.765 19.8984 157.788 26.0804 157.837H144.409C150.591 157.837 155.614 152.765 155.614 146.583Z" fill="#E62074" stroke="black" stroke-width="0.724458"/>
<path d="M141.125 136.441V42.2611C141.125 38.2041 137.84 34.9199 133.783 34.9199H36.7059C32.649 34.9199 29.3647 38.2041 29.3647 42.2611V136.441C29.3647 140.498 32.649 143.782 36.7059 143.782H133.783C137.84 143.83 141.125 140.498 141.125 136.441Z" fill="black" stroke="black" stroke-width="0.724458"/>
<path fill-rule="evenodd" clip-rule="evenodd" d="M133.783 136.44C133.783 140.69 130.306 144.168 126.056 144.168H36.7061C32.4559 144.168 28.9785 140.69 28.9785 136.44V42.2608C28.9785 38.0106 32.4559 34.5332 36.7061 34.5332H126.056C130.306 34.5332 133.783 38.0106 133.783 42.2608V136.44Z" fill="#E62074"/>
<path d="M126.056 144.892C130.741 144.892 134.508 141.125 134.508 136.44H133.059C133.059 140.304 129.92 143.443 126.056 143.443V144.892ZM36.7059 144.892H126.056V143.443H36.7059V144.892ZM28.2539 136.44C28.2539 141.125 32.0211 144.892 36.7059 144.892V143.443C32.8421 143.443 29.7028 140.304 29.7028 136.44H28.2539ZM28.2539 42.2606V136.44H29.7028V42.2606H28.2539ZM36.7059 33.8086C32.0211 33.8086 28.2539 37.5758 28.2539 42.2606H29.7028C29.7028 38.3968 32.8421 35.2575 36.7059 35.2575V33.8086ZM126.056 33.8086H36.7059V35.2575H126.056V33.8086ZM134.508 42.2606C134.508 37.5758 130.741 33.8086 126.056 33.8086V35.2575C129.92 35.2575 133.059 38.3968 133.059 42.2606H134.508ZM134.508 136.44V42.2606H133.059V136.44H134.508Z" fill="black"/>
<path fill-rule="evenodd" clip-rule="evenodd" d="M123.641 125.815C123.641 130.065 120.163 133.542 115.913 133.542H46.8482C42.598 133.542 39.1206 130.065 39.1206 125.815V52.8858C39.1206 48.6356 42.598 45.1582 46.8482 45.1582H115.913C120.163 45.1582 123.641 48.6356 123.641 52.8858V125.815Z" fill="#F5A6C7"/>
<path d="M115.914 134.266C120.598 134.266 124.366 130.499 124.366 125.814H122.917C122.917 129.678 119.777 132.817 115.914 132.817V134.266ZM46.8485 134.266H115.914V132.817H46.8485V134.266ZM38.3965 125.814C38.3965 130.499 42.1637 134.266 46.8485 134.266V132.817C42.9847 132.817 39.8454 129.678 39.8454 125.814H38.3965ZM38.3965 52.8856V125.814H39.8454V52.8856H38.3965ZM46.8485 44.4336C42.1637 44.4336 38.3965 48.2008 38.3965 52.8856H39.8454C39.8454 49.0218 42.9847 45.8825 46.8485 45.8825V44.4336ZM115.914 44.4336H46.8485V45.8825H115.914V44.4336ZM124.366 52.8856C124.366 48.2008 120.598 44.4336 115.914 44.4336V45.8825C119.777 45.8825 122.917 49.0218 122.917 52.8856H124.366ZM124.366 125.814V52.8856H122.917V125.814H124.366Z" fill="black"/>
<path fill-rule="evenodd" clip-rule="evenodd" d="M140.11 48.2009C137.116 45.2065 132.189 45.2065 129.195 48.2009L84.858 92.5377L61.8202 69.5C58.8258 66.5055 53.8994 66.5055 50.905 69.5L48.1521 72.2529C45.1576 75.2473 45.1576 80.1736 48.1521 83.1681L79.1106 114.127C80.0282 115.044 81.1874 115.72 82.3465 116.058C85.0511 117.024 88.2388 116.445 90.4121 114.223L142.815 61.8207C145.809 58.8263 145.809 53.9 142.815 50.9055L140.11 48.2009Z" fill="black"/>
<path d="M84.8097 92.5369L84.2785 93.0681L84.8097 93.5994L85.341 93.0681L84.8097 92.5369ZM129.678 48.7313C132.431 45.9784 136.826 45.9784 139.579 48.7313L140.593 47.7171C137.309 44.4329 131.948 44.4329 128.664 47.7171L129.678 48.7313ZM85.341 93.0681L129.678 48.7313L128.664 47.7171L84.3268 92.0539L85.341 93.0681ZM61.289 70.0304L84.3268 93.0681L85.341 92.0539L62.3032 69.0161L61.289 70.0304ZM51.3881 70.0304C54.141 67.2774 58.536 67.2774 61.289 70.0304L62.3032 69.0161C59.019 65.7319 53.658 65.7319 50.3738 69.0161L51.3881 70.0304ZM48.6351 72.7833L51.3881 70.0304L50.3738 69.0161L47.6209 71.7691L48.6351 72.7833ZM48.6351 82.6842C45.8822 79.9313 45.8822 75.5363 48.6351 72.7833L47.6209 71.7691C44.3367 75.0533 44.3367 80.4143 47.6209 83.6985L48.6351 82.6842ZM79.6419 113.643L48.6834 82.6842L47.6692 83.6985L78.6277 114.657L79.6419 113.643ZM82.5881 115.381C81.5255 115.043 80.5113 114.464 79.6419 113.643L78.6277 114.657C79.6419 115.671 80.8977 116.396 82.1534 116.782L82.5881 115.381ZM89.9292 113.788C87.949 115.768 85.0995 116.299 82.6364 115.43L82.1534 116.782C85.1478 117.845 88.5769 117.168 90.9918 114.802L89.9292 113.788ZM142.332 61.3852L89.9292 113.788L90.9435 114.802L143.346 62.3994L142.332 61.3852ZM142.332 51.4842C145.085 54.2372 145.085 58.6322 142.332 61.3852L143.346 62.3994C146.63 59.1152 146.63 53.7542 143.346 50.47L142.332 51.4842ZM139.579 48.7313L142.332 51.4842L143.346 50.47L140.593 47.7171L139.579 48.7313Z" fill="black"/>
<path fill-rule="evenodd" clip-rule="evenodd" d="M145.085 47.4294C142.091 44.435 137.164 44.435 134.17 47.4294L89.8331 91.7663L66.7953 68.7285C63.8009 65.7341 58.8745 65.7341 55.8801 68.7285L53.1272 71.4814C50.1327 74.4759 50.1327 79.4022 53.1272 82.3966L84.0857 113.355C85.0033 114.273 86.1625 114.949 87.3216 115.287C90.0262 116.253 93.2139 115.673 95.3872 113.452L147.79 61.0492C150.784 58.0548 150.784 53.1285 147.79 50.1341L145.085 47.4294Z" fill="white"/>
<path d="M89.8327 91.7649L89.3014 92.2961L89.8327 92.8274L90.3639 92.2961L89.8327 91.7649ZM134.652 47.911C137.405 45.1581 141.8 45.1581 144.553 47.911L145.568 46.8968C142.283 43.6125 136.922 43.6125 133.638 46.8968L134.652 47.911ZM90.3639 92.2478L134.701 47.911L133.687 46.8968L89.3497 91.2336L90.3639 92.2478ZM66.3119 69.2101L89.3497 92.2478L90.3639 91.2336L67.3262 68.1958L66.3119 69.2101ZM56.3627 69.2101C59.1156 66.4571 63.5107 66.4571 66.2636 69.2101L67.2779 68.1958C63.9937 64.9116 58.6327 64.9116 55.3485 68.1958L56.3627 69.2101ZM53.6581 71.963L56.411 69.2101L55.3968 68.1958L52.6438 70.9488L53.6581 71.963ZM53.6581 81.8639C50.9051 79.111 50.9051 74.7159 53.6581 71.963L52.6438 70.9488C49.3596 74.233 49.3596 79.594 52.6438 82.8782L53.6581 81.8639ZM84.6166 112.822L53.6581 81.8639L52.6438 82.8782L83.6023 113.837L84.6166 112.822ZM87.5627 114.609C86.5002 114.271 85.4859 113.692 84.6166 112.871L83.6023 113.885C84.6166 114.899 85.8723 115.624 87.128 116.01L87.5627 114.609ZM94.9039 112.967C92.9237 114.948 90.0742 115.479 87.611 114.609L87.128 115.962C90.1225 117.024 93.5516 116.348 95.9664 113.982L94.9039 112.967ZM147.306 60.5649L94.9039 112.967L95.9181 113.982L148.321 61.5791L147.306 60.5649ZM147.306 50.6639C150.059 53.4169 150.059 57.8119 147.306 60.5649L148.321 61.5791C151.605 58.2949 151.605 52.9339 148.321 49.6497L147.306 50.6639ZM144.553 47.911L147.306 50.6639L148.321 49.6497L145.568 46.8968L144.553 47.911Z" fill="black"/>
<path d="M118.232 137.792C118.28 137.647 118.425 137.502 118.57 137.502C118.715 137.502 118.908 137.599 118.908 137.792L121.419 149.963L133.832 152.474C133.977 152.522 134.121 152.667 134.121 152.812C134.121 152.957 133.977 153.15 133.832 153.15L121.419 155.662L118.908 167.833C118.86 167.977 118.715 168.122 118.57 168.122C118.425 168.122 118.232 168.026 118.232 167.833L115.72 155.662L103.308 153.15C103.163 153.102 103.018 152.957 103.018 152.812C103.018 152.667 103.163 152.474 103.308 152.474L115.72 149.963L118.232 137.792Z" fill="white" stroke="black" stroke-width="0.724458" stroke-linejoin="round"/>
<path d="M50.1326 0.627674C50.1809 0.482782 50.3258 0.337891 50.4706 0.337891C50.6155 0.337891 50.8087 0.434485 50.8087 0.627674L53.3202 12.7986L65.7326 15.31C65.9258 15.3583 66.0223 15.5032 66.0223 15.6481C66.0223 15.793 65.8775 15.9862 65.7326 15.9862L53.3202 18.4976L50.8087 30.6685C50.7604 30.8134 50.6155 30.9583 50.4706 30.9583C50.3258 30.9583 50.1326 30.8617 50.1326 30.6685L47.6211 18.4976L35.2087 15.9862C35.0155 15.9379 34.9189 15.793 34.9189 15.6481C34.9189 15.5032 35.0638 15.31 35.2087 15.31L47.6211 12.7986L50.1326 0.627674Z" fill="white" stroke="black" stroke-width="0.724458" stroke-linejoin="round"/>
</g>
<defs>
<clipPath id="clip0_1845_5136">
<rect width="156" height="168.557" fill="white"/>
</clipPath>
</defs>
</svg>
