<svg width="320" height="266" viewBox="0 0 320 266" fill="none" xmlns="http://www.w3.org/2000/svg">
<g clip-path="url(#clip0_7008_3959)">
<path d="M188.907 241.335C180.044 240.345 178.441 232.911 178.163 229.76L176.967 216.197L177.409 217.434C178.344 220.045 180.941 221.534 183.451 222.973L183.907 223.235C187.466 225.288 189.283 227.456 189.455 229.858L191.059 229.602L191.12 229.684C193.064 232.282 193.529 237.358 191.122 240.773L190.845 240.578C193.143 237.319 192.732 232.495 190.91 229.968L189.134 230.252L189.127 230.061C189.044 227.709 187.282 225.572 183.738 223.528L183.283 223.266C181.125 222.029 178.713 220.646 177.506 218.462L178.5 229.731C178.77 232.798 180.33 240.037 188.945 240.998L188.907 241.335Z" fill="#3CACFB"/>
<path d="M203.352 248.534C199.207 248.534 194.794 246.749 191.118 243.558C187.194 240.153 184.526 235.69 182.639 232.183L182.936 232.023C184.809 235.505 187.457 239.934 191.339 243.303C195.199 246.652 199.876 248.428 204.171 248.172L204.191 248.51C203.913 248.526 203.633 248.534 203.352 248.534ZM100.155 230.191C94.2806 230.191 82.7933 227.895 79.0618 225.538C74.9258 222.926 72.3294 218.978 72.1168 214.978C72.1028 214.673 72.0954 214.369 72.0945 214.064C72.1302 213.261 72.0363 212.458 71.8164 211.685C71.1192 209.686 68.8797 208.708 66.9038 207.846L66.5267 207.681C65.1374 207.07 61.9297 205.35 62.1493 202.583C62.184 202.253 62.2441 201.927 62.3291 201.606C62.4568 201.181 62.514 200.737 62.4984 200.293C62.4045 199.279 61.5792 198.514 60.781 197.773L60.6553 197.657C57.2148 194.436 54.8427 190.238 53.8577 185.629C53.5991 184.404 53.4116 183.09 53.2308 181.819C52.7283 178.293 52.2116 174.67 50.1295 172.252C49.5568 171.788 48.9975 171.306 48.4517 170.805L48.6565 170.538C49.2984 170.943 49.877 171.441 50.3739 172.015C56.4189 176.899 63.9276 179.747 71.2095 182.509C73.5818 183.408 76.0346 184.339 78.3954 185.324C83.0299 187.259 89.9691 192.084 95.5444 199.823C99.7731 205.692 104.609 215.254 103.634 227.474L103.297 227.447C104.264 215.329 99.4656 205.844 95.27 200.02C89.736 192.338 82.8575 187.553 78.265 185.636C75.9095 184.653 73.4595 183.723 71.0895 182.825C64.1651 180.199 57.037 177.495 51.1308 173.035C52.6644 175.45 53.1203 178.648 53.5654 181.771C53.7455 183.037 53.932 184.345 54.1882 185.559C55.1588 190.101 57.4961 194.236 60.8861 197.41L61.0108 197.526C61.8161 198.273 62.7289 199.12 62.835 200.262C62.8545 200.743 62.7946 201.223 62.6579 201.685C62.5773 201.988 62.5199 202.297 62.4863 202.61C62.2835 205.161 65.3395 206.79 66.6628 207.372L67.039 207.536C69.0784 208.427 71.3899 209.436 72.1351 211.574C72.3687 212.381 72.4691 213.221 72.4325 214.06C72.4355 214.361 72.4386 214.662 72.4544 214.96C72.6613 218.851 75.1985 222.699 79.2423 225.253C82.9319 227.583 94.3221 229.853 100.155 229.853H100.179V230.191H100.155Z" fill="#3CACFB"/>
<path d="M107.624 255.516L107.286 255.506C107.962 231.839 93.6159 209.256 79.3566 201.095L79.5242 200.802C86.9176 205.033 94.1536 213.008 99.3767 222.68C105.002 233.097 107.931 244.759 107.624 255.516Z" fill="#3CACFB"/>
<path d="M89.4228 244.764C86.9856 244.793 84.5703 244.3 82.3397 243.317C80.4439 242.465 78.7503 241.22 77.3704 239.665C75.9906 238.11 74.9558 236.281 74.3342 234.297L74.2349 233.99L74.5444 234.084C77.2665 234.914 80.1917 234.885 83.0199 234.856C85.4828 234.832 88.0292 234.806 90.4647 235.34C94.4985 236.241 98.0556 238.604 100.449 241.973L100.569 242.143L100.378 242.226C96.0667 244.099 92.4224 244.764 89.4228 244.764ZM74.7577 234.498C75.3895 236.372 76.4013 238.095 77.7299 239.56C79.0585 241.024 80.6751 242.198 82.4785 243.009C85.8633 244.538 91.6505 245.595 100.052 241.998C97.7069 238.787 94.2736 236.537 90.3924 235.67C87.9944 235.145 85.4673 235.17 83.0236 235.194C80.2762 235.221 77.4385 235.25 74.7577 234.498Z" fill="#3CACFB"/>
<path d="M107.208 250.658C106.188 247.34 103.981 244.514 101.01 242.719C97.9067 240.791 94.2573 240.011 90.9965 240.581L90.9384 240.248C94.2796 239.664 98.0158 240.461 101.188 242.432C104.23 244.27 106.489 247.165 107.533 250.563L107.208 250.658ZM111.629 254.446L111.291 254.442C111.297 253.993 111.316 253.536 111.348 253.082L111.685 253.106C111.654 253.552 111.635 253.999 111.629 254.446ZM111.814 251.769L111.478 251.728C111.533 251.284 111.6 250.832 111.679 250.383L112.011 250.441C111.934 250.882 111.868 251.325 111.814 251.769ZM112.275 249.124L111.945 249.049C112.043 248.615 112.153 248.171 112.273 247.731L112.6 247.819C112.482 248.252 112.374 248.687 112.275 249.124L112.275 249.124ZM112.981 246.53L112.659 246.428C112.794 246.003 112.942 245.57 113.097 245.142L113.415 245.257C113.262 245.678 113.117 246.103 112.981 246.53H112.981ZM113.896 244.001L113.583 243.874C113.752 243.455 113.929 243.038 114.112 242.624L114.421 242.761C114.239 243.171 114.064 243.585 113.896 244.001ZM114.986 241.539L114.682 241.393C114.878 240.985 115.08 240.58 115.287 240.179L115.588 240.333C115.381 240.732 115.181 241.134 114.986 241.539ZM116.221 239.145L115.925 238.982C116.143 238.585 116.365 238.192 116.592 237.801L116.884 237.971C116.659 238.359 116.438 238.75 116.221 239.145ZM117.574 236.812L117.285 236.636C117.521 236.25 117.76 235.866 118.002 235.486L118.287 235.668C118.047 236.046 117.809 236.427 117.574 236.812ZM119.019 234.533L118.736 234.349C118.983 233.971 119.231 233.594 119.481 233.219L119.762 233.406C119.513 233.78 119.265 234.156 119.019 234.533ZM120.515 232.285L120.236 232.096C120.489 231.722 120.745 231.35 121.001 230.98L121.279 231.172C121.023 231.542 120.768 231.913 120.515 232.285ZM122.053 230.066L121.777 229.871C122.038 229.503 122.3 229.135 122.563 228.769L122.838 228.967C122.575 229.332 122.313 229.698 122.053 230.066ZM123.632 227.875L123.36 227.675C123.627 227.311 123.895 226.949 124.166 226.588L124.436 226.791C124.166 227.151 123.898 227.512 123.632 227.875ZM125.25 225.713L124.982 225.508C125.255 225.149 125.53 224.792 125.807 224.436L126.074 224.643C125.798 224.999 125.523 225.355 125.25 225.713ZM126.908 223.581L126.642 223.371C126.922 223.018 127.204 222.665 127.487 222.314L127.75 222.526C127.468 222.876 127.187 223.228 126.908 223.581ZM128.602 221.479L128.341 221.264C128.627 220.916 128.915 220.568 129.205 220.222L129.464 220.439C129.175 220.784 128.888 221.131 128.602 221.479ZM130.335 219.407L130.077 219.188C130.37 218.845 130.664 218.502 130.959 218.161L131.215 218.383C130.92 218.723 130.626 219.064 130.335 219.407V219.407ZM132.103 217.366L131.85 217.143C132.148 216.804 132.448 216.467 132.749 216.132L133.001 216.357C132.7 216.692 132.401 217.029 132.103 217.366ZM133.907 215.356L133.658 215.129C133.962 214.796 134.267 214.464 134.575 214.133L134.822 214.364C134.516 214.693 134.211 215.024 133.907 215.356H133.907ZM135.746 213.378L135.5 213.146L135.911 212.714L136.155 212.947L135.746 213.378Z" fill="#3CACFB"/>
<path d="M119.558 248.839L119.464 248.515C131.812 244.946 140.527 239.171 145.367 231.351C146.072 230.211 146.944 228.521 146.377 227.005C145.825 225.53 144.053 224.831 142.587 224.902C140.981 224.981 139.452 225.757 138.102 226.442L137.142 226.929L137.907 226.171C142.285 221.833 147.734 216.435 149.397 209.651C150.402 205.552 149.965 201.232 149.544 197.053C149.175 193.399 148.794 189.625 149.362 185.966C140.532 193.047 129.697 201.847 125.406 213.873C125.328 214.092 125.251 214.314 125.175 214.535C124.825 215.718 124.316 216.848 123.662 217.894C122.805 219.134 121.573 220.046 120.382 220.928C120.178 221.079 119.975 221.229 119.774 221.381C117.986 222.73 112.274 227.566 113.824 233.133L113.498 233.223C111.892 227.451 117.74 222.493 119.571 221.111C119.772 220.959 119.976 220.808 120.181 220.657C121.35 219.791 122.559 218.896 123.383 217.702C124.019 216.681 124.514 215.579 124.855 214.425C124.932 214.203 125.009 213.98 125.088 213.759C129.466 201.486 140.572 192.581 149.495 185.426L149.845 185.145L149.767 185.587C149.105 189.337 149.499 193.242 149.88 197.019C150.304 201.226 150.744 205.576 149.725 209.732C148.133 216.225 143.153 221.433 138.891 225.671C140.032 225.061 141.283 224.685 142.571 224.565C144.112 224.49 146.056 225.184 146.693 226.886C147.313 228.542 146.397 230.329 145.654 231.529C140.769 239.422 131.988 245.247 119.558 248.839Z" fill="#3CACFB"/>
<path d="M230.949 12.8827H222.264V12.5448H230.557C229.497 6.23884 222.206 6.52407 219.977 6.76502L219.83 6.7809L219.795 6.63727C219.174 4.1247 217.224 3.11122 215.697 2.70367C212.948 1.96966 209.902 2.72969 208.781 3.90031L208.626 4.06184L208.513 3.86888C206.887 1.08832 202.551 0.23739 199.11 0.833514C195.727 1.41984 193.436 3.20551 192.984 5.6096L192.955 5.76168L192.801 5.74647C191.623 5.6295 190.434 5.75302 189.305 6.10953C188.177 6.46603 187.132 7.0481 186.236 7.8204C185.571 8.41598 185.039 9.14398 184.672 9.95761C184.306 10.7712 184.114 11.6525 184.109 12.5448H215.834V12.8827H183.769V12.7138C183.751 11.7458 183.942 10.7854 184.329 9.89774C184.715 9.01011 185.288 8.2161 186.009 7.56965C186.921 6.78273 187.981 6.1853 189.127 5.81217C190.273 5.43905 191.481 5.2977 192.682 5.39636C193.227 2.92434 195.595 1.09981 199.053 0.500644C202.534 -0.102576 206.911 0.74734 208.693 3.5154C210.115 2.23258 213.285 1.70979 215.784 2.37688C218.015 2.97267 219.537 4.40316 220.086 6.4139C222.57 6.16855 229.956 6.02054 230.921 12.6894L230.949 12.8827Z" fill="#131A6D"/>
<path d="M217.694 12.5448H220.596V12.8827H217.694V12.5448Z" fill="#131A6D"/>
<path d="M256.014 36.3853C256.014 36.3853 247.142 36.2123 243.366 43.2266C240.99 47.639 243.328 52.8355 243.328 52.8355C248.702 51.9123 250.151 39.4346 256.014 36.3853Z" fill="#D236A2"/>
<path d="M244.167 57.3984C242.049 52.7331 243.259 47.5056 248.091 40.4487L248.37 40.6397C243.612 47.5877 242.411 52.7135 244.475 57.2588L244.167 57.3984Z" fill="#131A6D"/>
<path d="M35.6222 229.136C35.6222 229.136 37.8958 235.929 44.2531 236.899C48.253 237.509 51.5702 234.322 51.5702 234.322C49.4114 230.487 39.5304 232.768 35.6218 229.136H35.6222Z" fill="#3CACFB"/>
<path d="M47.5903 235.115C45.3096 235.061 43.045 234.717 40.8514 234.09L40.9376 233.764C47.4987 235.494 51.7125 235.021 54.6005 232.228L54.8353 232.471C53.0034 234.242 50.6686 235.115 47.5903 235.115Z" fill="#131A6D"/>
<path fill-rule="evenodd" clip-rule="evenodd" d="M95.8179 24.7312C137.488 24.7312 171.269 58.5116 171.269 100.182C171.269 141.853 137.489 175.633 95.8179 175.633C54.147 175.633 20.3669 141.853 20.3669 100.182C20.3669 58.5119 54.1473 24.7312 95.8179 24.7312Z" fill="#135164"/>
<path d="M141.172 145.536C166.221 120.488 166.221 79.8762 141.172 54.8277C116.124 29.7792 75.5119 29.7792 50.4634 54.8277C25.4149 79.8762 25.4149 120.488 50.4634 145.536C75.5119 170.585 116.124 170.585 141.172 145.536Z" fill="#111107"/>
<path d="M139.219 143.583C163.189 119.614 163.189 80.7506 139.219 56.7807C115.249 32.8108 76.3863 32.8108 52.4164 56.7807C28.4465 80.7506 28.4465 119.614 52.4164 143.583C76.3863 167.553 115.249 167.553 139.219 143.583Z" fill="#E3F4FF"/>
<path fill-rule="evenodd" clip-rule="evenodd" d="M60.432 150.286L145.928 64.805C134.815 48.9209 116.608 38.2798 95.825 38.2798C62.0186 38.2798 34.4462 65.8523 34.4462 99.6583C34.4462 120.442 44.5478 139.173 60.432 150.286ZM150.429 72.2106L68.0305 154.887C69.4985 155.632 70.9544 156.316 72.4866 156.943L152.511 76.689C151.884 75.1561 151.174 73.6789 150.429 72.2106ZM96.8929 161.024C129.854 160.456 156.622 133.688 157.19 100.727L96.8929 161.024Z" fill="white"/>
<path d="M94.0194 153.879C65.8462 152.95 43.0498 130.154 42.1215 101.98C41.889 94.6297 43.1655 87.3095 45.8721 80.4714C48.5787 73.6333 52.658 67.4225 57.8583 62.2223C63.0586 57.0221 69.2694 52.9428 76.1075 50.2363C82.9456 47.5298 90.2659 46.2534 97.6165 46.486C125.79 47.414 148.586 70.2107 149.514 98.3843L149.177 98.3954C148.255 70.3992 125.602 47.7462 97.6053 46.8236C90.301 46.5926 83.0268 47.861 76.2317 50.5505C69.4366 53.2401 63.2649 57.2937 58.0973 62.4612C52.9298 67.6287 48.8761 73.8005 46.1865 80.5955C43.4969 87.3906 42.2285 94.6648 42.4594 101.969C43.3817 129.965 66.0344 152.618 94.0306 153.541L94.0194 153.879Z" fill="#131A6D"/>
<path d="M98.2583 99.6515C98.2583 100.134 98.1152 100.606 97.8471 101.007C97.579 101.409 97.1979 101.721 96.752 101.906C96.3061 102.091 95.8155 102.139 95.3421 102.045C94.8688 101.951 94.434 101.718 94.0927 101.377C93.7514 101.036 93.5189 100.601 93.4247 100.128C93.3305 99.6545 93.3788 99.1638 93.5635 98.7179C93.7481 98.272 94.0608 97.8909 94.4621 97.6227C94.8633 97.3545 95.3351 97.2113 95.8177 97.2113C96.1382 97.2112 96.4556 97.2743 96.7517 97.3969C97.0478 97.5196 97.3168 97.6993 97.5435 97.9259C97.7701 98.1525 97.9499 98.4215 98.0725 98.7176C98.1952 99.0137 98.2583 99.331 98.2583 99.6515Z" fill="#111107"/>
<path d="M96.8929 99.245L94.7132 100.727C94.7132 100.727 78.7747 81.1558 76.5777 77.1715C75.0739 74.444 71.8773 64.7864 71.8773 64.7864C71.8773 64.7864 79.681 71.312 81.664 73.7147C84.5602 77.2232 96.8929 99.245 96.8929 99.245Z" fill="#111107"/>
<path d="M97.0595 100.182L95.8033 98.9405C95.8033 98.9405 106.611 85.9285 108.946 83.9688C110.546 82.6272 116.483 79.2759 116.483 79.2759C116.483 79.2759 113.201 85.2516 111.878 86.866C109.945 89.2244 97.0595 100.182 97.0595 100.182Z" fill="#111107"/>
<path d="M279.285 228.81C275.347 214.148 253.862 204.408 253.861 204.408C253.862 204.408 260.176 200.569 255.136 189.219C251.505 181.042 238.595 182.606 238.595 182.606C237.022 182.561 235.475 183.018 234.18 183.912L227.655 158.532L224.471 159.375L232.055 188.747C232.094 189.216 232.175 189.681 232.297 190.136L247.38 247.06C247.546 247.694 247.775 248.31 248.063 248.899C248.592 248.563 249.214 248.405 249.839 248.446C250.464 248.487 251.06 248.727 251.541 249.129C252.021 249.532 252.361 250.077 252.511 250.685C252.66 251.293 252.613 251.934 252.375 252.513C256.903 253.71 262.987 250.898 265.649 249.527C265.76 249.469 265.865 249.4 265.961 249.32C269.829 249.195 273.359 248.381 276.417 246.813C280.112 244.919 282.643 241.412 281.579 237.399C280.818 234.535 280.054 231.672 279.285 228.81Z" fill="white"/>
<path d="M251.203 253.945C252.627 253.147 253.135 251.347 252.338 249.923C251.541 248.499 249.74 247.991 248.316 248.788C246.892 249.585 246.384 251.386 247.181 252.81C247.978 254.234 249.779 254.742 251.203 253.945Z" fill="white"/>
<path d="M254.787 252.078L254.452 252.031C254.562 251.256 254.478 250.467 254.208 249.733C253.939 248.999 253.491 248.343 252.906 247.823C252.322 247.304 251.617 246.937 250.856 246.756C250.095 246.575 249.302 246.585 248.545 246.786L248.459 246.459C249.269 246.245 250.119 246.234 250.934 246.428C251.749 246.623 252.504 247.015 253.13 247.571C253.756 248.128 254.236 248.83 254.525 249.617C254.814 250.403 254.904 251.249 254.787 252.078Z" fill="#131A6D"/>
<path d="M254.91 252.944C254.08 252.951 253.253 252.85 252.449 252.646L252.263 252.596L252.336 252.418C252.559 251.872 252.603 251.269 252.461 250.696C252.319 250.123 251.999 249.61 251.546 249.231C251.094 248.852 250.533 248.626 249.944 248.587C249.355 248.547 248.769 248.696 248.27 249.011L248.111 249.111L248.028 248.942C247.735 248.344 247.503 247.717 247.334 247.072L232.25 190.147C231.2 186.184 233.365 183.81 235.741 182.91C237.752 182.194 239.956 182.238 241.937 183.034C243.917 183.831 245.538 185.325 246.493 187.234C248.164 190.564 254.809 205.048 260.314 219.815C267.095 238.005 268.955 248.041 265.844 249.645C262.739 251.245 258.579 252.944 254.91 252.944ZM252.716 252.364C256.728 253.322 261.971 251.261 265.689 249.345C272.388 245.892 251.061 197.092 246.191 187.386C245.275 185.551 243.718 184.114 241.815 183.348C239.911 182.582 237.794 182.539 235.861 183.226C232.961 184.324 231.734 186.88 232.577 190.061L247.661 246.985C247.808 247.55 248.007 248.1 248.253 248.629C248.669 248.4 249.131 248.269 249.605 248.246C250.079 248.222 250.552 248.307 250.988 248.494C251.424 248.681 251.812 248.964 252.123 249.323C252.433 249.682 252.657 250.107 252.779 250.566C252.937 251.158 252.915 251.784 252.716 252.364Z" fill="#131A6D"/>
<path d="M249.754 254.491C248.958 254.492 248.192 254.19 247.611 253.646C247.029 253.102 246.677 252.357 246.625 251.563C246.572 250.769 246.824 249.984 247.329 249.369C247.834 248.754 248.555 248.354 249.344 248.25C250.133 248.146 250.932 248.347 251.579 248.811C252.226 249.275 252.672 249.967 252.826 250.748C252.981 251.529 252.833 252.34 252.412 253.015C251.991 253.691 251.328 254.181 250.559 254.386C250.297 254.456 250.026 254.491 249.754 254.491ZM249.764 248.579C249.337 248.579 248.916 248.677 248.533 248.865C248.15 249.054 247.815 249.328 247.554 249.666C247.294 250.004 247.114 250.398 247.03 250.816C246.945 251.235 246.958 251.667 247.066 252.08C247.2 252.582 247.472 253.037 247.85 253.393C248.229 253.748 248.7 253.991 249.209 254.094C249.719 254.196 250.247 254.154 250.733 253.971C251.22 253.789 251.646 253.475 251.963 253.063C252.28 252.651 252.476 252.159 252.528 251.642C252.58 251.125 252.486 250.604 252.257 250.137C252.029 249.671 251.674 249.277 251.233 249.002C250.792 248.727 250.284 248.58 249.764 248.579ZM266.084 249.458L266.073 249.12C269.99 248.993 273.483 248.156 276.458 246.631C279.658 244.991 282.672 241.706 281.533 237.411C280.773 234.547 280.008 231.684 279.239 228.823C275.367 214.406 254.123 204.628 253.909 204.531L254.049 204.223C254.264 204.321 275.652 214.164 279.565 228.735C280.334 231.597 281.099 234.46 281.86 237.324C282.841 241.024 280.781 244.795 276.612 246.932C273.593 248.48 270.051 249.33 266.084 249.458Z" fill="#131A6D"/>
<path d="M254.067 204.521L253.891 204.232C253.953 204.195 260.014 200.325 255.099 189.257C251.559 181.286 238.86 182.727 238.733 182.743L238.692 182.407C238.822 182.391 251.769 180.924 255.408 189.12C260.45 200.474 254.131 204.482 254.066 204.521H254.067Z" fill="#131A6D"/>
<path d="M235.254 183.174L233.972 178.338C233.863 177.924 233.915 177.484 234.118 177.107C234.32 176.729 234.657 176.443 235.062 176.304C235.467 176.166 235.91 176.186 236.301 176.36C236.692 176.534 237.002 176.85 237.169 177.244L239.351 182.405L235.254 183.174Z" fill="#111107"/>
<path d="M243.739 232.844C244.997 232.501 263.049 230.201 277.402 223.924C278.573 223.412 279.955 225.86 278.832 227.012C277.22 228.664 251.383 237.281 244.503 235.727C243.364 235.469 242.481 233.188 243.739 232.844Z" fill="white"/>
<path d="M246.5 236.066C245.816 236.078 245.133 236.016 244.463 235.881C243.635 235.694 242.971 234.589 242.953 233.762C242.925 233.522 242.984 233.28 243.12 233.08C243.255 232.879 243.458 232.734 243.692 232.671C243.896 232.615 244.482 232.517 245.452 232.355C249.82 231.625 261.419 229.685 272.289 225.761L272.404 226.078C261.505 230.013 249.883 231.957 245.508 232.688C244.581 232.843 243.969 232.946 243.781 232.997C243.621 233.043 243.484 233.146 243.394 233.285C243.304 233.424 243.267 233.591 243.291 233.755C243.306 234.444 243.865 235.4 244.538 235.552C251.311 237.083 277.055 228.579 278.708 226.883C279.281 226.297 279.112 225.29 278.664 224.641C278.382 224.234 277.921 223.87 277.467 224.069C276.751 224.382 276.03 224.683 275.305 224.974L275.179 224.661C275.913 224.367 276.637 224.063 277.331 223.76C277.868 223.524 278.485 223.789 278.941 224.449C279.48 225.228 279.656 226.395 278.95 227.119C277.417 228.692 255.386 236.065 246.5 236.066Z" fill="#131A6D"/>
<path d="M272.404 226.078L272.289 225.76C272.713 225.608 273.134 225.452 273.555 225.293L273.675 225.609C273.252 225.769 272.829 225.925 272.404 226.078ZM274.938 225.121L274.813 224.806L275.179 224.66L275.305 224.974L274.938 225.121ZM232.25 190.147L224.265 159.255L227.776 158.325L234.355 183.913L234.028 183.997L227.533 158.739L224.677 159.496L232.578 190.062L232.25 190.147Z" fill="#131A6D"/>
<path d="M223.144 151.211L224.765 150.782L226.873 158.739L225.253 159.168L223.144 151.211Z" fill="#111107"/>
<path d="M226.373 149.922C226.505 150.422 226.486 150.949 226.319 151.438C226.151 151.927 225.842 152.355 225.431 152.668C225.021 152.982 224.526 153.166 224.01 153.199C223.495 153.231 222.981 153.11 222.534 152.85C222.087 152.59 221.728 152.204 221.501 151.74C221.273 151.276 221.189 150.755 221.258 150.243C221.327 149.731 221.546 149.25 221.888 148.863C222.229 148.475 222.678 148.198 223.178 148.066C223.848 147.888 224.561 147.984 225.16 148.332C225.759 148.68 226.195 149.252 226.373 149.922V149.922Z" fill="#111107"/>
<path d="M255.877 234.565L257.685 234.182C257.735 234.171 257.782 234.151 257.824 234.121C257.866 234.092 257.902 234.055 257.929 234.011C257.957 233.968 257.975 233.919 257.983 233.868C257.991 233.818 257.989 233.766 257.977 233.716L257.218 230.657C257.194 230.561 257.134 230.478 257.051 230.425C256.967 230.373 256.866 230.354 256.77 230.374C256.144 230.465 255.525 230.593 254.914 230.758C253.836 231.044 251.204 232.108 250.547 233.555C250.138 234.456 251.705 237.274 252.198 236.951C252.69 236.628 253.48 235.066 255.877 234.565Z" fill="white"/>
<path d="M255.88 229.809L258.398 229.142C258.75 229.048 259.124 229.099 259.439 229.282C259.753 229.464 259.983 229.765 260.076 230.116L260.743 232.634C260.836 232.985 260.786 233.36 260.603 233.674C260.42 233.989 260.12 234.218 259.768 234.311L257.25 234.979C256.899 235.072 256.524 235.021 256.21 234.839C255.895 234.656 255.666 234.355 255.573 234.004L254.906 231.486C254.812 231.135 254.863 230.76 255.046 230.446C255.228 230.131 255.529 229.902 255.88 229.809Z" fill="white"/>
<path d="M256.899 235.193C256.559 235.193 256.229 235.08 255.96 234.873C255.69 234.666 255.497 234.376 255.409 234.047L254.742 231.529C254.638 231.134 254.695 230.714 254.9 230.361C255.105 230.008 255.442 229.75 255.837 229.645L258.355 228.978C258.75 228.874 259.17 228.931 259.523 229.136C259.877 229.341 260.134 229.678 260.239 230.073L260.906 232.591C261.01 232.986 260.953 233.406 260.748 233.759C260.543 234.112 260.206 234.37 259.811 234.475L257.293 235.142C257.165 235.176 257.032 235.193 256.899 235.193ZM258.749 229.265C258.645 229.265 258.542 229.278 258.441 229.305L255.924 229.972C255.615 230.054 255.352 230.255 255.192 230.531C255.032 230.806 254.988 231.135 255.069 231.443L255.736 233.961C255.818 234.269 256.019 234.532 256.295 234.692C256.571 234.852 256.899 234.897 257.207 234.815L259.725 234.148L259.768 234.311L259.725 234.148C260.033 234.066 260.296 233.865 260.456 233.589C260.617 233.314 260.661 232.986 260.58 232.677L259.912 230.159C259.844 229.903 259.693 229.676 259.483 229.515C259.272 229.353 259.015 229.265 258.749 229.265Z" fill="#131A6D"/>
<path d="M252.111 237.146C251.962 237.134 251.823 237.07 251.719 236.964C251.061 236.401 250.011 234.326 250.393 233.485C251.11 231.904 253.937 230.842 254.871 230.595C255.489 230.428 256.116 230.298 256.749 230.207C256.887 230.181 257.029 230.209 257.147 230.285C257.265 230.361 257.349 230.48 257.382 230.616L258.14 233.676C258.158 233.748 258.161 233.822 258.15 233.895C258.138 233.968 258.112 234.038 258.072 234.101C258.033 234.163 257.982 234.218 257.921 234.26C257.861 234.302 257.792 234.332 257.72 234.347L255.911 234.731C254.669 234.985 253.554 235.66 252.753 236.642C252.617 236.809 252.461 236.96 252.29 237.092C252.237 237.127 252.174 237.146 252.111 237.146ZM256.848 230.536C256.833 230.536 256.819 230.537 256.804 230.54C256.182 230.631 255.565 230.758 254.958 230.922C253.834 231.219 251.315 232.272 250.7 233.625C250.476 234.12 251.011 235.507 251.604 236.326C251.898 236.731 252.063 236.81 252.11 236.807C252.253 236.69 252.384 236.558 252.503 236.416C253.349 235.378 254.529 234.666 255.842 234.4L257.65 234.017C257.678 234.011 257.704 233.999 257.728 233.983C257.751 233.967 257.771 233.946 257.786 233.921C257.801 233.897 257.811 233.87 257.816 233.842C257.82 233.813 257.819 233.785 257.812 233.757L257.054 230.697C257.043 230.651 257.016 230.61 256.979 230.581C256.942 230.551 256.895 230.535 256.848 230.535V230.536ZM258.995 233.974C258.846 233.973 258.701 233.924 258.584 233.833C258.466 233.742 258.381 233.614 258.343 233.47L257.609 230.703C257.586 230.616 257.581 230.525 257.594 230.435C257.606 230.346 257.637 230.26 257.683 230.183C257.729 230.105 257.791 230.038 257.864 229.984C257.937 229.931 258.019 229.893 258.107 229.872L259.801 229.471L259.879 229.8L258.185 230.201C258.141 230.211 258.1 230.23 258.063 230.257C258.027 230.284 257.996 230.317 257.973 230.356C257.95 230.395 257.934 230.438 257.928 230.483C257.922 230.528 257.925 230.573 257.936 230.617L258.67 233.384C258.681 233.427 258.701 233.468 258.728 233.503C258.756 233.539 258.79 233.568 258.829 233.591C258.867 233.613 258.91 233.627 258.955 233.633C258.999 233.638 259.044 233.635 259.088 233.623L260.697 233.172L260.788 233.497L259.179 233.948C259.119 233.965 259.057 233.974 258.995 233.974Z" fill="#131A6D"/>
<path d="M256.434 229.662L256.761 229.575L256.966 230.349L256.639 230.435L256.434 229.662Z" fill="#131A6D"/>
<path d="M257.633 234.182L257.96 234.095L258.165 234.869L257.838 234.955L257.633 234.182Z" fill="#131A6D"/>
<path d="M258.879 233.853L259.205 233.766L259.41 234.54L259.084 234.626L258.879 233.853Z" fill="#131A6D"/>
<path d="M257.68 229.333L258.006 229.246L258.241 230.131L257.914 230.218L257.68 229.333Z" fill="#131A6D"/>
<path d="M176.441 106.014C176.441 106.014 213.121 81.6891 242.437 101.051C276.884 123.801 291.209 121.097 299.09 119.784C302.509 119.214 302.254 132.366 300.562 132.622C295.481 133.39 269.6 133.108 242.58 113.354C215.086 93.2527 177.522 112.421 177.522 112.421L176.441 106.014Z" fill="url(#paint0_linear_7008_3959)"/>
<path d="M164.308 243.602C164.308 243.602 167.073 246.827 167.028 247.838C166.988 248.738 164.694 252.916 164.416 254.502C164.374 254.742 164.558 255.35 165.386 254.729C166.386 253.979 172.536 249.077 172.182 247.677C171.684 245.706 168.211 240.665 168.211 240.665L164.308 243.602ZM217.466 229.419C217.466 229.419 221.666 230.061 222.291 230.857C222.847 231.565 223.832 236.229 224.656 237.612C224.78 237.822 225.316 238.163 225.539 237.152C225.808 235.932 227.275 228.205 226.093 227.374C224.431 226.205 218.51 224.647 218.51 224.647L217.466 229.419Z" fill="#FFC200"/>
<path d="M182.636 153.433C182.636 153.433 156.632 141.095 156.465 145.805C156.402 147.558 137.727 169.58 133.938 184.928C131.228 195.904 133.595 202.095 141.173 212.993C149.517 224.988 162.112 244.429 164.63 246.567C166.121 247.833 171.96 244.036 171.553 242.108C164.034 206.55 146.795 199.919 152.858 191.329C163.786 176.962 182.636 153.434 182.636 153.434V153.433Z" fill="#2D32E2"/>
<path d="M191.069 142.028C191.069 142.028 162.326 143.517 164.415 147.742C165.192 149.314 159.214 177.563 163.166 192.869C165.993 203.816 171.016 208.14 182.861 214.132C195.899 220.728 216.216 231.856 219.447 232.542C221.36 232.948 224.696 226.833 223.422 225.331C199.921 197.607 181.6 199.957 182.857 189.519C185.652 171.686 191.069 142.028 191.069 142.028Z" fill="#2D32E2"/>
<path d="M120.786 141.933C120.034 140.645 120.016 138.763 122.663 138.016C125.088 137.332 128.155 137.844 128.155 137.844L128.152 141.211C127.007 141.326 125.896 141.671 124.888 142.225C124.262 142.604 123.211 142.966 122.634 142.82C120.951 142.397 121.015 142.326 120.786 141.933L120.786 141.933ZM180.932 111.726C174.953 107.23 162.147 109.458 158.491 115.965C157.169 118.318 160.76 121.474 163.019 123.094C166.104 125.306 170.592 125.31 174.379 124.467C178.105 123.639 181.788 121.948 184.058 119.342C186.646 116.371 183.705 113.811 180.932 111.726Z" fill="#FF8AA9"/>
<path d="M171.91 105.859C173.772 106.361 176.522 105.599 177.795 104.205C179.862 101.941 179.655 97.9953 179.129 96.3411C178.62 94.7386 171.994 92.9853 170.669 94.2036C166.901 97.6665 167.042 104.547 171.91 105.859Z" fill="#05151A"/>
<path d="M169.891 99.046C169.66 98.8432 168.804 98.266 168.269 98.631C167.828 98.9317 167.878 99.6414 167.937 99.9976C167.999 100.368 168.245 101.051 168.953 101.051C170.581 101.051 170.265 99.3748 169.891 99.046ZM179.004 99.4748C178.854 99.1757 177.944 98.852 177.326 99.217C176.817 99.5177 176.874 101.225 177.691 101.225C178.549 101.225 179.441 100.35 179.004 99.4748Z" fill="#D86689"/>
<path d="M176.046 111.177C176.643 108.511 177.065 104.297 176.305 103.25C175.231 101.768 169.576 101.449 169.649 103.43C169.702 104.875 169.404 109.977 169.448 111.06C169.508 112.582 175.616 113.1 176.046 111.177Z" fill="#FF8AA9"/>
<path d="M169.651 103.491L169.641 105.036C170.394 106.773 171.617 108.226 173.242 108.063C175.019 107.885 176.062 106.249 176.715 105.136V104.056L169.651 103.491Z" fill="#D86689"/>
<path d="M169.651 102.511L169.649 103.43C170.403 105.167 171.617 107.247 173.242 107.083C175.019 106.905 176.062 105.267 176.715 104.153V103.076L169.651 102.511Z" fill="#111107"/>
<path d="M176.879 93.7863C175.929 92.4778 172.503 90.7228 170.298 93.0796C168.485 95.018 168.325 98.0534 168.564 100.35C168.821 102.815 169.381 105.714 172.295 105.714C175.359 105.714 176.935 103.515 177.316 101.225C177.754 98.5995 178.419 95.9075 176.879 93.7863Z" fill="#FF8AA9"/>
<path d="M167.118 99.6938C167.118 99.6938 168.412 99.5397 169.832 96.9795C170.214 96.2921 170.752 95.4202 170.752 94.1073C170.752 92.7944 169.488 91.4058 168.478 91.9611C164.862 93.9458 167.118 99.6938 167.118 99.6938Z" fill="#05151A"/>
<path d="M170.229 95.1793C170.888 96.112 173.096 97.2512 174.248 97.6976C175.423 98.1531 179.642 99.6938 179.642 99.6938C179.642 99.6938 180.27 94.5953 178.261 92.3199C176.399 90.2102 174.438 90.0105 172.532 90.0433C171.733 90.0568 170.173 90.4052 169.347 91.4558C168.52 92.5068 169.685 94.4098 170.229 95.1793Z" fill="#05151A"/>
<path d="M158.386 117.837C158.386 115.649 166.215 107.603 167.152 109.241C168.902 112.305 171.191 112.903 172.805 112.877C173.864 112.836 174.897 112.535 175.813 112C176.728 111.466 177.499 110.715 178.056 109.814C179.003 108.235 184.442 112.454 185.057 114.19C186.814 119.141 187.543 146.18 187.543 146.18C187.543 146.18 180.763 147.817 171.632 147.323C165.338 146.981 157.676 145.038 157.676 145.038C157.676 145.038 158.386 122.874 158.386 117.837Z" fill="#3CACFB"/>
<path d="M172.367 98.0393C172.515 97.4681 173.297 100.761 172.53 101.34C172.248 101.552 171.138 101.283 171.036 100.901C170.981 100.696 171.432 100.653 171.844 99.9483C172.07 99.562 172.102 99.0662 172.367 98.0389V98.0393Z" fill="#EF6295"/>
<path d="M171.712 97.6128C171.947 97.2485 171.215 96.9386 170.7 97.1295C170.561 97.169 170.437 97.2498 170.345 97.3612C170.253 97.4726 170.197 97.6094 170.185 97.7533C170.451 97.6341 170.741 97.577 171.032 97.5864C171.369 97.6036 171.628 97.7419 171.712 97.6124V97.6128ZM171.311 98.3515C171.313 98.389 171.306 98.4265 171.293 98.4615C171.28 98.4966 171.259 98.5286 171.233 98.5556C171.207 98.5826 171.176 98.6041 171.141 98.6188C171.107 98.6335 171.069 98.641 171.032 98.641C170.994 98.641 170.957 98.6335 170.922 98.6188C170.888 98.6041 170.857 98.5826 170.831 98.5556C170.804 98.5286 170.784 98.4966 170.771 98.4615C170.757 98.4265 170.751 98.389 170.752 98.3515C170.752 98.1971 170.877 98.1839 171.032 98.1839C171.186 98.1839 171.312 98.1971 171.312 98.3515H171.311ZM174.677 98.4211C174.674 98.4936 174.644 98.5623 174.592 98.6127C174.54 98.663 174.47 98.6912 174.397 98.6912C174.325 98.6912 174.255 98.663 174.203 98.6127C174.151 98.5623 174.12 98.4936 174.118 98.4211C174.118 98.2667 174.243 98.2535 174.397 98.2535C174.552 98.2535 174.677 98.267 174.677 98.4211Z" fill="#111107"/>
<path d="M178.214 99.2903C177.988 99.2315 172.661 97.8209 170.11 95.2992L170.348 95.0593C172.834 97.5161 178.245 98.949 178.299 98.9632L178.214 99.2903ZM177.827 97.1843C177.683 97.1718 174.284 96.8443 172.161 94.0479L172.43 93.8434C174.463 96.5219 177.823 96.8446 177.856 96.8477L177.827 97.1843ZM172.535 102.897C172.389 102.897 172.244 102.876 172.104 102.835L172.196 102.51C172.382 102.572 172.583 102.58 172.773 102.533C172.964 102.485 173.138 102.385 173.273 102.243L173.535 102.456C173.409 102.596 173.254 102.707 173.082 102.783C172.91 102.859 172.724 102.898 172.535 102.897Z" fill="#131A6D"/>
<path d="M161.795 110.075C155.647 110.05 151.433 122.603 148.042 127.232C142.997 134.122 141.788 134.659 128.67 137.023C127.169 137.293 125.038 141.987 127.131 142.947C131.304 144.862 147.416 146.261 150.334 143.826C162.041 134.055 164.673 110.087 161.795 110.075Z" fill="url(#paint1_linear_7008_3959)"/>
<path d="M189.679 114.138C187.981 110.782 181.95 110.057 179.388 109.566C179.288 110.912 179.118 114.526 174.243 115.805C176.999 123.732 180.529 145.209 179.028 157.951C178.816 159.752 193.239 158.62 193.216 157.413C192.879 138.883 194.841 124.338 189.679 114.138Z" fill="url(#paint2_linear_7008_3959)"/>
<path d="M166.011 108.625C163.264 108.942 159.15 110.488 158.207 111.511C149.773 120.658 161.145 131.436 149.511 153.402C149.072 154.23 160.196 157.601 162.3 156.339C164.37 155.097 168.987 126.024 169.059 115.033C166.058 113.896 165.074 110.804 166.011 108.625H166.011Z" fill="url(#paint3_linear_7008_3959)"/>
<path d="M177.74 159.836L178.034 159.669L181.226 165.285L180.933 165.452L177.74 159.836Z" fill="#131A6D"/>
<path d="M226.991 147.013C226.136 143.791 220.479 141.19 220.479 141.19L216.778 142.729C216.778 142.729 220.447 145.647 222.507 147.538C224.926 149.757 226.765 152.386 227.469 152.261C228.457 152.085 227.493 148.904 226.991 147.013Z" fill="#FF8AA9"/>
<path d="M206.669 129.813C197.138 124.199 186.959 105.85 182.795 112.421C176.998 121.57 195.591 135.986 199.343 139.002C202.28 141.363 217.717 145.582 219.512 146.056C220.752 146.384 224.849 142.458 224.094 141.41C220.999 137.116 214.607 134.487 206.669 129.812V129.813Z" fill="url(#paint4_linear_7008_3959)"/>
<path d="M161.979 177.617L161.661 177.501C166.246 164.91 167.717 151.154 167.731 151.016L168.067 151.051C168.053 151.189 166.578 164.986 161.979 177.617ZM164.175 163.057L163.844 162.988C163.936 162.542 164.025 162.101 164.112 161.664L164.443 161.73C164.357 162.167 164.267 162.609 164.175 163.057ZM164.704 160.402L164.371 160.338C164.458 159.887 164.542 159.444 164.622 159.01L164.954 159.072C164.874 159.506 164.79 159.949 164.704 160.402ZM165.197 157.741L164.864 157.681C164.947 157.221 165.025 156.777 165.098 156.35L165.432 156.407C165.358 156.834 165.279 157.279 165.197 157.741ZM165.658 155.073L165.325 155.017C165.405 154.538 165.478 154.091 165.543 153.683L165.877 153.737C165.812 154.145 165.738 154.592 165.658 155.073ZM166.087 152.399L165.754 152.348C165.884 151.497 165.953 151.011 165.953 151.01L166.288 151.057C166.288 151.057 166.219 151.545 166.087 152.399Z" fill="#131A6D"/>
<path d="M167.899 106.335C166.873 105.646 166.5 111.938 167.899 112.413C169.298 112.888 175.766 113.533 179.119 111.403C181.099 110.145 178.226 104.482 177.439 105.217C174.493 107.966 171.312 108.625 167.899 106.335H167.899Z" fill="url(#paint5_linear_7008_3959)"/>
<path d="M295.599 131.782L295.267 131.719C296.247 126.539 295.277 121.15 295.267 121.096L295.599 121.035C295.609 121.089 296.591 126.54 295.599 131.782ZM296.294 122.232L296.282 121.894C297.418 121.855 298.549 121.714 299.661 121.473L299.754 121.798C298.616 122.048 297.458 122.194 296.294 122.232H296.294ZM297.75 124.278C297.065 124.278 296.533 124.23 296.486 124.226L296.517 123.889C296.541 123.891 298.943 124.107 300.142 123.616L300.27 123.929C299.457 124.191 298.604 124.309 297.75 124.278ZM296.502 126.239H300.419V126.577H296.502V126.239ZM300.166 128.958C299.057 128.739 297.925 128.657 296.797 128.714L296.777 128.376C297.939 128.315 299.105 128.401 300.246 128.63L300.166 128.958ZM300.126 131.187C299.128 130.654 296.541 130.848 296.515 130.85L296.489 130.513C296.599 130.505 299.201 130.31 300.285 130.889L300.126 131.187Z" fill="white"/>
<path d="M169.614 105.714C169.614 105.714 159.93 107.339 168.03 115.32C177.842 124.986 215.004 120.093 225.096 126.068C226.804 127.079 230.969 118.228 229.022 117.172C219.304 111.902 184.55 117.694 175.619 112.68C169.787 109.405 169.614 105.714 169.614 105.714Z" fill="url(#paint6_linear_7008_3959)"/>
<path d="M222.915 124.44L222.639 124.245C224.77 121.234 224.981 116.688 224.983 116.642L225.321 116.656C225.319 116.703 225.103 121.348 222.915 124.44Z" fill="white"/>
<path d="M224.885 122.353L225.062 122.064L227.028 123.268L226.852 123.557L224.885 122.353Z" fill="white"/>
<path d="M226.008 125.363C225.457 124.764 224.809 124.265 224.09 123.884L224.243 123.583C225.003 123.982 225.688 124.51 226.266 125.144L226.008 125.363ZM227.938 121.816C227.054 121.675 226.187 121.441 225.352 121.116L225.474 120.801C226.28 121.113 227.116 121.34 227.969 121.479L227.938 121.816ZM227.868 120.135C227.11 120.104 226.362 119.941 225.659 119.654L225.79 119.343C225.804 119.348 227.115 119.894 228.173 119.782L228.209 120.118C228.096 120.13 227.982 120.135 227.868 120.135ZM227.878 118.247C227.2 118.238 226.529 118.112 225.894 117.875L226.02 117.561C226.785 117.845 227.604 117.952 228.417 117.872L228.464 118.206C228.27 118.234 228.074 118.247 227.878 118.247ZM119.355 191.6L77.8094 163.877C74.04 161.361 91.8308 137.888 97.5673 134.267C101.902 131.532 139.773 157.533 139.113 161.99C138.355 167.105 123.488 194.358 119.355 191.6Z" fill="white"/>
<path d="M112.119 140.256L115.71 137.711C116.34 137.265 117.09 137.02 117.862 137.009C118.633 136.999 119.39 137.222 120.032 137.651L127.756 142.805C128.398 143.233 128.894 143.846 129.181 144.563C129.467 145.28 129.529 146.066 129.359 146.819L128.354 151.258L126.021 149.521L126.728 146.398C126.848 145.868 126.804 145.314 126.603 144.81C126.401 144.305 126.051 143.874 125.6 143.572L120.164 139.945C119.712 139.644 119.18 139.487 118.637 139.494C118.094 139.502 117.566 139.674 117.123 139.988L114.595 141.779L112.119 140.256ZM78.3268 164.222C78.3268 164.222 77.1004 166.502 78.2234 167.251L79.8563 168.34C80.5552 168.807 81.3128 167.763 81.9809 166.66L78.3268 164.222ZM118.087 190.753C118.087 190.753 116.452 192.761 115.329 192.012L113.696 190.922C112.998 190.455 113.67 189.355 114.433 188.315L118.087 190.753Z" fill="white"/>
<path d="M120.019 191.964C119.75 191.968 119.485 191.89 119.261 191.74L77.7153 164.017C77.3125 163.748 77.1125 163.271 77.1212 162.598C77.1929 156.97 92.3282 137.374 97.477 134.124C100.183 132.416 113.494 140.818 117.509 143.434C128.351 150.497 139.666 159.41 139.28 162.015C138.568 166.817 126.335 189.349 120.941 191.742C120.652 191.879 120.339 191.955 120.02 191.964H120.019ZM98.4543 134.232C98.1774 134.217 97.9015 134.278 97.6575 134.41C92.5482 137.635 77.5298 157.04 77.4589 162.602C77.4521 163.153 77.6015 163.534 77.9029 163.736L119.448 191.459C119.797 191.692 120.24 191.683 120.804 191.433C126.136 189.067 138.24 166.729 138.945 161.965C139.256 159.872 129.557 151.685 117.325 143.717C108.209 137.777 101.108 134.232 98.4543 134.232Z" fill="#131A6D"/>
<path d="M128.519 151.295L128.189 151.221L129.194 146.782C129.353 146.063 129.293 145.312 129.02 144.627C128.746 143.943 128.273 143.357 127.662 142.946L119.938 137.791C119.324 137.385 118.601 137.173 117.864 137.183C117.127 137.194 116.41 137.426 115.808 137.849L112.216 140.394L112.021 140.118L115.612 137.573C116.271 137.11 117.054 136.857 117.859 136.846C118.664 136.834 119.454 137.066 120.126 137.51L127.849 142.664C128.517 143.114 129.035 143.754 129.333 144.502C129.632 145.25 129.698 146.07 129.524 146.856L128.519 151.295Z" fill="#131A6D"/>
<path d="M126.186 149.559L125.856 149.484L126.563 146.36C126.673 145.864 126.631 145.346 126.443 144.873C126.254 144.401 125.928 143.997 125.506 143.713L120.07 140.086C119.646 139.805 119.147 139.659 118.638 139.666C118.13 139.673 117.636 139.833 117.219 140.126L114.692 141.917L114.497 141.641L117.024 139.85C117.496 139.518 118.057 139.337 118.634 139.329C119.211 139.321 119.776 139.486 120.257 139.805L125.693 143.432C126.172 143.754 126.542 144.213 126.756 144.748C126.97 145.284 127.017 145.872 126.892 146.435L126.186 149.559Z" fill="#131A6D"/>
<path d="M107.165 158.954L109.508 160.518C109.825 160.729 110.045 161.058 110.119 161.431C110.194 161.805 110.117 162.193 109.906 162.509L108.342 164.852C108.131 165.169 107.802 165.389 107.429 165.463C107.055 165.538 106.667 165.461 106.351 165.249L104.008 163.686C103.691 163.475 103.471 163.146 103.397 162.772C103.322 162.399 103.399 162.011 103.61 161.694L105.174 159.352C105.385 159.035 105.714 158.815 106.087 158.74C106.461 158.666 106.849 158.743 107.165 158.954Z" fill="#111107"/>
<path d="M80.2122 168.624C80.0514 168.622 79.8948 168.573 79.7628 168.481L78.1295 167.391C76.893 166.566 78.1248 164.24 78.1778 164.142L78.4756 164.302C78.4641 164.323 77.335 166.455 78.3171 167.11L79.9503 168.2C80.0027 168.237 80.0625 168.263 80.1257 168.276C80.1889 168.289 80.2541 168.288 80.317 168.274C80.8178 168.162 81.3923 167.306 81.8367 166.573L82.1256 166.748C81.591 167.63 81.0108 168.465 80.3903 168.603C80.3319 168.616 80.2722 168.623 80.2122 168.623V168.624ZM115.888 192.349C115.656 192.351 115.428 192.282 115.236 192.152L113.603 191.062C113.51 191.003 113.43 190.925 113.369 190.834C113.308 190.742 113.267 190.638 113.249 190.53C113.138 189.904 113.687 189.047 114.296 188.215L114.569 188.415C114.062 189.107 113.492 189.966 113.582 190.471C113.592 190.534 113.617 190.595 113.653 190.648C113.689 190.702 113.736 190.747 113.791 190.781L115.423 191.871C116.407 192.527 117.94 190.666 117.956 190.647L118.218 190.86C118.159 190.933 116.99 192.349 115.888 192.349Z" fill="#131A6D"/>
<path d="M120.574 170.282C120.574 170.282 100.598 185.635 103.977 194.049C107.356 202.463 122.577 208.43 115.868 217.274C109.159 226.118 131.789 212.83 131.21 203.035C130.773 195.659 121.883 184.049 124.024 179.149C126.065 174.475 126.426 173.501 126.426 173.501L120.574 170.282Z" fill="url(#paint7_linear_7008_3959)"/>
<path d="M127.741 174.066C124.04 174.067 91.7379 151.456 90.1503 149.741C88.1284 147.556 98.8546 137.21 100.084 136.037L100.318 136.282C97.0429 139.405 88.8773 147.868 90.3983 149.511C92.1989 151.456 124.367 173.732 127.695 173.733C127.732 173.734 127.768 173.73 127.804 173.723C130.374 173.179 136.096 161.249 136.154 161.128L136.459 161.274C136.221 161.771 130.606 173.475 127.875 174.054C127.831 174.063 127.786 174.067 127.741 174.066Z" fill="#131A6D"/>
<path d="M123.852 139.494C123.852 139.494 121.503 138.982 119.977 139.925C118.452 140.868 119.554 138.941 120.133 138.396C120.939 137.638 123.852 137.775 123.852 137.775V139.494ZM120.441 140.916C120.441 140.916 122.484 139.564 123.721 140.514C123.958 140.675 124.139 140.906 124.238 141.174C124.337 141.443 124.35 141.736 124.274 142.012C124.198 142.288 124.037 142.534 123.815 142.714C123.592 142.894 123.319 143.001 123.033 143.018C121.974 143.018 120.448 142.884 120.441 140.916H120.441Z" fill="#FF8AA9"/>
<path d="M181.16 106.163L180.999 105.866C181.224 105.743 203.762 93.6511 219.356 96.8503L219.288 97.1815C203.816 94.0069 181.385 106.041 181.16 106.163Z" fill="white"/>
<path d="M181.989 107.372L181.803 107.09C181.825 107.075 184.127 105.574 188.6 104.388L188.687 104.714C184.273 105.885 182.011 107.357 181.989 107.372ZM261.481 76.6639C261.552 76.6933 261.624 76.7231 261.693 76.7505C262.223 76.9934 262.779 77.1735 263.351 77.2871C263.683 77.3753 264.023 77.4319 264.366 77.4561L259.635 70.2181C261.569 65.4778 260.702 60.5429 257.347 58.5846C253.991 56.6265 249.268 58.3 246.093 62.3161L239.115 62.4141C239.115 62.4141 234.404 61.9038 239.115 64.9324C243.967 68.0516 256.173 74.4329 261.26 76.5717C261.326 76.6001 261.389 76.6258 261.453 76.6525L261.481 76.6639Z" fill="white"/>
<path d="M259.718 70.4621L245.839 62.3637L245.96 62.211C249.242 58.0611 254.066 56.4748 257.432 58.4385C260.798 60.4026 261.79 65.3832 259.792 70.2819L259.718 70.4621ZM246.347 62.2687L259.551 69.9734C261.389 65.2916 260.44 60.5851 257.262 58.7305C254.084 56.8763 249.519 58.3652 246.347 62.2687Z" fill="#3CACFB"/>
<path d="M264.684 77.6331L264.362 77.625C264.179 77.6203 259.806 77.4368 252.894 70.9528C246.064 64.5448 239.14 62.5959 239.071 62.577L237.92 62.262L246.137 62.1464L259.755 70.0924L264.684 77.6331ZM240.124 62.5688C244.955 64.3917 249.375 67.158 253.126 70.7064C258.848 76.0749 262.869 77.0671 264.028 77.2479L259.515 70.3438L246.048 62.4857L240.124 62.5688Z" fill="#3CACFB"/>
<path d="M263.338 77.4557C261.263 77.2986 244.782 68.7764 239.023 65.0746C237.378 64.0166 236.697 63.2805 236.882 62.7584C237.127 62.0653 238.8 62.2099 239.133 62.2461L239.097 62.582C238.4 62.507 237.315 62.5465 237.2 62.8709C237.158 62.9916 237.177 63.4857 239.206 64.7904C245.261 68.6832 261.517 76.9789 263.363 77.1184L263.338 77.4557Z" fill="#3CACFB"/>
<path d="M151.764 46.6877H171.89V47.0257H151.764V46.6877ZM190.143 47.0257H179.673V46.6877H189.751C188.489 38.9827 179.61 39.3288 176.901 39.6214L176.754 39.6373L176.718 39.494C175.964 36.4357 173.591 35.2029 171.734 34.7068C168.395 33.8157 164.693 34.7413 163.329 36.165L163.174 36.3269L163.061 36.1336C161.084 32.7542 155.821 31.7191 151.644 32.4433C147.533 33.1553 144.75 35.3269 144.2 38.2518L144.171 38.4039L144.017 38.3886C143.448 38.3327 142.875 38.3246 142.304 38.3643L142.281 38.0271C142.82 37.9899 143.36 37.9936 143.898 38.0382C144.541 35.0458 147.401 32.8353 151.586 32.1101C155.803 31.3795 161.107 32.4129 163.24 35.7787C164.937 34.2124 168.788 33.5703 171.821 34.3804C174.519 35.1005 176.356 36.8341 177.01 39.2703C179.979 38.9726 188.948 38.7654 190.115 46.8327L190.143 47.0257ZM174.142 46.6877H177.654V47.0257H174.142V46.6877Z" fill="#131A6D"/>
<path d="M78.6249 200.323C78.3467 200.163 78.069 200.001 77.7919 199.837L77.9642 199.546C78.2398 199.71 78.5158 199.871 78.7922 200.029L78.6249 200.323ZM76.6345 199.13C76.2528 198.89 75.8726 198.646 75.4939 198.396L75.6798 198.114C76.056 198.362 76.4342 198.605 76.8142 198.843L76.6345 199.13ZM74.3703 197.638C73.9992 197.381 73.6304 197.12 73.2639 196.854L73.4619 196.581C73.8264 196.845 74.1933 197.104 74.5626 197.36L74.3703 197.638ZM72.1747 196.047C71.8144 195.774 71.4573 195.497 71.1034 195.216L71.3136 194.951C71.6655 195.231 72.0206 195.506 72.3788 195.778L72.1747 196.047ZM70.0511 194.362C69.7028 194.073 69.3583 193.78 69.0177 193.484L69.2393 193.229C69.578 193.523 69.9204 193.814 70.2667 194.102L70.0511 194.362ZM68.0045 192.584C67.6693 192.279 67.3385 191.971 67.0123 191.66L67.2455 191.415C67.5699 191.724 67.8988 192.03 68.2323 192.334L68.0045 192.584ZM66.0428 190.713C65.7217 190.391 65.4063 190.068 65.0966 189.741L65.3416 189.508C65.6493 189.833 65.9627 190.154 66.2817 190.474L66.0428 190.713ZM64.175 188.746C63.8706 188.408 63.5727 188.068 63.2811 187.725L63.5387 187.506C63.8277 187.846 64.1236 188.184 64.4264 188.52L64.175 188.746ZM62.4167 186.68C62.1315 186.324 61.854 185.966 61.5844 185.607L61.8547 185.405C62.1221 185.761 62.3974 186.115 62.6806 186.468L62.4167 186.68Z" fill="#3CACFB"/>
<path d="M249.325 178.339L248.99 178.296C249.646 173.082 253.412 167.034 259.097 166.098L259.152 166.432C253.628 167.341 249.966 173.245 249.325 178.339Z" fill="#131A6D"/>
<path d="M264.081 159.795C273.023 159.97 278.198 157.973 278.198 157.973C262.711 169.164 258.726 164.837 251.656 171.853C251.656 171.853 247.534 159.471 264.081 159.795Z" fill="#111107"/>
<path d="M258.949 165.357C258.949 165.357 257.864 161.409 255.103 163.857C253.986 164.862 253.1 166.097 252.504 167.478C251.909 168.858 251.62 170.351 251.656 171.853C257.452 166.252 267.213 168.692 278.198 157.973C265.638 164.869 264.941 157.483 258.949 165.357Z" fill="#D236A2"/>
<path d="M60.8666 218.065C60.4965 218.035 55.7674 216.718 50.4929 212.937C45.5498 209.393 38.981 202.817 35.7567 191.61L36.0811 191.517C42.3026 213.138 60.7179 217.704 60.8977 217.728L60.8757 217.889L61.0379 217.969L60.8666 218.065Z" fill="#131A6D"/>
<path d="M33.7378 198.129C33.7378 198.129 28.6181 195.488 33.3144 188.375C37.5927 181.896 33.7385 177.708 33.6858 174.302C33.6655 172.997 34.1258 171.192 35.4928 173.164C46.9675 189.716 38.1517 196.874 42.8429 205.37C42.8429 205.37 32.7396 208.131 33.7375 198.129L33.7378 198.129Z" fill="url(#paint8_linear_7008_3959)"/>
<path d="M38.7571 196.885C38.7571 196.885 34.3754 196.297 35.911 199.505C38.0261 203.923 42.8428 205.37 42.8428 205.37C39.1501 198.461 45.7916 191.635 38.6888 178.504C41.369 191.501 32.8242 188.96 38.7571 196.885Z" fill="#111107"/>
<path d="M223.932 80.4748C222.739 80.4748 222.141 79.9287 221.563 79.4009C221.008 78.894 220.484 78.4151 219.422 78.4151C218.36 78.4151 217.835 78.894 217.28 79.4009C216.702 79.9287 216.104 80.4748 214.911 80.4748C213.718 80.4748 213.12 79.9287 212.542 79.4009C211.987 78.894 211.463 78.4151 210.401 78.4151C209.338 78.4151 208.813 78.894 208.258 79.4009C207.68 79.9287 207.082 80.4748 205.888 80.4748C204.701 80.4748 204.016 79.9328 203.355 79.4083C202.71 78.8977 202.101 78.4148 201.032 78.4148V78.0768C202.219 78.0768 202.903 78.6192 203.565 79.1437C204.209 79.6543 204.819 80.1372 205.888 80.1372C206.95 80.1372 207.475 79.658 208.03 79.1511C208.609 78.6233 209.207 78.0772 210.401 78.0772C211.594 78.0772 212.192 78.6233 212.77 79.1511C213.325 79.658 213.849 80.1369 214.911 80.1369C215.973 80.1369 216.497 79.658 217.052 79.1511C217.631 78.6233 218.228 78.0772 219.422 78.0772C220.615 78.0772 221.213 78.6233 221.791 79.1511C222.346 79.658 222.87 80.1369 223.932 80.1369C224.993 80.1369 225.517 79.658 226.072 79.1511C226.65 78.6233 227.247 78.0772 228.44 78.0772V78.4151C227.379 78.4151 226.855 78.894 226.3 79.4009C225.722 79.9287 225.124 80.4748 223.932 80.4748ZM206.107 72.9212C205.822 72.9191 205.54 72.8573 205.279 72.7398C205.019 72.6222 204.786 72.4515 204.595 72.2386C204.437 72.0524 204.24 71.9028 204.019 71.8002C203.797 71.6977 203.555 71.6445 203.311 71.6445C203.067 71.6445 202.825 71.6977 202.604 71.8002C202.382 71.9028 202.185 72.0524 202.027 72.2386C201.838 72.4532 201.605 72.6251 201.344 72.7428C201.084 72.8605 200.801 72.9214 200.515 72.9214C200.229 72.9214 199.946 72.8605 199.685 72.7428C199.424 72.6251 199.192 72.4532 199.002 72.2386C198.844 72.0523 198.647 71.9026 198.426 71.7999C198.204 71.6973 197.962 71.6441 197.718 71.6441C197.473 71.6441 197.232 71.6973 197.01 71.7999C196.788 71.9026 196.591 72.0523 196.433 72.2386C196.242 72.4515 196.009 72.6222 195.749 72.7398C195.488 72.8573 195.206 72.9191 194.92 72.9212C194.318 72.9071 193.743 72.666 193.31 72.246C192.936 71.8761 192.436 71.6612 191.91 71.6442V71.3062C192.512 71.3203 193.087 71.5614 193.52 71.9811C193.894 72.3512 194.394 72.5663 194.92 72.5833C195.165 72.5808 195.405 72.5265 195.627 72.424C195.848 72.3215 196.046 72.1732 196.206 71.9889C196.395 71.7743 196.628 71.6025 196.888 71.4848C197.149 71.3671 197.432 71.3063 197.718 71.3063C198.004 71.3063 198.287 71.3671 198.548 71.4848C198.808 71.6025 199.041 71.7743 199.23 71.9889C199.388 72.1751 199.585 72.3248 199.807 72.4274C200.029 72.53 200.27 72.5831 200.514 72.5831C200.759 72.5831 201 72.53 201.222 72.4274C201.444 72.3248 201.64 72.1751 201.799 71.9889C201.988 71.7742 202.22 71.6023 202.481 71.4846C202.742 71.3668 203.025 71.3059 203.311 71.3059C203.597 71.3059 203.88 71.3668 204.141 71.4846C204.402 71.6023 204.634 71.7742 204.823 71.9889C204.982 72.1752 205.178 72.3248 205.4 72.4275C205.622 72.5301 205.863 72.5833 206.107 72.5833C206.352 72.5833 206.593 72.5301 206.815 72.4275C207.036 72.3248 207.233 72.1752 207.391 71.9889C207.582 71.776 207.814 71.6053 208.075 71.4878C208.335 71.3702 208.617 71.3084 208.903 71.3062V71.6442C208.659 71.6467 208.418 71.701 208.197 71.8035C207.976 71.9059 207.779 72.0543 207.619 72.2386C207.428 72.4515 207.196 72.6222 206.935 72.7397C206.675 72.8573 206.393 72.9191 206.107 72.9212Z" fill="#D236A2"/>
<path d="M204.181 184.362L200.913 181.094L204.181 177.827L207.449 181.094L204.181 184.362ZM201.391 181.094L204.181 183.884L206.971 181.094L204.181 178.305L201.391 181.094Z" fill="#2D32E2"/>
</g>
<defs>
<linearGradient id="paint0_linear_7008_3959" x1="327.383" y1="126.335" x2="153.566" y2="94.627" gradientUnits="userSpaceOnUse">
<stop stop-color="#5BFFF6"/>
<stop offset="0.149" stop-color="#5AF9F6"/>
<stop offset="0.34" stop-color="#56E9F8"/>
<stop offset="0.554" stop-color="#50CFF9"/>
<stop offset="0.783" stop-color="#48ABFC"/>
<stop offset="1" stop-color="#3E81FF"/>
</linearGradient>
<linearGradient id="paint1_linear_7008_3959" x1="143.309" y1="113.272" x2="147.902" y2="164.411" gradientUnits="userSpaceOnUse">
<stop stop-color="#FFD300"/>
<stop offset="1" stop-color="#ECB817"/>
</linearGradient>
<linearGradient id="paint2_linear_7008_3959" x1="182.544" y1="109.746" x2="187.133" y2="160.832" gradientUnits="userSpaceOnUse">
<stop stop-color="#FFD300"/>
<stop offset="1" stop-color="#ECB817"/>
</linearGradient>
<linearGradient id="paint3_linear_7008_3959" x1="157.282" y1="112.015" x2="161.87" y2="163.101" gradientUnits="userSpaceOnUse">
<stop stop-color="#FFD300"/>
<stop offset="1" stop-color="#ECB817"/>
</linearGradient>
<linearGradient id="paint4_linear_7008_3959" x1="201.025" y1="107.934" x2="206.084" y2="164.255" gradientUnits="userSpaceOnUse">
<stop stop-color="#FFD300"/>
<stop offset="1" stop-color="#ECB817"/>
</linearGradient>
<linearGradient id="paint5_linear_7008_3959" x1="171.32" y1="99.5752" x2="174.766" y2="116.613" gradientUnits="userSpaceOnUse">
<stop stop-color="#5BFFF6"/>
<stop offset="0.149" stop-color="#5AF9F6"/>
<stop offset="0.34" stop-color="#56E9F8"/>
<stop offset="0.554" stop-color="#50CFF9"/>
<stop offset="0.783" stop-color="#48ABFC"/>
<stop offset="1" stop-color="#3E81FF"/>
</linearGradient>
<linearGradient id="paint6_linear_7008_3959" x1="168.863" y1="92.7752" x2="230.137" y2="141.32" gradientUnits="userSpaceOnUse">
<stop stop-color="#5BFFF6"/>
<stop offset="0.149" stop-color="#5AF9F6"/>
<stop offset="0.34" stop-color="#56E9F8"/>
<stop offset="0.554" stop-color="#50CFF9"/>
<stop offset="0.783" stop-color="#48ABFC"/>
<stop offset="1" stop-color="#3E81FF"/>
</linearGradient>
<linearGradient id="paint7_linear_7008_3959" x1="103.592" y1="195.229" x2="131.22" y2="195.229" gradientUnits="userSpaceOnUse">
<stop stop-color="#FFD300"/>
<stop offset="1" stop-color="#ECB817"/>
</linearGradient>
<linearGradient id="paint8_linear_7008_3959" x1="30.5932" y1="190.333" x2="41.7118" y2="188.277" gradientUnits="userSpaceOnUse">
<stop stop-color="#FFD300"/>
<stop offset="1" stop-color="#ECB817"/>
</linearGradient>
<clipPath id="clip0_7008_3959">
<rect width="320" height="264.728" fill="white" transform="translate(0 0.316803)"/>
</clipPath>
</defs>
</svg>
