<svg width="154" height="111" viewBox="0 0 154 111" fill="none" xmlns="http://www.w3.org/2000/svg">
<g id="78578778 1" clip-path="url(#clip0_1822_3557)">
<g id="Group">
<g id="Layer 2">
<g id="&#226;&#128;&#148;&#195;&#142;&#195;&#147;&#195;&#136;_1">
<path id="Vector" d="M110.376 69.2264C110.215 73.3709 109.631 77.4511 108.347 81.408C107.979 82.5431 107.515 83.6474 107.099 84.7671C106.763 85.6681 106.2 86.4147 105.549 87.1058C105.054 87.6252 104.516 88.1025 103.942 88.5329C103.821 88.6262 103.697 88.7171 103.574 88.8072L103.566 88.8128C102.244 89.7686 100.845 90.5945 99.3874 91.3237C98.5969 91.7196 97.7961 92.0897 96.9851 92.4339C96.8538 92.4901 96.7217 92.5451 96.589 92.5992C95.1598 93.1887 93.6941 93.6852 92.2009 94.0857C91.992 94.1403 91.7787 94.1759 91.5634 94.1923C91.3579 94.2087 91.1406 94.0291 91.077 93.8272C91.0135 93.6253 91.0963 93.365 91.2699 93.2476C91.3275 93.2045 91.3906 93.1692 91.4575 93.1428C91.9728 92.9737 92.3019 92.5915 92.5664 92.1496C93.0681 91.3111 93.5995 90.4848 94.041 89.6142C95.4336 86.8675 96.7101 84.0668 97.8704 81.212C98.3337 80.0675 98.703 78.8943 99.0446 77.711C99.597 75.7976 100.251 73.9134 100.677 71.964C101.057 70.229 101.366 68.4815 101.572 66.7179C101.778 64.9543 101.936 63.1866 102.147 61.4247C102.246 60.5985 102.391 59.7754 102.562 58.961C102.895 57.4014 103.097 55.817 103.166 54.224C103.232 52.6682 103.336 51.1146 103.275 49.5526C103.224 48.2491 103.215 46.9439 103.195 45.6397C103.187 45.1307 103.149 44.6325 103.011 44.1354C102.915 43.7913 102.893 43.422 102.875 43.0618C102.857 42.6876 103.028 42.471 103.399 42.3362C103.533 42.2872 103.677 42.2663 103.905 42.2125C103.781 41.898 103.698 41.6986 103.625 41.4963C103.589 41.3942 103.562 41.2889 103.546 41.1819C103.515 40.9998 103.668 40.7546 103.864 40.6533C104.035 40.5652 104.347 40.6183 104.454 40.7888C104.629 41.0624 104.786 41.3471 104.924 41.6413C106.032 44.0824 106.974 46.5958 107.743 49.1641C108.697 52.3213 109.401 55.5484 109.849 58.8157C110.323 62.2688 110.511 65.7415 110.376 69.2264Z" fill="#C7C0E5"/>
<path id="Vector_2" d="M19.5499 44.9813L101.85 42.9379C101.912 42.7021 101.953 42.4987 102.019 42.3045C102.097 42.0777 102.268 41.9471 102.511 41.9513C102.753 41.9555 102.924 42.1001 103.006 42.3125C103.083 42.5123 103.121 42.7293 103.163 42.9414C103.595 45.1134 103.825 47.3105 103.924 49.5199C104.187 55.3763 103.628 61.1691 102.518 66.9154C101.095 74.2762 98.8165 81.3575 95.5723 88.1218C94.302 90.7707 92.8473 93.3151 91.2646 95.7904C90.8681 96.4102 90.3807 96.7899 89.7194 97.0582C86.667 98.3015 83.5379 99.3476 80.3515 100.19C75.792 101.39 71.1668 102.238 66.4853 102.805C60.9086 103.479 55.2918 103.763 49.6756 103.657C40.8465 103.497 32.1215 102.48 23.5554 100.272C18.7387 99.0311 14.0527 97.4212 9.59482 95.1961C6.7999 93.8008 4.14474 92.1808 1.7495 90.1586C1.22545 89.715 0.712932 89.2503 0.224171 88.7682C-0.195066 88.3535 -0.168864 88.0495 0.259108 87.6768C6.01733 82.6637 10.2397 76.5341 13.355 69.6087C15.6437 64.5216 17.1316 59.1997 17.8618 53.6721C18.2133 51.0127 18.3876 48.338 18.3359 45.6521C18.3303 45.3628 18.3237 45.0718 18.3446 44.7836C18.3614 44.5558 18.4812 44.3762 18.709 44.2917C18.9368 44.2071 19.1632 44.2885 19.3515 44.5547C19.4319 44.6683 19.4717 44.808 19.5499 44.9813Z" fill="#FEF7FF"/>
<g id="Vector_3" style="mix-blend-mode:multiply" opacity="0.18">
<path d="M83.2544 90.3457C84.1834 90.3576 85.0624 90.4998 85.8799 90.9047C86.2405 91.0836 86.5982 91.3152 86.8794 91.5996C87.5866 92.3147 87.6589 93.3136 87.1142 94.1636C86.7889 94.6682 86.3317 95.0743 85.7922 95.3378C84.2009 96.1364 82.5396 96.3778 80.8026 95.9118C80.1828 95.7455 79.6148 95.4726 79.1529 95.0122C78.3494 94.2086 78.2561 93.206 78.9136 92.2794C79.4272 91.5556 80.1248 91.0511 80.9693 90.8121C81.7155 90.6035 82.4914 90.498 83.2544 90.3457Z" fill="#C7C0E5"/>
</g>
<g id="Vector_4" style="mix-blend-mode:multiply" opacity="0.5">
<path d="M85.6141 87.8235C85.503 87.8207 85.197 87.856 84.9094 87.7976C84.3662 87.6879 83.804 87.5908 83.3024 87.3679C82.4814 87.0032 81.8804 86.3897 81.8109 85.4345C81.7383 84.4325 82.2606 83.731 83.0763 83.2335C84.6272 82.2902 86.2884 82.0806 88.0118 82.6358C88.4936 82.7909 88.9683 83.0728 89.3526 83.4044C90.3309 84.2488 90.3979 85.4139 89.5273 86.3565C89.1825 86.7296 88.735 87.0322 88.286 87.2799C87.5733 87.6743 86.8571 87.7913 85.6141 87.8235Z" fill="#B0A3E5"/>
</g>
<g id="Vector_5" style="mix-blend-mode:multiply" opacity="0.5">
<path d="M89.9092 61.8103C90.7305 61.5347 91.7126 61.5822 92.6849 61.9633C93.146 62.1443 93.5387 62.414 93.843 62.8063C94.3877 63.5082 94.4736 64.4693 93.9855 65.2089C93.7452 65.5733 93.4336 65.9338 93.0709 66.1665C91.6431 67.0829 90.0971 67.2869 88.4796 66.7377C87.944 66.5557 87.4688 66.2532 87.1436 65.7728C86.5986 64.9693 86.6789 63.9826 87.3371 63.1875C87.8441 62.5747 88.6424 62.1307 89.9092 61.8103Z" fill="#B0A3E5"/>
</g>
<g id="Vector_6" style="mix-blend-mode:multiply" opacity="0.18">
<path d="M70.0414 96.1277C69.4231 96.0138 68.7865 95.9572 68.1933 95.7661C67.7863 95.6351 67.3898 95.3706 67.0753 95.0715C66.3556 94.3808 66.268 93.447 66.8496 92.6442C67.127 92.2616 67.4802 91.8815 67.8855 91.6533C69.3441 90.8309 70.8935 90.6119 72.5003 91.2048C72.7792 91.3068 73.0422 91.448 73.2814 91.624C74.1915 92.3025 74.3592 93.4774 73.6867 94.3892C73.3076 94.9001 72.7997 95.3012 72.2148 95.5516C71.528 95.8566 70.8065 96.0194 70.0414 96.1277Z" fill="#C7C0E5"/>
</g>
<g id="Vector_7" style="mix-blend-mode:multiply" opacity="0.5">
<path d="M73.0324 87.7608C72.6219 87.7095 72.103 87.6689 71.5954 87.5708C71.3047 87.5081 71.0256 87.4001 70.7685 87.2507C69.3567 86.4608 69.1747 84.9285 70.3643 83.8214C70.6101 83.5944 70.886 83.4025 71.1842 83.2509C72.4674 82.5979 73.8139 82.4823 75.1932 82.8805C75.5509 82.9825 75.8911 83.1382 76.2021 83.3424C77.202 84.0093 77.3959 85.1993 76.6832 86.167C76.1036 86.9538 75.3022 87.4003 74.361 87.5952C73.9624 87.6777 73.5512 87.6983 73.0324 87.7608Z" fill="#B0A3E5"/>
</g>
<g id="Vector_8" style="mix-blend-mode:multiply" opacity="0.18">
<path d="M59.5616 95.7108C59.1074 95.629 58.4729 95.571 57.8773 95.3866C57.4675 95.2591 57.065 95.0065 56.7432 94.7168C55.8698 93.929 55.829 92.8303 56.6035 91.9446C57.1356 91.3364 57.8347 90.9793 58.6022 90.7917C59.4727 90.5804 60.3776 90.5524 61.2595 90.7096C61.6546 90.7795 62.0487 90.9343 62.4078 91.1191C63.8053 91.8363 64.0215 93.3424 62.899 94.4461C62.2674 95.0669 61.4666 95.3663 60.6233 95.5553C60.3347 95.6189 60.037 95.6419 59.5616 95.7108Z" fill="#C7C0E5"/>
</g>
<g id="Vector_9" style="mix-blend-mode:multiply" opacity="0.5">
<path d="M62.6909 87.5313C62.0896 87.5663 61.4303 87.4545 60.7976 87.2096C60.5223 87.1027 60.2446 86.9741 60.0067 86.8019C58.8751 85.9822 58.7724 84.7123 59.7562 83.7292C59.9655 83.5167 60.2038 83.3348 60.464 83.1891C61.9991 82.3555 63.5887 82.2748 65.2077 82.9197C65.4839 83.0324 65.7404 83.1883 65.9675 83.3816C66.6635 83.9696 66.8298 84.9017 66.4133 85.7139C66.1485 86.2303 65.7384 86.6017 65.2332 86.8696C64.4504 87.2891 63.5788 87.516 62.6909 87.5313Z" fill="#B0A3E5"/>
</g>
<g id="Vector_10" style="mix-blend-mode:multiply" opacity="0.5">
<path d="M77.0924 78.2678C76.4712 78.163 75.8455 78.0813 75.2303 77.9506C74.745 77.8458 74.3432 77.5715 74.011 77.2015C73.2843 76.3917 73.2633 75.2451 74.034 74.4765C74.4054 74.1121 74.8392 73.8174 75.3148 73.6066C76.5173 73.0756 77.7747 73.0336 79.0272 73.4319C79.3812 73.5468 79.7123 73.723 80.0054 73.9525C81.1342 74.8374 81.1604 76.158 80.0959 77.1264C79.3702 77.7864 78.3372 78.1546 77.0924 78.2678Z" fill="#B0A3E5"/>
</g>
<g id="Vector_11" style="mix-blend-mode:multiply" opacity="0.5">
<path d="M66.5213 78.1233C65.9354 78.0304 65.337 77.9836 64.7685 77.8281C64.3842 77.7233 64.0055 77.5137 63.6932 77.2625C62.5889 76.3793 62.5979 74.9703 63.7421 74.1263C64.2117 73.7797 64.7759 73.5208 65.3359 73.3468C66.2352 73.0673 67.1736 73.0628 68.1018 73.2487C68.7338 73.3751 69.3124 73.6256 69.7907 74.07C70.4751 74.7062 70.6106 75.5988 70.14 76.4069C69.8568 76.8948 69.4278 77.2817 68.9134 77.5133C68.1609 77.8636 67.3497 78.0704 66.5213 78.1233Z" fill="#B0A3E5"/>
</g>
<g id="Vector_12" style="mix-blend-mode:multiply" opacity="0.5">
<path d="M52.2977 82.0801C52.9185 82.1849 53.5578 82.2293 54.1546 82.4123C54.6131 82.5604 55.0374 82.7987 55.4025 83.1132C56.2535 83.8405 56.3031 84.8027 55.6013 85.6855C55.2456 86.133 54.79 86.4524 54.2646 86.6665C52.8906 87.2255 51.5001 87.2171 50.1225 86.706C49.269 86.3895 48.6203 85.8036 48.5364 84.8565C48.4519 83.8957 49.0385 83.2595 49.8263 82.8022C50.5848 82.362 51.418 82.1915 52.2977 82.0801Z" fill="#B0A3E5"/>
</g>
<g id="Vector_13" style="mix-blend-mode:multiply" opacity="0.5">
<path d="M49.3849 90.0589C50.1609 90.0107 50.8987 90.1032 51.5901 90.4177C52.4104 90.7908 53.076 91.3445 53.1231 92.3116C53.1682 93.2294 52.6015 93.869 51.8609 94.2827C50.3425 95.1316 48.747 95.226 47.1284 94.551C46.9235 94.4613 46.7307 94.346 46.5547 94.2079C45.2907 93.2426 45.3285 91.7508 46.6547 90.8516C47.4788 90.2923 48.4095 90.0439 49.3849 90.0589Z" fill="#B0A3E5"/>
</g>
<g id="Vector_14" style="mix-blend-mode:multiply" opacity="0.5">
<path d="M87.103 78.272C86.187 78.1728 85.2248 78.0833 84.4611 77.3713C83.4644 76.4427 83.4525 75.1752 84.4611 74.2554C85.2647 73.5217 86.2492 73.1954 87.3154 73.1594C88.1794 73.1304 89.0165 73.2991 89.7669 73.7718C91.1424 74.6386 91.2343 76.2918 89.9612 77.3154C89.1419 77.9764 88.157 78.149 87.103 78.272Z" fill="#B0A3E5"/>
</g>
<g id="Vector_15" style="mix-blend-mode:multiply" opacity="0.5">
<path d="M57.2614 67.1808C56.9487 67.1284 56.3209 67.0516 55.7078 66.9122C55.1551 66.7864 54.6758 66.4877 54.2785 66.08C53.5124 65.2939 53.5239 64.2664 54.3313 63.5136C54.5989 63.2641 54.9161 63.0339 55.2526 62.899C56.7996 62.2786 58.3619 62.215 59.9113 62.9036C60.71 63.2589 61.3116 63.8186 61.3182 64.7409C61.3249 65.607 60.7746 66.1652 60.0434 66.5625C59.3293 66.9513 58.4472 67.1787 57.2614 67.1808Z" fill="#B0A3E5"/>
</g>
<g id="Vector_16" style="mix-blend-mode:multiply" opacity="0.5">
<path d="M68.1745 67.2899C67.5897 67.1977 67.0003 67.1261 66.4207 67.0083C65.8582 66.8937 65.3985 66.5723 65.0016 66.1671C64.1837 65.331 64.2372 64.1869 65.1494 63.4378C65.4349 63.2002 65.7548 63.0073 66.0982 62.8656C67.3437 62.3691 68.6304 62.2678 69.9189 62.6612C70.373 62.8009 70.8293 63.0176 71.2007 63.3072C72.0741 63.987 72.1576 65.1427 71.404 65.9547C71.1088 66.2726 70.728 66.5395 70.3388 66.7362C69.6701 67.0744 68.9403 67.2316 68.1745 67.2899Z" fill="#B0A3E5"/>
</g>
<g id="Vector_17" style="mix-blend-mode:multiply" opacity="0.5">
<path d="M41.3115 85.5851C40.8224 85.5086 40.196 85.422 39.5759 85.3074C39.3564 85.263 39.145 85.1851 38.9491 85.0764C38.2249 84.6865 37.6824 84.1436 37.6254 83.2713C37.5664 82.3724 38.088 81.7893 38.8063 81.3955C40.5052 80.4634 42.2279 80.5165 43.9419 81.384C44.0402 81.4372 44.1337 81.4988 44.2214 81.5681C45.2887 82.3717 45.353 83.6472 44.3552 84.5377C43.8748 84.9671 43.2952 85.234 42.6709 85.3783C42.2723 85.4709 41.8611 85.5044 41.3115 85.5851Z" fill="#B0A3E5"/>
</g>
<g id="Vector_18" style="mix-blend-mode:multiply" opacity="0.5">
<path d="M78.5213 67.152C77.6789 67.1171 76.7608 67.0277 75.9482 66.4956C74.5692 65.5928 74.5158 64.0759 75.8472 63.1029C76.6557 62.5118 77.6056 62.3056 78.5786 62.2805C79.1267 62.2665 79.686 62.3776 80.2265 62.4947C80.5448 62.5645 80.8582 62.7207 81.1348 62.8971C82.4652 63.7433 82.5459 65.2599 81.3095 66.2304C80.5245 66.847 79.6011 67.1014 78.5213 67.152Z" fill="#B0A3E5"/>
</g>
<g id="Vector_19" style="mix-blend-mode:multiply" opacity="0.5">
<path d="M46.1093 65.9236C45.4966 65.8303 44.8705 65.7601 44.256 65.634C43.6184 65.503 43.0996 65.1379 42.6691 64.6579C41.9861 63.897 41.9732 63.0022 42.6716 62.2595C42.9252 61.9891 43.2301 61.7719 43.5684 61.6205C45.1123 60.9504 46.668 60.9679 48.2059 61.6575C48.4419 61.7664 48.6631 61.9047 48.8644 62.0691C49.9003 62.8999 49.9338 64.0699 48.9161 64.9084C48.5719 65.19 48.1809 65.4087 47.7608 65.5547C47.2409 65.7329 46.6826 65.8006 46.1093 65.9236Z" fill="#B0A3E5"/>
</g>
<g id="Vector_20" style="mix-blend-mode:multiply" opacity="0.5">
<path d="M36.7289 93.4327C35.9324 93.4841 35.1078 93.2811 34.3155 92.9436C33.7565 92.7057 33.3002 92.3399 33.0131 91.7837C32.6906 91.1601 32.7374 90.5707 33.1427 90.0051C33.4685 89.5488 33.9256 89.2026 34.4531 89.0126C35.9634 88.4497 37.4385 88.5839 38.8813 89.2526C39.0479 89.3342 39.2041 89.4354 39.3467 89.5541C40.4549 90.4439 40.4479 91.8036 39.3166 92.6763C38.5809 93.2434 37.7127 93.4159 36.7289 93.4327Z" fill="#B0A3E5"/>
</g>
<g id="Vector_21" style="mix-blend-mode:multiply" opacity="0.5">
<path d="M92.2503 50.5273C92.9839 50.5668 93.6778 50.6873 94.3213 51.0095C95.7925 51.7463 95.9829 53.3125 94.7276 54.369C94.4698 54.5822 94.1852 54.7608 93.8811 54.9003C92.688 55.4593 91.4419 55.5491 90.1799 55.2004C89.7866 55.09 89.4163 54.91 89.0864 54.6691C88.0003 53.8694 87.9335 52.5872 88.9565 51.7236C89.3722 51.3742 89.89 51.102 90.4056 50.9221C90.9947 50.7167 91.6333 50.6528 92.2503 50.5273Z" fill="#B0A3E5"/>
</g>
<g id="Vector_22" style="mix-blend-mode:multiply" opacity="0.5">
<path d="M30.194 79.4492C30.8997 79.597 31.595 79.7116 32.271 79.895C32.779 80.0327 33.2055 80.3457 33.5559 80.745C34.2547 81.5423 34.2442 82.4807 33.4983 83.2381C33.2635 83.4754 32.9915 83.6729 32.693 83.8226C31.1506 84.5884 29.5907 84.4909 28.0776 83.7667C27.3107 83.3998 26.7276 82.7752 26.7622 81.8549C26.7971 80.9026 27.3841 80.273 28.2519 79.96C28.8745 79.7357 29.5358 79.618 30.194 79.4492Z" fill="#B0A3E5"/>
</g>
<g id="Vector_23" style="mix-blend-mode:multiply" opacity="0.5">
<path d="M69.2823 51.9551C69.7763 52.0428 70.3654 52.1224 70.9404 52.259C71.2648 52.3381 71.5751 52.4664 71.8607 52.6395C73.2679 53.4891 73.2931 54.9453 71.9305 55.8638C71.2961 56.2917 70.574 56.4619 69.8364 56.5583C68.8614 56.6858 67.8996 56.5559 67.0115 56.1436C66.5763 55.9401 66.1887 55.6474 65.874 55.2845C65.2689 54.5732 65.3782 53.6174 66.0752 52.9923C66.2969 52.7952 66.545 52.6298 66.8123 52.5011C67.5603 52.142 68.3698 52.034 69.2823 51.9551Z" fill="#B0A3E5"/>
</g>
<g id="Vector_24" style="mix-blend-mode:multiply" opacity="0.5">
<path d="M26.8059 92.1726C25.8819 92.1506 25.0064 91.9577 24.2004 91.5605C23.7811 91.3537 23.3913 91.0239 23.0824 90.6672C22.5234 90.0195 22.5584 89.3162 23.0873 88.6321C23.4402 88.178 23.9055 87.8824 24.4467 87.6983C25.8648 87.2162 27.2416 87.4073 28.5692 88.0085C28.8979 88.1574 29.2001 88.4103 29.4524 88.6748C30.2538 89.5164 30.1895 90.555 29.292 91.3069C29.0373 91.5239 28.7433 91.6899 28.4259 91.796C27.8995 91.9605 27.3478 92.0507 26.8059 92.1726Z" fill="#B0A3E5"/>
</g>
<g id="Vector_25" style="mix-blend-mode:multiply" opacity="0.5">
<path d="M20.4471 83.4904C20.0349 83.4338 19.551 83.3961 19.0804 83.2948C18.4917 83.1679 17.9708 82.8913 17.5117 82.4863C16.1971 81.3264 16.7397 79.7414 17.91 79.1531C18.4606 78.8764 19.1014 78.7055 19.7166 78.6458C20.6518 78.5549 21.5682 78.766 22.4126 79.2006C22.7109 79.3522 22.9844 79.5482 23.2239 79.7819C24.1049 80.6627 24.0166 81.9354 23.0335 82.7043C22.2959 83.2811 21.4166 83.4198 20.4471 83.4904Z" fill="#B0A3E5"/>
</g>
<g id="Vector_26" style="mix-blend-mode:multiply" opacity="0.5">
<path d="M58.8017 56.6046C58.3168 56.5396 57.6866 56.4848 57.0689 56.3642C56.4694 56.2476 55.968 55.9136 55.5411 55.4804C54.7275 54.6538 54.7875 53.5816 55.7004 52.8626C55.9369 52.681 56.1961 52.5311 56.4715 52.4168C58.0034 51.7659 59.5347 51.8578 61.0237 52.5335C61.4139 52.7102 61.7787 53.0268 62.0508 53.3636C62.6039 54.048 62.5249 54.841 61.9237 55.4908C61.4482 56.0051 60.8315 56.2654 60.1695 56.416C59.7723 56.5061 59.3597 56.5305 58.8017 56.6046Z" fill="#B0A3E5"/>
</g>
<g id="Vector_27" style="mix-blend-mode:multiply" opacity="0.21">
<path d="M47.09 51.5117C47.7454 51.6214 48.4092 51.6948 49.0535 51.851C49.6407 51.9935 50.1365 52.3401 50.5358 52.7984C51.1731 53.53 51.1699 54.4125 50.5009 55.1042C50.2727 55.3401 49.9971 55.5612 49.7001 55.6929C48.1979 56.3567 46.6677 56.3703 45.1563 55.732C44.7909 55.5776 44.4426 55.3159 44.1669 55.0267C43.3634 54.1833 43.4483 53.1401 44.3489 52.4001C44.8807 51.9641 45.5158 51.7545 46.1862 51.6543C46.479 51.6106 46.7784 51.6078 47.0747 51.5861L47.09 51.5117Z" fill="#C7C0E5"/>
</g>
<g id="Vector_28" style="mix-blend-mode:multiply" opacity="0.5">
<path d="M79.5246 51.7148C80.1821 51.8197 80.8588 51.8619 81.4905 52.0534C81.9352 52.1886 82.3747 52.4674 82.7174 52.787C83.4574 53.4798 83.4434 54.5852 82.6825 55.2626C82.2908 55.6043 81.8412 55.8732 81.3549 56.0567C80.2422 56.4798 79.0921 56.469 77.9465 56.1542C77.4023 56.0112 76.9039 55.7311 76.4988 55.3405C75.6463 54.5094 75.7137 53.3492 76.6686 52.6344C77.2426 52.204 77.8955 51.9262 78.6187 51.8556C78.9146 51.8266 79.2126 51.8354 79.512 51.827C79.5159 51.7903 79.5201 51.7526 79.5246 51.7148Z" fill="#B0A3E5"/>
</g>
<g id="Vector_29" style="mix-blend-mode:multiply" opacity="0.5">
<path d="M35.917 65.4908C35.1222 65.5362 34.3449 65.4262 33.6318 65.0842C33.2053 64.8798 32.7769 64.6087 32.4559 64.2673C31.6132 63.3726 31.7757 62.1806 32.7815 61.4745C33.4781 60.9854 34.2883 60.8181 35.1061 60.7912C35.924 60.7643 36.7527 60.8663 37.4972 61.2373C37.9217 61.4469 38.3406 61.7264 38.6679 62.0646C39.4061 62.8287 39.3509 63.7954 38.582 64.5381C38.0579 65.0457 37.4109 65.3186 36.6954 65.4248C36.4379 65.4629 36.1762 65.4685 35.917 65.4908Z" fill="#B0A3E5"/>
</g>
<g id="Vector_30" style="mix-blend-mode:multiply" opacity="0.21">
<path d="M36.7691 51.2734C37.6132 51.3084 38.4531 51.4355 39.2437 51.7877C39.4807 51.8934 39.7037 52.0281 39.9075 52.1888C41.0873 53.123 41.0034 54.532 39.7199 55.3131C38.9719 55.7673 38.1358 55.9867 37.2743 55.9368C36.6161 55.8983 35.9534 55.7425 35.3179 55.5493C34.9423 55.4347 34.5807 55.1909 34.2806 54.9278C33.1088 53.9007 33.2612 52.5912 34.6191 51.8485C35.2829 51.4858 36.0096 51.3461 36.7691 51.2734Z" fill="#C7C0E5"/>
</g>
<g id="Vector_31" style="mix-blend-mode:multiply" opacity="0.5">
<path d="M17.0614 90.5889C15.9679 90.5631 15.0795 90.4328 14.27 90.0342C13.8397 89.8181 13.4537 89.5234 13.1318 89.1653C12.4872 88.4477 12.5452 87.5397 13.253 86.8763C13.5251 86.6248 13.8423 86.427 14.1879 86.2935C15.795 85.6755 17.3392 85.9379 18.7925 86.7673C19.4728 87.1554 19.9154 87.7905 19.8571 88.6025C19.798 89.4277 19.2355 89.9426 18.4945 90.2151C17.9768 90.4066 17.4209 90.4985 17.0614 90.5889Z" fill="#B0A3E5"/>
</g>
<g id="Vector_32" style="mix-blend-mode:multiply" opacity="0.5">
<path d="M25.8532 64.6723C25.4287 64.5923 24.7652 64.5008 24.1207 64.3363C23.4481 64.1644 22.9283 63.7256 22.5091 63.1855C21.688 62.1272 21.9773 60.8797 23.1749 60.2913C23.7105 60.021 24.303 59.883 24.9029 59.8889C25.8874 59.9053 26.8216 60.1289 27.6901 60.6068C28.1261 60.8465 28.4758 61.1703 28.7204 61.6046C29.1575 62.3805 29.0638 63.0967 28.4458 63.7507C28.0175 64.2049 27.4711 64.4288 26.8779 64.5518C26.6235 64.6042 26.3604 64.6147 25.8532 64.6723Z" fill="#B0A3E5"/>
</g>
<path id="Vector_33" d="M55.0544 77.0988C54.74 77.0464 54.1142 76.9698 53.5008 76.8301C52.9481 76.7043 52.4687 76.4056 52.0715 75.9983C51.3054 75.2119 51.3172 74.1844 52.1243 73.4315C52.3919 73.182 52.7094 72.9518 53.0455 72.817C54.5925 72.1965 56.1549 72.1329 57.7043 72.8218C58.503 73.1768 59.1046 73.7365 59.1112 74.6588C59.1178 75.5249 58.5676 76.0832 57.8364 76.4804C57.1226 76.8685 56.2401 77.0956 55.0544 77.0988Z" fill="#D85946"/>
<path id="Vector_34" d="M44.3887 76.4959C43.7759 76.4026 43.1499 76.3324 42.5353 76.2063C41.8977 76.0752 41.3793 75.7102 40.9485 75.2301C40.2655 74.4692 40.2526 73.5745 40.951 72.8317C41.2046 72.5614 41.5094 72.3442 41.8478 72.1928C43.3916 71.5227 44.9473 71.5401 46.4852 72.2298C46.7212 72.3387 46.9425 72.4769 47.1438 72.6413C48.1796 73.4721 48.2132 74.6421 47.1955 75.4806C46.8512 75.7621 46.4602 75.9809 46.0401 76.1269C45.5203 76.3058 44.962 76.3736 44.3887 76.4959Z" fill="#D85946"/>
<path id="Vector_35" d="M33.71 75.4088C32.9152 75.4546 32.1379 75.3442 31.4252 75.0025C30.9983 74.7978 30.5703 74.5266 30.2489 74.1853C29.4066 73.2906 29.5687 72.0986 30.5745 71.3928C31.2711 70.9037 32.0813 70.736 32.8991 70.7091C33.717 70.6822 34.5457 70.7843 35.2905 71.1553C35.7147 71.3649 36.1336 71.6444 36.4609 71.9826C37.1991 72.7466 37.1439 73.7133 36.375 74.4561C35.8509 74.9637 35.2039 75.2369 34.4884 75.3428C34.2309 75.3808 33.9693 75.3878 33.71 75.4088Z" fill="#D85946"/>
<path id="Vector_36" d="M23.8842 73.3184C22.6562 73.2751 21.0501 72.8492 20.3699 71.7246C19.5929 70.4396 20.6595 68.9646 21.9742 68.6656C23.4125 68.3368 25.1789 68.6932 26.2798 69.7074C26.6924 70.0871 26.9858 70.6224 26.9813 71.1831C26.9764 71.777 26.6347 72.336 26.1613 72.6969C25.6879 73.0578 25.0961 73.2328 24.5053 73.2981C24.299 73.3199 24.0914 73.3267 23.8842 73.3184Z" fill="#D85946"/>
<path id="Vector_37" d="M24.3419 74.0424C24.217 74.0459 24.0889 74.0454 23.9576 74.0407C22.3603 73.9844 20.3469 73.4174 19.4857 71.9945C19.0797 71.323 19.0273 70.5485 19.339 69.8141C19.7187 68.9187 20.5942 68.1962 21.5697 67.9733C23.4978 67.5327 25.6922 68.0648 27.0306 69.2977C27.62 69.841 27.955 70.5495 27.9494 71.2419C27.9435 71.9861 27.541 72.733 26.8723 73.2406C26.32 73.6599 25.6052 73.9202 24.7475 74.0148C24.6179 74.0288 24.4823 74.0383 24.3419 74.0424ZM23.968 73.7084C24.2156 73.7185 24.4636 73.7105 24.7101 73.6847C25.5073 73.5967 26.1669 73.358 26.6707 72.9758C27.2577 72.53 27.6116 71.8809 27.6165 71.2391C27.6213 70.6403 27.3254 70.022 26.8049 69.5423C25.5433 68.3803 23.4688 67.88 21.643 68.2971C20.7696 68.497 19.9835 69.1433 19.644 69.944C19.4539 70.3923 19.3215 71.0819 19.7694 71.8226C20.5614 73.132 22.4577 73.6553 23.968 73.7091V73.7084Z" fill="#D85946"/>
<path id="Vector_38" d="M34.4001 76.0931C34.2762 76.1069 34.1481 76.1169 34.0158 76.1232C32.4192 76.1993 30.366 75.8004 29.3905 74.4532C28.9304 73.8174 28.8144 73.0502 29.0642 72.2924C29.3689 71.3687 30.1822 70.5763 31.1356 70.2734C33.0222 69.6753 35.2515 70.0247 36.687 71.143C37.3194 71.6353 37.7117 72.3141 37.7634 73.0044C37.819 73.7465 37.4794 74.5241 36.8551 75.0852C36.3394 75.5485 35.6487 75.8671 34.8015 76.0324C34.6747 76.0572 34.5398 76.0774 34.4001 76.0931ZM34.0001 75.7913C34.2476 75.7807 34.4941 75.7523 34.7376 75.7064C35.5247 75.5527 36.1623 75.2603 36.6329 74.8379C37.181 74.3453 37.4801 73.6693 37.4322 73.0292C37.3875 72.4322 37.0413 71.8414 36.483 71.405C35.1299 70.3513 33.0211 70.0236 31.2362 70.5903C30.3806 70.8618 29.6522 71.5706 29.3801 72.3965C29.2274 72.8587 29.1523 73.5571 29.6596 74.2583C30.5571 75.4982 32.4894 75.8633 33.9997 75.7913H34.0001Z" fill="#D85946"/>
<path id="Vector_39" d="M45.4784 77.0683C45.3554 77.0895 45.2281 77.1071 45.0965 77.1214C43.5076 77.2922 41.4341 77.0165 40.3801 75.7295C39.8829 75.1223 39.7215 74.3635 39.9259 73.5921C40.1747 72.6519 40.9391 71.8124 41.8733 71.4533C43.7193 70.7441 45.9671 70.96 47.4666 71.9906C48.1272 72.4448 48.559 73.0988 48.652 73.7849C48.7515 74.5221 48.4588 75.319 47.8687 75.916C47.3817 76.409 46.7109 76.7682 45.8752 76.9837C45.7495 77.0162 45.6167 77.0445 45.4784 77.0683ZM45.0609 76.7909C45.3074 76.7656 45.5518 76.7226 45.7921 76.6619C46.5691 76.4618 47.1895 76.1323 47.6322 75.6837C48.1503 75.1597 48.4085 74.4669 48.3225 73.8321C48.2422 73.2382 47.8617 72.6684 47.2783 72.2673C45.8648 71.2961 43.7406 71.0948 41.9924 71.7663C41.1539 72.0884 40.4695 72.8395 40.2456 73.6801C40.1209 74.1507 40.0877 74.8522 40.6358 75.522C41.6057 76.706 43.5569 76.9544 45.0595 76.7937L45.0609 76.7909Z" fill="#D85946"/>
<path id="Vector_40" d="M56.5343 77.6776C56.4117 77.6986 56.2842 77.7164 56.1528 77.7304C54.5636 77.9016 52.4901 77.6256 51.4364 76.3389C50.9393 75.7317 50.7779 74.9725 50.9822 74.2015C51.2313 73.2613 51.9954 72.4218 52.93 72.0626C54.776 71.3534 57.0235 71.5693 58.5233 72.6C59.1836 73.0541 59.6157 73.7078 59.7083 74.3943C59.8082 75.1315 59.5155 75.928 58.9254 76.5254C58.4384 77.0184 57.7676 77.3775 56.9319 77.5931C56.8058 77.6249 56.673 77.6539 56.5343 77.6776ZM56.1172 77.4002C56.3637 77.3748 56.6081 77.3318 56.8484 77.2713C57.6251 77.0711 58.2459 76.7413 58.6885 76.2931C59.2066 75.7691 59.4648 75.0759 59.3789 74.4415C59.2985 73.8475 58.9181 73.2777 58.3346 72.8767C56.9211 71.9051 54.797 71.7038 53.0487 72.3757C52.2103 72.6978 51.5259 73.4489 51.3019 74.2895C51.1772 74.7601 51.1437 75.4616 51.6922 76.131C52.662 77.3153 54.6132 77.5634 56.1158 77.403L56.1172 77.4002Z" fill="#D85946"/>
<g id="Vector_41" style="mix-blend-mode:multiply" opacity="0.21">
<path d="M27.6479 55.1844C26.7357 55.2494 25.8661 55.0894 25.0521 54.6631C24.5829 54.4186 24.1766 54.0954 23.8897 53.6409C23.4097 52.8796 23.5054 52.1226 24.1975 51.5447C24.456 51.3317 24.7502 51.1661 25.0664 51.0556C26.4698 50.5665 27.8547 50.6675 29.1983 51.2851C29.4685 51.4126 29.7198 51.5768 29.9449 51.7732C30.8735 52.5739 30.8351 53.8173 29.8667 54.5646C29.38 54.9402 28.8091 55.1044 28.2065 55.1655C28.0213 55.1851 27.8341 55.1791 27.6479 55.1844Z" fill="#C7C0E5"/>
</g>
<path id="Vector_42" d="M85.6979 41.3909C85.8524 42.1441 86.1157 42.8709 86.4798 43.5482C79.6488 43.7543 72.8179 43.961 65.9871 44.1683C64.4167 42.9082 63.8864 40.8043 64.5746 38.9527C64.9901 37.8355 65.8223 36.9228 66.8965 36.4061L74.7946 36.184L86.6478 35.8496C85.6588 37.4273 85.2713 39.3859 85.6979 41.3909Z" fill="#999ADA"/>
<path id="Vector_43" d="M62.403 44.2792C56.5971 44.4563 50.7913 44.6326 44.9858 44.8082C43.3298 43.5711 42.6573 41.3495 43.4675 39.371C43.8574 38.4159 44.556 37.619 45.4519 37.1075C46.9113 37.0639 48.3705 37.0198 49.8294 36.9751L53.2703 36.8703C53.2703 36.8703 53.2703 36.8703 53.2724 36.8703C56.0168 36.7876 58.7609 36.7044 61.5048 36.6208V36.5611L62.6256 36.5293C61.8877 37.6789 61.4772 39.008 61.4381 40.3735C61.399 41.7389 61.7329 43.0893 62.4037 44.2792H62.403Z" fill="#999ADA"/>
<path id="Vector_44" d="M43.4682 39.3667C42.658 41.3465 43.3305 43.5668 44.9865 44.8039L41.3248 44.9153C36.2255 45.0697 31.1265 45.2248 26.0279 45.3807L22.3296 45.4938C22.1318 45.4994 21.9338 45.5054 21.7356 45.5117C21.1938 45.5281 20.6526 45.5948 20.1118 45.6416C18.0219 45.8222 16.6031 44.4653 16.0941 43.1105C15.3213 41.0492 16.5095 38.4405 19.0242 37.9637C19.3094 37.9136 19.598 37.886 19.8875 37.8812C20.7011 37.856 21.5147 37.8312 22.3285 37.8068L26.3389 37.6845L31.5765 37.5248L32.583 37.4941C32.5869 37.4938 32.5907 37.4938 32.5946 37.4941L41.3685 37.2272L45.4498 37.1035C44.555 37.6154 43.8574 38.4122 43.4682 39.3667Z" fill="#999ADA"/>
<path id="Vector_45" d="M65.9871 44.1716C64.7923 44.2073 63.5976 44.2435 62.403 44.2803C61.7321 43.0903 61.3983 41.74 61.4373 40.3745C61.4764 39.009 61.887 37.68 62.6248 36.5303L66.8965 36.4102C65.8225 36.9266 64.9903 37.8391 64.5746 38.956C63.8864 40.8076 64.4167 42.9115 65.9871 44.1716Z" fill="#999ADA"/>
<path id="Vector_46" d="M103.12 43.1205C101.382 43.1554 99.6435 43.1485 97.9061 43.2005L90.103 43.4363C88.4533 42.1353 88.0089 39.9878 88.6706 38.198C89.0641 37.1366 89.8354 36.2577 90.8367 35.7297C92.2185 35.6915 93.6002 35.6525 94.9815 35.6127C96.3119 35.5756 97.6423 35.5381 98.9727 35.5002L100.839 35.4478C101.6 35.4265 102.36 35.3713 103.12 35.358C104.983 35.3265 106.551 36.6122 106.953 38.4177C107.432 40.5639 105.932 43.0639 103.12 43.1205Z" fill="#999ADA"/>
<path id="Vector_47" d="M90.104 43.4371C88.8959 43.4734 87.6878 43.5099 86.4797 43.5464C86.1157 42.8691 85.8523 42.1424 85.6979 41.3891C85.2713 39.3841 85.6587 37.4256 86.6478 35.8486C88.0452 35.8099 89.4427 35.7705 90.8402 35.7305C89.8388 36.2584 89.0676 37.1373 88.6741 38.1987C88.01 39.9885 88.4543 42.1361 90.104 43.4371Z" fill="#999ADA"/>
<path id="Vector_48" d="M53.7674 36.7732C53.6014 36.8123 53.4369 36.843 53.2734 36.8664C53.2734 36.8664 53.2734 36.8664 53.2713 36.8664L49.8304 36.9713L49.8119 36.9678C49.6022 36.9265 49.4132 36.7973 49.2078 36.7288C48.5907 36.5237 47.9374 36.451 47.2903 36.5156C46.6433 36.5802 46.0172 36.7806 45.4528 37.1037C44.557 37.6152 43.8583 38.4121 43.4684 39.3672C42.6583 41.347 43.3308 43.5673 44.9868 44.8044C45.2806 45.024 45.5992 45.2084 45.936 45.3539C46.2344 45.4835 46.5558 45.5635 46.8444 45.7099C47.5508 46.0663 47.8537 46.6857 47.6514 47.2992C47.4009 48.0594 46.6309 48.5268 45.8623 48.327C43.8674 47.8078 42.3456 46.6612 41.324 44.9158C41.2636 44.811 41.2046 44.7062 41.1494 44.6014C39.8309 42.1146 40.0775 39.3536 41.3719 37.2298C41.9194 36.3302 42.6508 35.5563 43.5181 34.9589C46.6008 32.8418 50.8103 33.3351 53.3037 36.1118C53.4631 36.2855 53.5801 36.5028 53.7674 36.7732Z" fill="#C7C0E5"/>
<path id="Vector_49" d="M34.7266 37.3122C34.4423 37.3688 34.2414 37.4334 34.0377 37.4446C33.4232 37.4795 32.8065 37.4774 32.1924 37.5179C31.4754 37.5727 30.7547 37.4834 30.0728 37.2552C27.7621 36.4845 25.2844 37.7314 24.4138 40.0107C23.5463 42.2815 24.5884 44.8203 26.8149 45.8419C27.1102 45.9774 27.427 46.0651 27.7233 46.1982C28.1299 46.3806 28.4762 46.6412 28.6159 47.0902C28.9045 48.0184 28.0286 49.0428 27.0557 48.9132C26.8412 48.8793 26.6301 48.8268 26.4247 48.7563C23.0774 47.6883 20.8901 44.3043 21.3009 40.8334C21.7299 37.2074 24.6485 34.4149 28.2428 34.2028C30.6779 34.0592 32.7049 34.9271 34.3472 36.7134C34.4849 36.8629 34.5698 37.061 34.7266 37.3122Z" fill="#C7C0E5"/>
<path id="Vector_50" d="M98.9758 35.5036C97.6455 35.5416 96.3151 35.5791 94.9847 35.6161C94.7279 35.5716 94.4747 35.5086 94.2269 35.4278C93.066 35.0502 91.8562 35.1976 90.8399 35.7332C89.8385 36.2611 89.0673 37.14 88.6738 38.2014C88.01 39.9912 88.4551 42.1388 90.1062 43.4398C90.3791 43.6544 90.674 43.8394 90.9859 43.9918C91.2451 44.1193 91.5316 44.1881 91.7912 44.3139C92.0508 44.4397 92.3191 44.5672 92.5311 44.7534C93.0374 45.1992 93.0901 45.8637 92.7023 46.4209C92.2799 47.0292 91.6637 47.2569 90.8912 47.0082C88.8855 46.3626 87.3888 45.2118 86.4819 43.5495C86.1179 42.8722 85.8545 42.1454 85.7 41.3922C85.2734 39.3872 85.6609 37.4286 86.6499 35.8516C87.6599 34.2379 89.3002 33.0242 91.3398 32.5697C94.2745 31.9157 96.7724 32.8142 98.7578 35.0851C98.8417 35.1833 98.8826 35.3202 98.9758 35.5036Z" fill="#C7C0E5"/>
<path id="Vector_51" d="M74.7946 36.1857L70.6137 36.3034C70.4838 36.2709 70.3538 36.2335 70.2217 36.1885C69.0902 35.8076 67.9065 35.9219 66.8965 36.4079C65.8225 36.9243 64.9903 37.8368 64.5746 38.9537C63.8864 40.8053 64.4167 42.9085 65.9871 44.1686C66.292 44.4132 66.6257 44.6195 66.9807 44.7832C67.2749 44.9198 67.5963 44.997 67.8915 45.1325C68.295 45.3166 68.6398 45.579 68.7886 46.0231C69.0853 46.9118 68.171 47.9991 67.2326 47.8705C67.0551 47.846 66.8832 47.7811 66.7085 47.729C64.8806 47.1789 63.3369 45.942 62.4016 44.278C61.7307 43.088 61.3969 41.7377 61.4359 40.3722C61.475 39.0067 61.8856 37.6777 62.6234 36.528C63.6072 34.9933 65.1388 33.832 66.981 33.3719C69.908 32.6382 72.4067 33.4452 74.4784 35.6165C74.5987 35.75 74.7034 35.8968 74.7904 36.0539C74.8092 36.0826 74.804 36.1238 74.7946 36.1857Z" fill="#C7C0E5"/>
<g id="Vector_52" style="mix-blend-mode:multiply" opacity="0.5">
<path d="M105.647 59.5549C105.378 65.9426 104.341 72.2747 102.559 78.4146C101.155 83.2561 99.2886 87.9516 96.9865 92.4363C96.8551 92.4925 96.7231 92.5475 96.5903 92.6016C97.6682 90.5287 98.6505 88.4092 99.5372 86.2431C101.949 80.3482 103.641 74.1842 104.578 67.8844C105.523 61.5543 105.689 55.132 105.07 48.7616C105.052 48.5841 105.329 48.5775 105.346 48.7539C105.697 52.3429 105.798 55.9519 105.647 59.5549Z" fill="#C7C0E5"/>
</g>
<g id="Vector_53" style="mix-blend-mode:multiply" opacity="0.5">
<path d="M107.176 65.1199C106.998 70.5158 106.655 75.9383 105.712 81.2605C105.276 83.7176 104.702 86.1562 103.943 88.5336C103.822 88.6269 103.699 88.7177 103.576 88.8078L103.568 88.8134C103.663 88.5211 103.756 88.2278 103.847 87.9334C105.401 82.8547 106.123 77.5573 106.521 72.2749C106.731 69.4956 106.869 66.711 106.934 63.9212C107.004 60.9279 106.956 57.9286 106.642 54.9488C106.624 54.7714 106.9 54.7654 106.919 54.9412C107.275 58.322 107.288 61.7258 107.176 65.1199Z" fill="#C7C0E5"/>
</g>
<path id="Vector_54" d="M122.699 40.4759C121.337 39.0952 119.861 37.5556 118.115 36.6591C116.334 35.7448 114.32 35.8308 112.383 36.003C110.179 36.1986 107.993 36.3143 105.78 36.1675C104.243 36.0655 102.155 35.8611 101.13 34.6181C100.848 34.0001 100.624 33.358 100.501 32.6739C100.351 31.8354 100.177 31.0004 100.068 30.1585C99.8482 28.4466 99.3217 26.8353 98.4629 25.3442C98.1331 24.7662 97.7392 24.2271 97.2887 23.7372C95.805 22.1427 94.0306 20.9531 92.0133 20.1268C91.8753 20.0702 91.737 20.0164 91.5983 19.964C90.2088 18.9912 88.557 18.4624 86.8609 18.4474C84.5324 18.4324 82.024 19.4333 81.2623 21.8013C81.2555 21.8229 81.2519 21.8454 81.2515 21.8681C79.6228 21.4698 77.8543 21.8401 76.5501 22.9137C75.8217 23.5136 75.3846 24.2266 75.2466 25.1661C75.1418 25.8774 75.0692 26.6596 75.1701 27.3954C74.9736 27.7703 74.7965 28.1551 74.6394 28.5483C74.2642 29.2317 73.926 29.9348 73.6263 30.6546C72.9307 32.3315 72.1911 34.3075 72.4147 36.1532C72.6243 37.878 73.7203 38.8479 75.247 39.5008C76.9208 40.2117 78.6659 40.7412 80.4525 41.0803C81.523 41.8182 82.36 42.7988 83.0665 43.9325C83.5936 44.7794 83.9315 45.6727 84.1495 46.5968C84.1177 47.9803 83.7877 49.3407 83.1821 50.5851C82.3143 52.3525 80.9165 53.6595 79.3279 54.7824C76.6378 56.6829 73.2018 58.5003 72.5387 62.0516C72.5115 62.1973 72.7347 62.2612 72.762 62.1131C73.4956 58.1796 77.5968 56.4911 80.4151 54.2601C82.5896 52.5415 84.0097 50.1201 84.3242 47.4461C84.4014 47.9229 84.4545 48.4065 84.4901 48.8949C83.2509 53.7109 79.555 56.8408 76.4715 60.5399C74.172 63.2999 73.5596 67.8881 76.6238 70.3371L76.6301 70.341C76.6364 70.3553 76.6416 70.3699 76.6483 70.3843C77.151 71.5057 77.9535 72.3757 79.0788 72.8686C79.8191 73.1921 80.609 73.4625 81.4031 73.5872C82.4935 73.7619 83.609 73.7756 84.5631 73.8468C86.4224 73.7256 88.1218 73.6169 89.8207 73.5034C92.508 73.3242 95.0696 72.6541 97.5347 71.5721C98.4818 71.1564 99.4586 70.8035 100.438 70.4667C101.838 69.9865 103.205 69.4147 104.53 68.7548C106.616 67.7141 108.697 66.6587 110.819 65.6965C114.075 64.2194 116.87 62.1414 119.266 59.5023C120.881 57.7237 121.871 55.6401 122.239 53.279C122.51 51.5476 122.433 49.8525 121.777 48.2482C122.5 44.342 119.324 40.3176 116.005 38.371C113.604 36.9637 110.838 36.9644 108.14 36.9686C106.619 36.9711 104.965 37.05 103.493 36.6105C102.613 36.3478 101.984 35.8584 101.488 35.241C102.193 35.7787 103.115 36.0847 103.994 36.2192C106.195 36.5602 108.496 36.5396 110.711 36.3782C112.858 36.2217 115.126 35.792 117.216 36.5204C119.306 37.2488 121.016 39.0959 122.537 40.6373C122.64 40.746 122.804 40.5821 122.699 40.4759ZM75.8378 39.4935C75.0279 39.1696 74.1465 38.822 73.5368 38.1718C72.8891 37.4811 72.6212 36.5159 72.6135 35.5865C72.5992 33.8198 73.3003 31.9734 73.998 30.3747C74.0424 30.2731 74.0895 30.1731 74.1353 30.0725C73.788 31.3302 73.5739 32.6169 73.4016 33.9113C73.3318 34.4221 73.3555 34.9458 73.351 35.4636C73.3408 36.5987 73.846 37.4668 74.7946 38.0555C75.5163 38.5037 76.2671 38.908 77.0214 39.301C77.8085 39.7115 78.611 40.093 79.4135 40.4738C79.5805 40.5528 79.7398 40.6401 79.897 40.7292C78.5118 40.4312 77.154 40.0179 75.8378 39.4935ZM78.0388 23.6226C76.9854 24.6441 76.0799 25.767 75.3738 27.0233C75.3389 26.4765 75.3888 25.9161 75.4528 25.3921C75.5729 24.4034 75.9925 23.6554 76.7744 23.0349C78.0185 22.0476 79.6773 21.7189 81.2078 22.0958C81.0989 22.1376 80.9861 22.1683 80.871 22.1877C79.8007 22.3606 78.8105 22.862 78.0377 23.6226H78.0388ZM84.125 52.1852C83.4658 54.2489 82.5354 56.1704 81.2068 57.89C80.4382 58.886 79.664 59.8813 78.8978 60.8784C78.4922 61.4074 78.1037 61.9492 77.6978 62.4778C76.5169 64.015 76.1256 65.7968 76.0809 67.6886C76.0686 68.2569 76.1378 68.8241 76.2863 69.3729C74.9748 67.8706 74.7114 65.7783 75.2508 63.826C75.8762 61.5625 77.5517 60.0487 79.0896 58.3822C81.2871 56.0009 83.3718 53.445 84.4957 50.4132C84.4365 51.0155 84.3122 51.6096 84.125 52.1852ZM85.4938 19.2821C84.138 19.5071 82.9225 19.9913 82.1504 21.2287C82.0917 21.3227 82.0072 21.3999 81.9467 21.4925C81.9041 21.5568 81.8575 21.6183 81.807 21.6766C82.6822 19.4878 85.3328 18.7262 87.5254 18.9414C88.1241 19.0006 88.7144 19.1265 89.2851 19.317C88.0329 19.0864 86.7501 19.0746 85.4938 19.2821ZM104.273 37.2467C107.002 37.6719 109.791 37.1929 112.518 37.637C116.806 38.3357 121.789 42.9155 121.424 47.5002C121.397 47.4513 121.373 47.4017 121.346 47.3531C120.856 46.4822 120.376 45.6063 119.891 44.7329C119.344 43.7456 118.592 42.9312 117.725 42.2259C116.246 41.0234 114.622 40.0905 112.774 39.5609C110.887 39.0194 108.976 38.5806 107.044 38.2295C105.841 38.0108 104.652 37.7439 103.5 37.3246C102.976 37.1342 102.516 36.8684 102.165 36.4512C102.739 36.839 103.423 37.1143 104.273 37.2467Z" fill="black"/>
<path id="Vector_55" d="M86.1059 115.375C87.4527 116.435 88.9707 117.172 90.5876 117.729C93.8583 118.857 97.3523 119.274 100.799 119.311C102.504 119.327 104.207 119.252 105.904 119.087C107.531 118.93 109.151 118.702 110.74 118.311C113.706 117.58 116.533 116.298 118.915 114.37C120.132 113.38 121.228 112.249 122.179 111.002C122.822 110.17 123.418 109.302 123.964 108.403C124.094 106.413 123.922 104.415 123.453 102.476C122.163 97.1791 118.918 92.1644 115.135 88.2987C114.646 87.7963 114.214 87.2355 113.766 86.6937C113.579 86.4641 113.442 86.2234 113.44 85.8943C113.435 85.452 113.3 85.0653 113.102 84.7086C113.102 84.7061 113.1 84.7061 113.1 84.704C112.975 84.485 112.836 84.2749 112.682 84.0752C112.678 84.0703 112.674 84.0649 112.671 84.0591C112.611 83.9826 112.553 83.9085 112.496 83.832C112.406 83.8991 112.318 83.9641 112.235 84.0312C112.172 84.0776 112.112 84.1262 112.051 84.1709C111.829 84.34 111.619 84.4976 111.388 84.6226C111.316 84.6618 111.244 84.7037 111.172 84.7453C111.168 84.7477 111.163 84.7523 111.158 84.7547C110.952 84.8798 110.755 85.0164 110.551 85.1435C110.23 85.343 109.91 85.5467 109.586 85.7458L109.532 85.7783C108.895 86.1745 108.247 86.5518 107.568 86.853C106.237 87.4471 104.855 87.923 103.441 88.2752C103.239 88.3263 103.035 88.3724 102.831 88.415C101.129 88.7832 99.4289 89.1378 97.6709 89.1448C96.2972 89.1494 94.9399 88.9701 93.5781 88.8622C93.3685 88.8458 93.1729 88.7046 92.9713 88.6236C92.8022 88.5537 92.6376 88.4684 92.4616 88.4265C92.1793 88.3619 91.9291 88.5215 91.8896 88.8042C91.8362 89.1703 91.8086 89.5378 91.7848 89.9092C91.7712 90.173 91.715 90.4095 91.5672 90.6387C91.1459 91.292 90.7497 91.9589 90.3395 92.6189C88.7275 95.2154 87.2613 97.9118 86.0661 100.724C84.4754 104.471 83.4515 108.356 83.1105 112.349C84.0059 113.456 84.988 114.494 86.1059 115.375Z" fill="#999ADA"/>
<g id="Vector_56" style="mix-blend-mode:multiply" opacity="0.5">
<path d="M84.4772 113.894C84.8266 106.603 89.0679 100.087 91.4865 99.7639C92.9189 99.5718 94.3286 99.8359 95.6349 100.449C96.8947 101.04 98.0228 101.867 99.3015 102.425C100.564 102.974 101.935 103.118 103.299 103.095C104.652 103.074 106.15 103.097 107.462 102.743C108.346 102.502 109.104 101.96 109.546 101.144C109.664 100.929 110.431 98.6453 110.118 98.6198C110.067 98.6152 107.005 98.3752 103.904 98.6058C100.777 98.8374 97.2633 95.9817 93.4021 95.0943C89.5409 94.207 92.709 89.7948 92.709 89.7948C94.534 90.0149 96.32 90.228 98.1751 90.1749C100.234 90.1145 102.286 89.8319 104.276 89.2945C107.505 88.4236 110.567 86.8811 113.103 84.7039C113.103 84.7015 113.101 84.7015 113.101 84.6994C112.977 84.4803 112.837 84.2702 112.684 84.0705C112.679 84.0657 112.675 84.0603 112.672 84.0544C112.533 84.0441 112.393 84.0558 112.258 84.0894C112.186 84.1076 112.117 84.1332 112.051 84.1659C111.88 84.2445 111.725 84.3559 111.57 84.4646C111.438 84.5572 111.304 84.6497 111.171 84.7402C111.167 84.7427 111.162 84.7472 111.157 84.7497C110.641 85.099 110.117 85.4294 109.585 85.7408L109.532 85.7733C107.883 86.7299 106.148 87.4967 104.314 88.033C104.024 88.1165 103.733 88.1979 103.44 88.2702C103.239 88.3212 103.035 88.3673 102.831 88.41C101.129 88.7782 99.4286 89.1328 97.6706 89.1398C96.2969 89.1443 94.9396 88.9651 93.5778 88.8571C93.3682 88.8407 93.1726 88.6996 92.971 88.6185C92.8019 88.5487 92.6373 88.4634 92.4612 88.4215C92.179 88.3569 91.9288 88.5165 91.8893 88.7991C91.8359 89.1653 91.8083 89.5328 91.7845 89.9042C91.7709 90.168 91.7147 90.4045 91.5669 90.6337C91.1455 91.287 90.7494 91.9539 90.3392 92.6139C88.7272 95.2103 87.261 97.9067 86.0658 100.719C84.4751 104.466 83.4511 108.351 83.1102 112.344C83.5427 112.882 83.9972 113.401 84.4772 113.894Z" fill="#C7C0E5"/>
</g>
<path id="Vector_57" d="M96.3273 97.3872L97.7163 94.6831C99.4328 94.5025 101.161 94.3243 102.889 94.136C103.319 94.0892 103.693 94.229 104.052 94.4305C105.698 95.3559 107.342 96.285 108.983 97.2178C109.143 97.3086 109.287 97.4302 109.431 97.5462C109.575 97.6622 109.714 97.7851 109.85 97.9109C110.339 98.3651 110.469 98.6163 109.943 99.2147C109.748 99.4366 109.601 99.701 109.406 99.9232C108.562 100.888 107.515 101.198 106.301 100.775C105.567 100.52 104.828 100.249 104.157 99.867C103.259 99.3566 102.349 99.0984 101.306 99.1211C99.8419 99.1511 98.4476 98.7686 97.1388 98.1044C96.8464 97.9563 96.5208 97.8358 96.3273 97.3872Z" fill="#D58262"/>
<path id="Vector_58" d="M110.698 91.0352C111.022 91.2294 110.751 91.4439 110.773 91.7105C111.236 92.4092 112.158 92.6856 112.729 93.3612C112.573 93.9639 112.212 94.3932 111.825 94.7772C111.169 95.4267 110.46 96.022 109.789 96.6561C109.415 97.0089 109.027 97.3604 108.726 97.7716C108.073 98.6667 107.452 99.5883 106.854 100.521C106.374 101.27 105.731 101.796 104.899 102.078C104.27 102.29 103.633 102.491 102.985 102.632C102.257 102.791 101.811 102.427 101.849 101.691C101.876 101.138 101.973 100.591 102.137 100.062C102.46 99.0412 102.839 98.0357 103.224 97.0372C103.396 96.5904 103.627 96.1659 103.846 95.7386C104.493 94.4743 105.47 93.5764 106.767 92.9759C108.006 92.4022 109.201 91.7339 110.417 91.112C110.509 91.0652 110.62 91.0558 110.698 91.0352Z" fill="#E49672"/>
<path id="Vector_59" d="M138.103 77.5414C137.097 79.413 135.701 80.9114 133.871 82C132.884 82.5862 131.897 83.1721 130.922 83.7769C128.029 85.5789 125.083 87.288 122.107 88.9475C121.298 89.3992 120.479 89.8275 119.654 90.2447C119.388 90.3744 119.106 90.4693 118.816 90.5269C118.179 90.6614 117.641 90.9671 117.167 91.4003C116.503 92.0047 115.769 92.5005 114.931 92.8202C114.49 92.9893 114.183 93.2834 113.952 93.6817C113.86 93.8417 113.748 93.9923 113.67 94.1589C113.325 94.8863 112.202 95.1249 111.525 94.8143C111.261 94.6917 110.981 94.5436 110.786 94.335C110.253 93.7697 109.744 93.1793 109.264 92.5676C109.044 92.2849 108.919 91.9282 108.759 91.6243C108.854 91.4762 108.891 91.3486 108.975 91.298C109.735 90.8347 110.191 90.1213 110.589 89.359C110.834 88.8958 111.152 88.495 111.52 88.1223C111.812 87.8281 112.134 87.738 112.553 87.8777C112.722 87.6807 112.894 87.4934 113.053 87.2964C114.544 85.4566 115.973 83.5568 117.546 81.7883C119.045 80.0995 120.699 78.55 122.274 76.9286C122.713 76.4796 123.128 76.0072 123.517 75.5134C123.932 74.983 124.358 74.4782 124.947 74.1355C125.032 74.0845 125.09 73.9849 125.153 73.9175C124.206 72.9588 123.263 72.0159 122.334 71.0642C121.426 70.1352 120.492 69.2412 119.487 68.4143C118.474 67.5758 117.616 66.5543 116.478 65.6973C116.472 65.7483 116.467 65.7993 116.46 65.8478C116.25 67.4413 115.716 68.8429 115.165 70.2418C114.688 71.451 114.401 72.7157 114.183 73.9964C114.019 74.9746 114.088 75.9256 114.422 76.843C114.753 77.744 115.158 78.6171 115.536 79.5021C115.624 79.7057 115.735 79.8982 115.834 80.096C116.217 80.844 116.079 81.5458 115.58 82.1688C115.298 82.5124 114.974 82.8198 114.616 83.0837C113.725 83.751 112.789 84.3484 111.786 84.8372C111.254 85.0968 110.73 85.377 110.225 85.6851C107.865 87.1216 105.289 88.168 102.596 88.784C102.146 88.8883 101.692 88.9802 101.233 89.0596C99.445 89.3702 97.6315 89.5368 95.8109 89.3583C95.0741 89.2842 94.3377 89.1962 93.6057 89.0788C93.1959 89.0163 92.8022 88.974 92.4036 89.1319C92.0654 89.2685 91.7667 89.1739 91.4586 88.9953C90.625 88.509 90.0667 87.7886 89.6419 86.9501C89.6094 86.8852 89.5793 86.8181 89.5514 86.751C89.4252 86.439 89.3722 86.1022 89.3963 85.7665C89.4057 85.602 89.4127 85.4377 89.4172 85.2708C89.4263 85.037 89.4288 84.803 89.4333 84.5668V84.5437C89.4595 83.6085 89.1516 82.6945 88.5648 81.9658C88.2311 81.5486 87.9359 81.0924 87.5666 80.7591C87.5335 80.7262 87.4985 80.6951 87.4618 80.6661C87.1726 80.6777 87.2047 80.8653 87.1726 80.9928C87.0936 81.2779 87.0241 81.5671 86.9685 81.8568C86.7463 83.0219 86.4445 84.1626 85.7828 85.3012C85.9575 85.4329 86.1416 85.5604 86.3131 85.6994C87.0866 86.3363 87.8671 86.9711 88.6385 87.6171C88.8055 87.7568 88.9721 87.8966 89.1388 88.0388C89.9566 88.7312 90.7459 89.4586 91.5641 90.1559C92.2125 90.7072 92.8819 91.2351 93.5418 91.7749C93.8562 92.032 94.1707 92.2912 94.4868 92.5484C94.7139 92.736 94.911 92.9606 95.2467 92.9631C95.3438 92.9631 95.4563 93.0417 95.5363 93.1112C96.1942 93.6995 96.9886 93.9731 97.8362 94.1097C98.3089 94.728 98.2554 95.3929 97.9843 96.0182C97.614 96.8752 97.076 97.6211 96.2428 98.1721C95.3812 97.9729 94.5494 97.6718 93.7179 97.3685C93.4733 97.2781 93.2431 97.1589 93.1296 96.8959C92.9954 96.5902 92.7222 96.4885 92.428 96.4141C91.0639 96.0668 89.7014 95.7202 88.3405 95.3744C88.1969 95.3394 88.0439 95.3373 87.9052 95.2909C86.4969 94.8276 85.0837 94.3783 83.6824 93.8966C83.3351 93.7785 82.9875 93.6579 82.6427 93.5353C82.0565 93.3257 81.5286 92.9536 80.9748 92.6549C80.1619 92.2151 79.3349 91.7958 78.5335 91.3326C77.005 90.4452 76.2591 89.0509 76.0691 87.3348C75.9719 86.4474 76.0415 85.5604 76.1501 84.6733C76.4142 82.5006 76.9355 80.3814 77.4543 78.2573C78.1492 75.4131 79.1519 72.6615 79.9788 69.8565C80.1573 69.2541 80.3404 68.6452 80.4214 68.0244C80.5292 67.2173 80.7418 66.4277 81.0538 65.6756C81.29 65.0943 81.4545 64.485 81.6372 63.8806C82.1539 62.1736 82.8673 60.5476 83.7104 58.9772C84.5998 57.3209 85.788 55.9245 87.3329 54.831C88.6954 53.8674 90.008 52.8438 91.1616 51.6256C92.0095 50.7291 92.776 49.7886 93.1879 48.6053C93.2234 48.4997 93.2766 48.4009 93.3455 48.3133C93.473 48.1487 93.6512 48.0401 93.8852 47.9639C95.3582 47.4748 96.8199 46.9378 98.2974 46.456C98.7564 46.3131 99.2322 46.2308 99.7126 46.2115C101.672 46.1165 103.634 45.9568 105.598 46.0494C107.928 46.1605 110.259 46.2855 112.584 46.4616C113.314 46.5172 114.027 46.7792 114.752 46.9203C116.749 47.3095 118.409 48.3007 119.815 49.7415C120.409 50.3507 120.999 50.9667 121.571 51.5969C122.266 52.368 122.954 53.1439 123.619 53.9408C124.966 55.5643 126.372 57.1487 127.614 58.8511C128.728 60.3775 129.885 61.8714 130.991 63.4026C131.274 63.7939 131.561 64.1807 131.866 64.5514C133.041 65.9855 134.11 67.5028 135.065 69.0913C135.352 69.5661 135.681 70.0154 135.985 70.4808C136.49 71.2567 137.006 72.026 137.493 72.8135C137.942 73.5454 138.215 74.3468 138.421 75.1804C138.628 76.0238 138.503 76.7924 138.103 77.5414Z" fill="#D85946"/>
<g id="Vector_60" style="mix-blend-mode:multiply" opacity="0.5">
<path d="M78.4276 77.0207C77.7289 79.6958 75.1108 83.9832 76.8205 87.6567C78.0342 90.2602 81.6659 92.6966 83.681 93.8943C83.3337 93.7762 82.9861 93.6556 82.6413 93.533C82.0551 93.3234 81.5272 92.9513 80.9734 92.6526C80.1605 92.2128 79.3335 91.7935 78.5321 91.3303C77.0036 90.4429 76.2577 89.0486 76.0677 87.3325C75.9705 86.4451 76.0401 85.5581 76.1487 84.671C76.4128 82.4983 76.9341 80.3791 77.4529 78.255C78.1478 75.4108 79.1505 72.6592 79.9774 69.8542C80.1559 69.2519 80.339 68.6429 80.42 68.0221C80.5278 67.215 80.7404 66.4254 81.0524 65.6733C81.2886 65.092 81.4531 64.4827 81.6358 63.8783C82.1525 62.1713 82.8659 60.5453 83.709 58.975C84.5984 57.3186 85.7866 55.9222 87.3315 54.8287C88.694 53.8652 90.0066 52.8415 91.1602 51.6233C92.0081 50.7268 92.7746 49.7863 93.1865 48.603C93.222 48.4974 93.2752 48.3986 93.3441 48.311L94.2566 48.2715C94.2566 48.2715 90.5946 52.6735 87.0185 56.7652C83.4424 60.857 79.1249 74.3477 78.4276 77.0207Z" fill="#C7C0E5"/>
</g>
<g id="Vector_61" style="mix-blend-mode:multiply" opacity="0.5">
<path d="M112.728 88.0528C112.728 88.0528 123.174 75.4586 124.246 74.7071C125.318 73.9556 129.312 72.2238 130.63 72.5969C131.949 72.97 136.319 73.086 132.121 74.3598C127.922 75.6336 122.393 80.2082 118.918 82.5821C115.444 84.956 112.728 88.0528 112.728 88.0528Z" fill="#C7C0E5"/>
</g>
<path id="Vector_62" d="M100.777 46.9752C100.402 48.6336 99.6442 50.095 98.4651 51.3276C97.8932 51.9274 97.2192 52.3813 96.4084 52.5898C95.7114 52.7645 95.028 52.7795 94.3702 52.3907C93.6428 51.9596 93.2215 51.3646 93.212 50.5041C93.2096 50.2075 93.2096 49.9102 93.2029 49.6147C93.1922 49.1624 93.1324 48.7127 93.0244 48.2734C92.8298 47.4675 92.4731 46.717 91.9763 46.0176C91.8383 46.0388 91.7064 46.0893 91.5896 46.1657C91.3765 46.3055 91.2259 46.5064 91.0523 46.666C90.2208 47.4346 89.3103 47.6736 88.1917 47.3647C86.3131 46.8435 84.5932 46.0281 83.0473 44.8444C82.503 44.4276 82.1092 43.9012 81.9125 43.2416C81.7225 42.6026 81.5164 41.9702 81.3567 41.3239C81.1551 40.5064 80.7729 39.7766 80.129 39.2626C79.3555 38.6443 78.9594 37.8498 78.7232 36.9373C78.6072 36.481 78.3826 36.0478 78.4336 35.4734C78.6998 35.5433 78.9429 35.5894 79.1725 35.6705C80.7614 36.2169 82.3167 36.1082 83.8047 35.3648C84.6617 34.9386 85.4656 34.4012 86.2831 33.8975C86.9119 33.5107 87.5177 33.0845 88.1476 32.6998C88.9955 32.1856 89.8595 32.2946 90.6816 32.7554C91.8862 33.4297 92.7037 34.4673 93.3018 35.69C93.4314 35.9542 93.524 36.2392 93.6466 36.5079C93.7231 36.6746 93.7951 36.8622 93.9261 36.9802C94.0488 37.0892 94.2598 37.1899 94.4034 37.1633C94.5469 37.1368 94.7391 36.9478 94.7576 36.8112C94.8062 36.4499 94.8432 36.0583 94.7576 35.7135C94.5075 34.6965 94.9868 33.909 95.506 33.1376C95.6611 32.906 95.9318 32.7232 96.189 32.5982C96.8793 32.2621 97.5396 32.4934 97.8498 33.1921C98.2736 34.1556 98.2575 35.1426 97.8383 36.1012C97.5417 36.7825 97.1396 37.403 96.5135 37.8502C96.4147 37.9258 96.3232 38.0103 96.24 38.1028C96.2124 38.1304 96.182 38.1604 96.1498 38.1908C96.2765 39.2655 96.5355 40.3204 96.9209 41.3316C97.2851 42.2823 97.7437 43.194 98.29 44.0531C98.8899 45.0072 99.6288 45.8317 100.759 46.0749C101.006 46.4124 100.839 46.6996 100.777 46.9752Z" fill="#E49672"/>
<path id="Vector_63" d="M96.2392 38.1053C96.2116 38.1329 96.1813 38.1629 96.1491 38.1933C96.1722 38.1053 96.1998 38.0888 96.2392 38.1053Z" fill="#D58262"/>
<path id="Vector_64" d="M96.9202 41.3334C96.684 42.8434 96.1167 44.2587 95.3568 45.6135C94.7664 46.6616 93.951 47.5221 93.0244 48.2725C92.8298 47.4665 92.4731 46.7161 91.9763 46.0167C91.8383 46.0379 91.7065 46.0884 91.5896 46.1648C92.7872 45.0486 93.9499 43.5795 94.8995 42.269C95.4417 41.5186 95.7264 40.627 95.856 39.6956C95.907 39.3319 96.0552 38.5469 96.1481 38.1934C96.2752 39.2679 96.5345 40.3225 96.9202 41.3334Z" fill="#D58262"/>
<g id="Vector_65" style="mix-blend-mode:multiply" opacity="0.5">
<path d="M96.6292 119.06C96.7172 118.869 96.8057 118.678 96.8947 118.488C97.6521 116.881 98.4584 115.297 99.336 113.752C99.8133 112.916 100.274 112.07 100.73 111.222C101.534 109.724 101.893 108.113 101.926 106.419C101.937 105.772 101.833 105.156 101.655 104.559C101.57 104.829 101.471 105.095 101.358 105.355C100.832 106.595 99.7832 108.496 97.8676 111.389C96.3476 113.698 94.9901 116.11 93.8052 118.608C94.738 118.802 95.6813 118.95 96.6292 119.06Z" fill="#C7C0E5"/>
</g>
<g id="Vector_66" style="mix-blend-mode:multiply" opacity="0.5">
<path d="M86.9675 81.8557C86.7453 83.0208 86.4435 84.1615 85.7818 85.3001C85.9565 85.4318 86.1406 85.5593 86.3121 85.6984C87.0856 86.3353 87.8661 86.97 88.6375 87.616L86.1731 86.3052C82.671 84.4431 81.5405 85.7679 82.4974 81.3949C83.4543 77.0219 83.8012 76.5586 84.9293 73.3759C85.6473 71.3447 86.1685 68.431 86.4512 66.5871C86.6133 65.539 86.6957 64.834 86.6957 64.834L86.8327 64.864C86.8464 64.9077 86.8557 64.9526 86.8603 64.9982C87.0133 66.7006 87.0248 68.3985 86.6506 70.08C86.426 71.09 86.2084 72.1063 85.9869 73.1167C85.7552 74.1753 85.7182 75.2429 85.8202 76.32C85.8758 76.9174 86.0543 77.4757 86.2995 78.02C86.7282 78.9696 87.2778 79.843 87.9049 80.6752C88.1494 80.9994 88.3751 81.339 88.6067 81.6712C88.8301 81.9936 89.0224 82.3363 89.1811 82.6949L89.2251 83.1791C89.0765 82.7389 88.8518 82.3281 88.5613 81.9654C88.1976 81.5091 87.8804 81.0088 87.4587 80.6658C87.1695 80.6773 87.2016 80.8649 87.1694 80.9924C87.0926 81.2775 87.0231 81.5668 86.9675 81.8557Z" fill="#C7C0E5"/>
</g>
<g id="Vector_67" style="mix-blend-mode:multiply" opacity="0.5">
<path d="M89.5499 86.7498C89.4238 86.4378 89.3707 86.101 89.3948 85.7653C89.4043 85.6007 89.4112 85.4365 89.4158 85.2695L89.5499 86.7498Z" fill="#C7C0E5"/>
</g>
<g id="Vector_68" style="mix-blend-mode:multiply" opacity="0.5">
<path d="M115.834 80.0933C116.217 80.8413 116.079 81.5431 115.58 82.1661C115.298 82.5097 114.974 82.8171 114.616 83.081C113.725 83.7483 112.789 84.3457 111.786 84.8345C111.254 85.0941 110.73 85.3743 110.225 85.6824C107.865 87.1189 105.289 88.1653 102.596 88.7813C102.403 88.5241 102.343 88.2464 103.015 88.267C104.252 88.304 106.026 86.567 110.352 84.0586C114.677 81.5501 113.055 81.2025 112.707 77.8441C112.36 74.4856 111.896 73.7914 113.17 68.6949C114.444 63.5984 111.781 62.5178 112.397 61.7464C113.013 60.975 116.297 65.1048 116.297 65.1048L116.462 65.8438C116.252 67.4372 115.718 68.8389 115.167 70.2377C114.69 71.4469 114.403 72.7116 114.185 73.9923C114.021 74.9705 114.09 75.9215 114.423 76.8389C114.755 77.74 115.16 78.613 115.537 79.498C115.624 79.7016 115.735 79.8941 115.834 80.0933Z" fill="#C7C0E5"/>
</g>
<g id="Vector_69" style="mix-blend-mode:multiply" opacity="0.5">
<path d="M108.726 78.6562C104.289 80.8922 100.545 78.8089 95.7574 79.8144C92.0954 80.5809 90.5575 83.4275 89.4318 84.5657V84.5427C89.458 83.6074 89.1501 82.6934 88.5633 81.9647C88.2297 81.5476 87.9345 81.0913 87.5652 80.758C88.7045 80.1162 92.2323 78.3767 96.955 78.3442C102.745 78.3072 108.073 75.2639 109.192 72.0952C110.31 68.9264 110.773 69.1581 110.773 69.1581C110.773 69.1581 113.162 76.4165 108.726 78.6562Z" fill="#C7C0E5"/>
</g>
<path id="Vector_70" d="M96.801 33.1887C95.7704 33.8035 95.5604 34.9823 95.6041 36.0971C95.6156 36.3941 96.0789 36.3958 96.0673 36.0971C96.0593 35.8931 96.0593 35.6845 96.0719 35.4777C96.6532 35.2118 96.6745 36.0975 96.3311 36.3941C96.1047 36.589 96.4338 36.9157 96.6585 36.7214C97.0323 36.399 97.1266 35.8452 96.947 35.3938C96.8108 35.0508 96.4649 34.9372 96.132 34.9872C96.2399 34.4237 96.4939 33.9122 97.0347 33.5897C97.2905 33.436 97.0578 33.0353 96.801 33.1887Z" fill="#D58262"/>
<path id="Vector_71" d="M104.223 96.9019C103.557 98.5966 102.834 100.267 102.054 101.914C101.99 102.048 102.19 102.165 102.254 102.031C103.042 100.366 103.773 98.6778 104.447 96.9648C104.501 96.8247 104.277 96.7643 104.223 96.9019Z" fill="#D58262"/>
<path id="Vector_72" d="M105.327 97.1422L103.282 102.383C103.228 102.522 103.452 102.582 103.506 102.445C104.187 100.698 104.869 98.9509 105.55 97.204C105.604 97.065 105.38 97.0046 105.327 97.1422Z" fill="#D58262"/>
<path id="Vector_73" d="M106.369 97.5825C105.966 98.8573 105.444 100.092 104.812 101.269C104.742 101.401 104.941 101.518 105.011 101.386C105.654 100.191 106.183 98.9379 106.593 97.644C106.639 97.5018 106.416 97.4407 106.369 97.5825Z" fill="#D58262"/>
</g>
</g>
</g>
</g>
<defs>
<clipPath id="clip0_1822_3557">
<rect width="154" height="111" fill="white"/>
</clipPath>
</defs>
</svg>
