<svg width="78" height="78" viewBox="0 0 78 78" fill="none" xmlns="http://www.w3.org/2000/svg">
<g id="icon-park-outline:quote">
<path id="Vector" fill-rule="evenodd" clip-rule="evenodd" d="M30.6362 14.8134C18.3999 22.6719 11.6025 31.8174 10.2424 42.2547C8.12504 58.4999 22.6525 66.451 30.0138 59.3075C37.375 52.1624 32.9632 43.0949 27.6332 40.6151C22.3032 38.137 19.0434 38.9999 19.6122 35.6865C20.1809 32.3747 27.7632 23.1902 34.4257 18.9132C34.6618 18.7125 34.8124 18.4292 34.8468 18.1212C34.8812 17.8132 34.7969 17.5037 34.6109 17.2557L32.9632 15.1124C32.2482 14.1829 31.5624 14.2186 30.6362 14.8117M62.8534 14.8134C50.6172 22.6719 43.8182 31.819 42.4597 42.2547C40.3423 58.4999 54.8698 66.451 62.231 59.3075C69.5923 52.1624 65.1804 43.0949 59.8488 40.6151C54.5188 38.137 51.259 38.9999 51.8278 35.6865C52.3965 32.3747 59.9804 23.1902 66.6429 18.9132C66.8788 18.7123 67.0291 18.4289 67.0632 18.1209C67.0973 17.8129 67.0127 17.5035 66.8265 17.2557L65.1788 15.1124C64.4638 14.1829 63.778 14.2186 62.8534 14.8117" fill="url(#paint0_linear_2269_2883)"/>
</g>
<defs>
<linearGradient id="paint0_linear_2269_2883" x1="38.5522" y1="14.3867" x2="39" y2="62" gradientUnits="userSpaceOnUse">
<stop stop-color="#BBBBBB"/>
<stop offset="1" stop-color="#E5E5E5" stop-opacity="0"/>
</linearGradient>
</defs>
</svg>
